<svg xmlns="http://www.w3.org/2000/svg" xmlns:xlink="http://www.w3.org/1999/xlink" preserveAspectRatio="xMidYMid" width="24" height="24" viewBox="0 0 24 24">
  <path d="M24.000,10.998 C24.000,10.998 24.000,-0.001 24.000,-0.001 C24.000,-0.001 13.000,-0.001 13.000,-0.001 C13.000,-0.001 16.379,3.378 16.379,3.378 C16.379,3.378 2.000,17.757 2.000,17.757 C2.000,17.757 2.000,1.999 2.000,1.999 C2.000,1.999 10.000,1.999 10.000,1.999 C10.000,1.999 10.000,-0.001 10.000,-0.001 C10.000,-0.001 -0.000,-0.001 -0.000,-0.001 C-0.000,-0.001 -0.000,23.999 -0.000,23.999 C-0.000,23.999 24.000,23.999 24.000,23.999 C24.000,23.999 24.000,14.000 24.000,14.000 C24.000,14.000 22.000,14.000 22.000,14.000 C22.000,14.000 22.000,21.999 22.000,21.999 C22.000,21.999 6.242,21.999 6.242,21.999 C6.242,21.999 20.621,7.620 20.621,7.620 C20.621,7.620 24.000,10.998 24.000,10.998 Z" id="path-1" fill-rule="evenodd"/>
</svg>
