<?xml version="1.0" encoding="utf-8"?>
<!-- Generator: Adobe Illustrator 18.1.1, SVG Export Plug-In . SVG Version: 6.00 Build 0)  -->
<svg version="1.1" id="Слой_1" xmlns="http://www.w3.org/2000/svg" xmlns:xlink="http://www.w3.org/1999/xlink" x="0px" y="0px"
	 viewBox="0 0 240 240" enable-background="new 0 0 240 240" xml:space="preserve">
<g>
	<path d="M93.8,236.1c-15.6,0-23.6-11.4-26.8-20.6c-6.2,4.4-16.2,7.5-27.1,0.5c-10.8-7-9.8-18.8-6.7-27.1c-4-0.2-9.1-1.1-13.4-4.4
		c-4.6-3.5-7.2-8.7-7.9-15.6c-1-11.4,3.9-17.7,9.1-20.8c-5.4-4.9-10.7-13.3-9-24.5c1.4-9.5,5.8-14.1,9.1-16.2
		c-1.9-4.4-3.8-12.1,0.8-21.4c2-4.2,5.9-7,9-8.7c-3.4-5-6-13-1.5-21.8c4.1-8,9.8-10.9,13.8-11.9C42.4,37.6,43.9,29,53,22.6
		c7.7-5.4,16-3.6,21.8-0.7c1.7-6.6,6.6-14.6,17.8-17.6c12.6-3.5,21.5,4.7,21.8,5.1c1.4,1.3,1.5,3.5,0.1,4.9
		c-1.3,1.4-3.5,1.5-4.9,0.1c-0.2-0.2-6.4-5.8-15.2-3.4C80.9,14.8,81,27.4,81,27.9c0,1.4-0.8,2.7-2,3.3c-1.3,0.6-2.7,0.4-3.8-0.5
		c-0.4-0.3-9.6-8.2-18.2-2.3c-9.8,6.9-6.6,15.8-6.3,16.8c0.4,1.1,0.3,2.4-0.5,3.4c-0.7,1-1.9,1.5-3.1,1.4c-0.2,0-6.9-0.3-11.6,8.6
		c-5.1,9.8,2.9,17,3.2,17.3c0.9,0.8,1.4,2.1,1.1,3.3s-1.1,2.2-2.3,2.6c-2,0.7-7.6,3.3-9.5,7.2c-5,10.2,0.6,17.8,0.6,17.9
		c0.7,1,0.9,2.3,0.4,3.4c-0.5,1.1-1.5,2-2.7,2.1c-0.2,0-6,1.3-7.6,12.1c-2.2,14.4,10.6,21.1,11.2,21.4c1.4,0.7,2.1,2.2,1.9,3.8
		c-0.3,1.5-1.5,2.7-3.1,2.8c-1.1,0.1-11.2,1.8-9.9,15.7c0.4,4.8,2.1,8.4,5.1,10.7c5.6,4.2,14.1,2.7,14.2,2.7
		c1.4-0.3,2.7,0.3,3.5,1.4s0.8,2.6,0.1,3.8c-0.4,0.6-9.5,16,1.8,23.2c12.6,8.2,22.2-2.8,22.6-3.3c0.9-1,2.3-1.5,3.6-1.1
		c1.3,0.4,2.3,1.5,2.5,2.8c0.1,0.8,3.5,20.6,21.4,20.6c18.6,0,22.3-12.5,22.3-34.1V33.5c0-19.4,8.4-29.2,25.6-30
		c13.5-0.6,20.1,11.1,22.8,17.9c4.9-2.6,12.5-4.1,20.8,0.5c9.9,5.5,12,15.9,11.6,22.6c4,1.5,10.7,5.2,13.9,13.2
		c3.2,7.8,0.7,14.5-2.6,19c3.4,1.7,7.5,5,10.1,11.4c3.4,8.3,1.1,15-1.2,18.8c3.8,2.7,9.2,8.2,10.7,18c1.7,11-4.2,18.8-10,23.2
		c6.4,4.2,12.8,12,9.6,23.7c-3.6,13.1-13.2,17.3-21.1,17.9c2.7,6.5,3.3,15.7-4.8,24.1c-4.6,4.9-9.9,7.3-15.7,7.2
		c-5.5-0.1-10.3-2.5-13.7-4.8c-1.6,5.9-5.9,13-15,16.7c-18.8,7.5-30.1-3.3-30.6-3.7c-1.4-1.3-1.4-3.6-0.1-4.9
		c1.3-1.4,3.5-1.4,4.9-0.1c0.4,0.3,8.8,8,23.1,2.3c11.8-4.7,11.5-16.3,11.4-16.8c-0.1-1.5,0.8-2.8,2.2-3.4c1.4-0.6,2.9-0.2,3.9,0.9
		c0.1,0.1,6.4,6.9,13.9,6.9c3.8,0.1,7.2-1.6,10.5-5c9.5-9.9,1.8-19.8,0.8-20.8c-1-1.1-1.1-2.8-0.3-4c0.8-1.3,2.2-1.9,3.7-1.6
		c1.6,0.3,15.8,2.7,19.9-12.5c3.6-13.2-10.6-18.1-11.2-18.3c-1.4-0.5-2.3-1.7-2.4-3.2c-0.1-1.5,0.8-2.8,2.2-3.4
		c0.5-0.2,13.7-6,11.7-19.2c-1.7-11.3-10-14.7-10.1-14.8c-1.1-0.4-1.9-1.4-2.1-2.5c-0.2-1.2,0.1-2.3,1-3.2c0.2-0.2,5.8-6.1,2.2-14.7
		c-3.5-8.5-10-8.8-10.3-8.8c-1.5,0-2.8-1-3.3-2.5s0.1-3,1.3-3.9c0.3-0.2,8.4-6.4,4.8-15.3c-3.2-8-11.6-9.8-12-9.9
		c-1.9-0.4-3.1-2.2-2.7-4.1c0.1-0.5,2.3-12.6-7.8-18.3c-9.6-5.4-16.6,1.2-16.8,1.5c-0.9,0.9-2.2,1.2-3.4,0.8
		c-1.2-0.4-2.1-1.3-2.4-2.6c0-0.2-4.4-17.9-17.2-17.3c-9.8,0.5-18.9,3.6-18.9,23V195C123,209.4,123,236.1,93.8,236.1z"/>
</g>
<g>
	<path d="M68.8,198.8c-0.1,0-0.2,0-0.3,0c-1.9-0.1-3.4-1.8-3.2-3.8c0.6-8,6.6-20.6,20.1-20c1.9,0.1,3.4,1.7,3.3,3.7
		c-0.1,1.9-1.7,3.4-3.7,3.3c-9.7-0.4-12.6,9.6-12.9,13.5C72.1,197.4,70.6,198.8,68.8,198.8z"/>
</g>
<g>
	<path d="M45.1,166c-0.2,0-0.4,0-0.6,0c-1.9-0.3-3.2-2.1-2.9-4c1.3-8,8.4-19.9,21.8-18.2c1.9,0.3,3.3,2,3,3.9c-0.3,1.9-2,3.3-3.9,3
		c-9.6-1.3-13.3,8.5-14,12.4C48.2,164.8,46.8,166,45.1,166z"/>
</g>
<g>
	<path d="M169.8,199.1c-0.1,0-0.3,0-0.4,0c-1.9-0.2-3.3-1.9-3.1-3.9c1-9.6-8.8-13.1-12.7-13.7c-1.9-0.3-3.2-2-3-4c0.3-1.9,2-3.2,4-3
		c8,1.1,20.1,7.9,18.7,21.4C173.1,197.8,171.6,199.1,169.8,199.1z"/>
</g>
<g>
	<path d="M100.2,159.8c-0.1,0-0.1,0-0.2,0c-1.9-0.1-3.4-1.8-3.3-3.7c0.6-9.6-9.4-12.7-13.3-13.1c-1.9-0.2-3.3-1.9-3.2-3.8
		s1.9-3.3,3.8-3.2c8,0.8,20.5,7,19.6,20.5C103.6,158.3,102,159.8,100.2,159.8z"/>
</g>
<g>
	<path d="M85.2,112c-0.1,0-0.1,0-0.2,0c-1.9,0-3.5-1.6-3.5-3.5c0-1.9,1.6-3.5,3.5-3.5c0,0,0.1,0,0.1,0c9.6,0,12.1-10.1,12.2-14
		c0.1-1.9,1.7-3.4,3.6-3.3c1.9,0.1,3.4,1.7,3.4,3.6C104.1,99.4,98.6,112,85.2,112z"/>
</g>
<g>
	<path d="M62.2,119.8c-0.1,0-0.2,0-0.4,0c-8-0.8-20.4-7.2-19.4-20.7c0.1-1.9,1.8-3.4,3.7-3.2c1.9,0.1,3.4,1.8,3.2,3.7
		c-0.7,9.6,9.3,12.8,13.2,13.2c1.9,0.2,3.3,1.9,3.1,3.8C65.5,118.5,63.9,119.8,62.2,119.8z"/>
</g>
<g>
	<path d="M53.6,80.7c-0.4,0-0.8,0-1.2,0c-1.9-0.1-3.4-1.8-3.3-3.7c0.1-1.9,1.8-3.4,3.7-3.3c9.7,0.5,12.7-9.5,13-13.4
		c0.2-1.9,1.9-3.3,3.8-3.2c1.9,0.2,3.3,1.9,3.2,3.8C72.1,68.7,66.3,80.7,53.6,80.7z"/>
</g>
<g>
	<path d="M100.4,61.6c-0.1,0-0.1,0-0.2,0c-1.9-0.1-3.4-1.7-3.3-3.6c0.4-9.7-9.6-12.5-13.5-12.8c-1.9-0.1-3.4-1.8-3.2-3.8
		c0.1-1.9,1.8-3.4,3.8-3.2c8,0.6,20.6,6.6,20,20.1C103.8,60.1,102.2,61.6,100.4,61.6z"/>
</g>
<g>
	<path d="M193.2,166.8c-0.1,0-0.1,0-0.2,0c-1.9-0.1-3.4-1.8-3.3-3.7c0.6-9.6-9.4-12.7-13.3-13.1c-1.9-0.2-3.3-1.9-3.2-3.8
		c0.2-1.9,1.9-3.3,3.8-3.2c8,0.8,20.5,7,19.6,20.5C196.6,165.3,195.1,166.8,193.2,166.8z"/>
</g>
<g>
	<path d="M155.2,111.8c-0.1,0-0.2,0-0.4,0c-8-0.8-20.4-7.2-19.4-20.7c0.1-1.9,1.8-3.4,3.7-3.2c1.9,0.1,3.4,1.8,3.2,3.7
		c-0.7,9.6,9.3,12.8,13.2,13.2c1.9,0.2,3.3,1.9,3.1,3.8C158.5,110.5,156.9,111.8,155.2,111.8z"/>
</g>
<g>
	<path d="M138.1,158c-0.2,0-0.4,0-0.6,0c-1.9-0.3-3.2-2.1-2.9-4c1.3-8,8.4-19.9,21.8-18.2c1.9,0.3,3.3,2,3,3.9c-0.3,1.9-2,3.3-3.9,3
		c-9.6-1.3-13.3,8.5-14,12.4C141.2,156.8,139.8,158,138.1,158z"/>
</g>
<g>
	<path d="M177.2,120c-0.1,0-0.1,0-0.2,0c-1.9,0-3.5-1.6-3.5-3.5c0-1.9,1.6-3.5,3.5-3.5c0,0,0.1,0,0.1,0c9.6,0,12.1-10.1,12.2-14
		c0.1-1.9,1.7-3.4,3.6-3.3c1.9,0.1,3.4,1.7,3.4,3.6C196.1,107.4,190.6,120,177.2,120z"/>
</g>
<g>
	<path d="M186.2,80.8c-0.1,0-0.2,0-0.4,0c-8-0.8-20.4-7.2-19.4-20.7c0.1-1.9,1.8-3.4,3.7-3.2c1.9,0.1,3.4,1.8,3.2,3.7
		c-0.7,9.6,9.3,12.8,13.2,13.2c1.9,0.2,3.3,1.9,3.1,3.8C189.5,79.5,187.9,80.8,186.2,80.8z"/>
</g>
<g>
	<path d="M138.6,60.4c-0.3,0-0.5,0-0.8-0.1c-1.9-0.4-3.1-2.3-2.6-4.2c1.8-7.9,9.6-19.4,22.9-16.8c1.9,0.4,3.1,2.2,2.8,4.1
		s-2.2,3.1-4.1,2.8c-9.5-1.8-13.8,7.7-14.7,11.5C141.6,59.3,140.2,60.4,138.6,60.4z"/>
</g>
</svg>
