<?xml version="1.0" encoding="utf-8"?>
<!-- Generator: Adobe Illustrator 19.2.1, SVG Export Plug-In . SVG Version: 6.00 Build 0)  -->
<svg version="1.1" id="Layer_1" xmlns:x="ns_extend;" xmlns:i="ns_ai;" xmlns:graph="ns_graphs;"
	 xmlns="http://www.w3.org/2000/svg" xmlns:xlink="http://www.w3.org/1999/xlink" x="0px" y="0px" viewBox="0 0 91 91"
	 style="enable-background:new 0 0 91 91;" xml:space="preserve">
<style type="text/css">
	.st0{fill:none;}
	.st1{fill:#9A663C;}
	.st2{fill:#BC7D48;}
	.st3{fill:#594A42;}
	.st4{fill:#E5DFDA;}
	.st5{fill:#594637;}
	.st6{opacity:0.2;enable-background:new    ;}
	.st7{opacity:0.3;fill:#FFFFFF;enable-background:new    ;}
	.st8{fill:#DAD4CF;}
	.st9{fill:#FFFFFF;}
	.st10{fill:#2886C4;}
</style>
<metadata>
	<sfw  xmlns="ns_sfw;">
		<slices></slices>
		<sliceSourceBounds  bottomLeftOrigin="true" height="731.8" width="1506.1" x="3.7" y="7.6"></sliceSourceBounds>
	</sfw>
</metadata>
<g>
	<g>
		<path class="st0" d="M1176.7-494.2v5.1c0.5-0.6,0.9-1.3,1-2.3C1177.8-492.7,1177.4-493.6,1176.7-494.2z"/>
	</g>
	<g>
		<g>
			<path class="st1" d="M1369.1-471.3v1.1c0,0.3-0.2,0.5-0.5,0.5h3.1c0.3,0,0.5-0.2,0.5-0.5v-1.1c0-0.3-0.2-0.5-0.5-0.5h-3.1
				C1368.9-471.8,1369.1-471.6,1369.1-471.3z"/>
			<path class="st2" d="M1366-471.3v1.1c0,0.3,0.2,0.5,0.5,0.5h2.1c0.3,0,0.5-0.2,0.5-0.5v-1.1c0-0.3-0.2-0.5-0.5-0.5h-2.1
				C1366.2-471.8,1366-471.6,1366-471.3z"/>
		</g>
		<path class="st3" d="M1369.3-462.1c15.3,0,27.8-12.5,27.8-27.8c0-15.3-12.5-27.8-27.8-27.8s-27.8,12.5-27.8,27.8
			C1341.5-474.5,1353.9-462.1,1369.3-462.1z M1369.3-515.5c14.1,0,25.6,11.5,25.6,25.6s-11.5,25.6-25.6,25.6s-25.6-11.5-25.6-25.6
			S1355.1-515.5,1369.3-515.5z"/>
		<path class="st3" d="M1369.3-466.7c12.8,0,23.2-10.4,23.2-23.2S1382-513,1369.3-513c-12.8,0-23.2,10.4-23.2,23.2
			S1356.5-466.7,1369.3-466.7z M1369.3-511.6c12,0,21.7,9.7,21.7,21.7s-9.7,21.7-21.7,21.7c-12,0-21.7-9.7-21.7-21.7
			S1357.3-511.6,1369.3-511.6z"/>
		<path class="st3" d="M1369.3-473.2c9.2,0,16.7-7.5,16.7-16.7c0-9.2-7.5-16.7-16.7-16.7s-16.7,7.5-16.7,16.7
			C1352.6-480.7,1360.1-473.2,1369.3-473.2z M1369.3-505.1c8.4,0,15.2,6.8,15.2,15.2c0,0.7-0.1,1.3-0.1,1.9h-30.1
			c-0.1-0.6-0.1-1.3-0.1-1.9C1354.1-498.2,1360.9-505.1,1369.3-505.1z M1384.1-486.5c-0.3,1.3-0.7,2.5-1.3,3.6h-27
			c-0.6-1.1-1-2.3-1.3-3.6H1384.1z M1381.9-481.4c-2.7,4.1-7.4,6.8-12.6,6.8c-5.3,0-9.9-2.7-12.6-6.8H1381.9z"/>
		<circle class="st3" cx="1369.3" cy="-509.8" r="0.6"/>
		<path class="st3" d="M1371.7-472.5h-5.2c-0.7,0-1.2,0.5-1.2,1.2v1.1c0,0.7,0.5,1.2,1.2,1.2h5.2c0.7,0,1.2-0.5,1.2-1.2v-1.1
			C1372.9-472,1372.4-472.5,1371.7-472.5z"/>
	</g>
	<g>
		<g>
			<path class="st3" d="M1494.6-523.8h-4.4l-7.2-6.5c-0.2-0.2-0.4-0.3-0.7-0.3h-10.9l0.9-4.6c0-0.3,0-0.6-0.2-0.8
				c-0.2-0.2-0.5-0.3-0.8-0.3h-7.7c-0.3,0-0.6,0.1-0.8,0.3c-0.2,0.2-0.3,0.5-0.2,0.8l0.9,4.6h-10.9c-0.3,0-0.5,0.1-0.7,0.3l-7.1,6.4
				h-9.9c-0.3,0-0.6,0.2-0.8,0.4c-0.2,0.3-0.2,0.6-0.1,0.9l13.4,23c0,0.1,0.1,0.1,0.1,0.2l2.7,18.1c0.1,0.5,0.5,0.9,1,0.9h1.2v4
				h-1.2c-0.5,0-0.9,0.3-1,0.8l-6.6,24.5c-0.3,1.2,0,2.5,0.8,3.5c0.8,1,2,1.6,3.2,1.6h39.4c1.3,0,2.4-0.6,3.2-1.6
				c0.8-1,1.1-2.3,0.8-3.5l-6.6-24.5c-0.1-0.5-0.5-0.8-1-0.8h-1.2v-4h1.2c0.5,0,0.9-0.4,1-0.9l5.3-36h4.7c2.2,0,4.1,1.8,4.1,4.1
				v13.3c0,2.2-1.8,4.1-4.1,4.1h-3.1c-1.9,0-3.4,1.5-3.4,3.4c0,1.9,1.5,3.4,3.4,3.4h3.1c6,0,10.8-4.9,10.8-10.8V-513
				C1505.4-518.9,1500.6-523.8,1494.6-523.8z M1481.9-528.5l5.2,4.6h-6.7c0,0,0,0,0,0l-2.5-4.6H1481.9z M1470.2-534.2l-0.8,3.4h-3.8
				l-0.8-3.4H1470.2z M1476.4-528.5c0,0.1,0,0.2,0.1,0.3l2.4,4.3h-22.6l1.9-4.6L1476.4-528.5L1476.4-528.5z M1478.8-521.9l-3.7,39.6
				h-15.2l-3.7-39.6H1478.8z M1453-528.5h3.6l-1.8,4.4c0,0.1,0,0.1,0,0.2h-3.3h-3.7L1453-528.5z M1448-503.9L1448-503.9l-11.5-18
				h7.9h0.9h0.1h1h4l-2,14.3L1448-503.9z M1449.5-500.2l3-21.6h2.4l3.7,39.6h-6.4L1449.5-500.2z M1447.8-447.9
				c-0.6,0-1.2-0.3-1.6-0.8s-0.5-1.1-0.4-1.8l6.4-23.7h6.5l-3.8,26.3L1447.8-447.9L1447.8-447.9z M1456.2-447.9l3.8-26.3h15
				l3.8,26.3H1456.2z M1482.9-474.2l6.4,23.7c0.1,0.6,0,1.3-0.4,1.8s-1,0.8-1.6,0.8h-7l-3.8-26.3L1482.9-474.2L1482.9-474.2z
				 M1481.2-476.2h-27.3v-4h27.3V-476.2z M1488.6-521.7l-0.4,2.5l-0.1,1l-0.1,1l-5.1,34.9h-6.4l3.7-39.6h5.6h1.2h1.6L1488.6-521.7z
				 M1503.4-499.7c0,4.8-3.9,8.8-8.8,8.8h-3.1c-0.7,0-1.3-0.6-1.3-1.4c0-0.7,0.6-1.3,1.3-1.3h3.1c3.4,0,6.1-2.7,6.1-6.1V-513
				c0-3.4-2.7-6.1-6.1-6.1h-4.4l0.4-2.7h4c4.8,0,8.8,3.9,8.8,8.8V-499.7z"/>
			<path class="st3" d="M1467.5-456.2c2.7,0,4.9-2.2,4.9-4.9c0-2.7-2.2-4.9-4.9-4.9c-2.7,0-4.9,2.2-4.9,4.9
				C1462.6-458.4,1464.8-456.2,1467.5-456.2z M1467.5-464.6c2,0,3.5,1.6,3.5,3.5c0,2-1.6,3.5-3.5,3.5c-2,0-3.5-1.6-3.5-3.5
				C1464-463,1465.5-464.6,1467.5-464.6z"/>
			<path class="st3" d="M1467.5-458.6c1.4,0,2.5-1.1,2.5-2.5s-1.1-2.5-2.5-2.5c-1.4,0-2.5,1.1-2.5,2.5S1466.1-458.6,1467.5-458.6z
				 M1467.5-462.9c1,0,1.8,0.8,1.8,1.8c0,1-0.8,1.8-1.8,1.8c-1,0-1.8-0.8-1.8-1.8C1465.7-462.1,1466.5-462.9,1467.5-462.9z"/>
		</g>
	</g>
	<path class="st3" d="M1175.1-498.9L1175.1-498.9c3.5,0,6.3,2.8,6.3,6.2v2.4c0,3.4-2.8,6.2-6.3,6.2l0,0c-0.6,0-1,0.4-1,1
		c0,0.5,0.4,1,1,1c4.6,0,8.3-3.6,8.3-8.1v-2.4c0-4.5-3.7-8.1-8.3-8.1c-0.6,0-1,0.4-1,1C1174.1-499.3,1174.6-498.9,1175.1-498.9z"/>
	<path class="st3" d="M1182.4-475.5h-13.9c3.2-2.9,5.1-6.9,5.4-11.2c0.4,0,0.9-0.1,1.3-0.2c2-0.6,3.5-2.4,3.5-4.6s-1.5-4-3.5-4.6
		c-0.4-0.1-0.8-0.2-1.3-0.2v-10.5c0-0.6-0.5-1.1-1.1-1.1h-40.5c-0.6,0-1.1,0.5-1.1,1.1v19.1c0,4.6,2,9,5.4,12.1h-13.9
		c-0.6,0-1.1,0.5-1.1,1.1c0,6.6,5.5,6.6,9.9,6.6l40.4,0l1.7,0c4.4,0,9.9,0,9.9-6.6C1183.5-475,1183-475.5,1182.4-475.5z
		 M1173.9-494.4c0.5,0,0.9,0.1,1.3,0.4c0.9,0.5,1.5,1.4,1.5,2.5s-0.6,2-1.5,2.5c-0.4,0.2-0.8,0.3-1.3,0.4V-494.4z M1133.4-505.7
		h38.3v2.4h-38.3V-505.7z M1139.2-476.2c-3.7-2.7-5.9-6.9-5.9-11.5v-14.1h38.3v14.1c0,4.5-2.2,8.8-5.9,11.5
		c-0.2,0.2-0.4,0.4-0.4,0.7h-25.8C1139.6-475.8,1139.5-476,1139.2-476.2z M1173.6-470.1l-40.4,0l-1.7,0c-4.8,0-7.2-0.3-7.6-3.3h57.4
		C1180.8-470.4,1178.4-470.1,1173.6-470.1z"/>
	<path class="st4" d="M1384.2-607.2l-4-0.1c0.1,0.1,0.2,0.1,0.2,0.1l4.3,0.1C1384.5-607.1,1384.3-607.1,1384.2-607.2z"/>
	<path class="st5" d="M1389-579.9c0.4,0,0.7-0.3,0.7-0.7v-15.5c0-0.4-0.3-0.7-0.7-0.7h-43.3c-0.4,0-0.7,0.3-0.7,0.7v15.5
		c0,0.4,0.3,0.7,0.7,0.7H1389z M1346.5-595.3h41.8v14h-41.8V-595.3z"/>
	<path class="st5" d="M1367.4-592.6c-2.5,0-4.6,2.1-4.6,4.6c0,2.5,2.1,4.6,4.6,4.6c2.5,0,4.6-2.1,4.6-4.6
		C1372-590.5,1369.9-592.6,1367.4-592.6z M1367.4-584.8c-1.7,0-3.2-1.4-3.2-3.2c0-1.7,1.4-3.2,3.2-3.2s3.2,1.4,3.2,3.2
		C1370.6-586.2,1369.1-584.8,1367.4-584.8z"/>
	<path class="st5" d="M1399.1-648.4c-2.2,0-4,1.8-4,4v12c0,1.5,0.9,2.8,2.1,3.5c0.3,0.1,0.5,0.2,0.8,0.3v1.1h-5.3h-8
		c-2.3,0-4.4,0.9-6,2.5l-2.6,2.6c-0.1,0.1-0.3,0.3-0.4,0.4c-1.1,0.9-2.5,1.4-4,1.4h-0.5h-1.6v-1c0-1-0.8-1.8-1.8-1.8
		s-1.8,0.8-1.8,1.8v4.6c-5.3,0.5-10.1,3.5-12.7,8.3c-0.1,0.2-0.2,0.5-0.1,0.7h-16.6c-1.6,0-2.8,1.3-2.8,2.8v2.2
		c0,1.6,1.3,2.8,2.8,2.8h1.7v22.3c0,0.6,0.5,1.1,1.1,1.1c0.6,0,1.1-0.5,1.1-1.1v-22.3h53.9v24.6h-57.8c-1.6,0-2.8,1.3-2.8,2.8v2.2
		c0,1.6,1.3,2.8,2.8,2.8h61.7c1.6,0,2.8-1.3,2.8-2.8v-2.2c0-1.6-1.3-2.8-2.8-2.8h-1.7v-24.6h1.7c1.6,0,2.8-1.3,2.8-2.8v-2.2
		c0-1.6-1.3-2.8-2.8-2.8h-16.6c0-0.2,0-0.5-0.1-0.7c-2.5-4.5-7-7.5-12-8.2v-1.5h2c2.3,0,4.4-0.9,6-2.5l2.6-2.6c0,0,0,0,0,0
		c1.2-1.2,2.8-1.8,4.4-1.8h1.2h13.2c0.6,0,1.1-0.5,1.1-1.1v-2.2c1.7-0.5,2.9-2,2.9-3.9v-12C1403.1-646.6,1401.3-648.4,1399.1-648.4z
		 M1398.9-572.7v2.2c0,0.4-0.3,0.6-0.6,0.6h-61.7c-0.4,0-0.6-0.3-0.6-0.6v-2.2c0-0.4,0.3-0.6,0.6-0.6h61.7
		C1398.6-573.3,1398.9-573,1398.9-572.7z M1398.9-605.1v2.2c0,0.4-0.3,0.6-0.6,0.6h-61.7c-0.4,0-0.6-0.3-0.6-0.6v-2.2
		c0-0.4,0.3-0.6,0.6-0.6h61.7C1398.6-605.8,1398.9-605.5,1398.9-605.1z M1379.3-608.2c0,0.1,0.1,0.1,0.1,0.2h-24.1
		c0-0.1,0.1-0.1,0.1-0.2c2.5-4.1,7-6.7,11.9-6.7C1372.3-614.8,1376.8-612.3,1379.3-608.2z M1400.9-632.5c0,1-0.8,1.8-1.8,1.8
		c-1,0-1.8-0.8-1.8-1.8v-12c0-1,0.8-1.8,1.8-1.8c1,0,1.8,0.8,1.8,1.8V-632.5z"/>
	<g>
		<g>
			<path class="st3" d="M1269.8-568.4h-5.1c-0.2,0-0.4,0.2-0.4,0.4c0,0.2,0.2,0.4,0.4,0.4h5.1c0.2,0,0.4-0.2,0.4-0.4
				C1270.1-568.2,1270-568.4,1269.8-568.4z"/>
			<path class="st3" d="M1261.4-563.2c0-0.2-0.2-0.4-0.4-0.4h-1.3c-0.2,0-0.4,0.2-0.4,0.4c0,0.2,0.2,0.4,0.4,0.4h1.3
				C1261.3-562.9,1261.4-563,1261.4-563.2z"/>
			<path class="st3" d="M1253-563.4c0-0.2-0.2-0.4-0.4-0.4h-1.3c-0.2,0-0.4,0.2-0.4,0.4c0,0.2,0.2,0.4,0.4,0.4h1.3
				C1252.9-563,1253-563.2,1253-563.4z"/>
			<path class="st3" d="M1262.6-570.6h2.3c0.2,0,0.4-0.2,0.4-0.4c0-0.2-0.2-0.4-0.4-0.4h-2.3c-0.2,0-0.4,0.2-0.4,0.4
				C1262.3-570.8,1262.4-570.6,1262.6-570.6z"/>
			<path class="st3" d="M1272-572.4h-2.3c-0.2,0-0.4,0.2-0.4,0.4c0,0.2,0.2,0.4,0.4,0.4h2.3c0.2,0,0.4-0.2,0.4-0.4
				C1272.4-572.2,1272.2-572.4,1272-572.4z"/>
			<path class="st3" d="M1247.5-560.4h-2.3c-0.2,0-0.4,0.2-0.4,0.4c0,0.2,0.2,0.4,0.4,0.4h2.3c0.2,0,0.4-0.2,0.4-0.4
				C1247.9-560.2,1247.8-560.4,1247.5-560.4z"/>
			<path class="st3" d="M1241.9-560.3h-2.3c-0.2,0-0.4,0.2-0.4,0.4s0.2,0.4,0.4,0.4h2.3c0.2,0,0.4-0.2,0.4-0.4
				S1242.1-560.3,1241.9-560.3z"/>
			<path class="st3" d="M1250.3-566.3h-2.3c-0.2,0-0.4,0.2-0.4,0.4c0,0.2,0.2,0.4,0.4,0.4h2.3c0.2,0,0.4-0.2,0.4-0.4
				C1250.6-566.2,1250.5-566.3,1250.3-566.3z"/>
			<path class="st3" d="M1267.1-564.2h-2.3c-0.2,0-0.4,0.2-0.4,0.4s0.2,0.4,0.4,0.4h2.3c0.2,0,0.4-0.2,0.4-0.4
				C1267.5-564,1267.3-564.2,1267.1-564.2z"/>
			<path class="st3" d="M1262.8-560.8h-2.3c-0.2,0-0.4,0.2-0.4,0.4c0,0.2,0.2,0.4,0.4,0.4h2.3c0.2,0,0.4-0.2,0.4-0.4
				C1263.1-560.6,1263-560.8,1262.8-560.8z"/>
			<path class="st3" d="M1228.5-563.8h-2.3c-0.2,0-0.4,0.2-0.4,0.4c0,0.2,0.2,0.4,0.4,0.4h2.3c0.2,0,0.4-0.2,0.4-0.4
				C1228.9-563.7,1228.7-563.8,1228.5-563.8z"/>
			<path class="st3" d="M1234.6-561.8h-2.3c-0.2,0-0.4,0.2-0.4,0.4c0,0.2,0.2,0.4,0.4,0.4h2.3c0.2,0,0.4-0.2,0.4-0.4
				C1235-561.7,1234.8-561.8,1234.6-561.8z"/>
			<path class="st3" d="M1258.6-566.1h-3.7c-0.2,0-0.4,0.2-0.4,0.4c0,0.2,0.2,0.4,0.4,0.4h3.7c0.2,0,0.4-0.2,0.4-0.4
				C1259-565.9,1258.8-566.1,1258.6-566.1z"/>
			<path class="st3" d="M1266.4-574.4h3.7c0.2,0,0.4-0.2,0.4-0.4c0-0.2-0.2-0.4-0.4-0.4h-3.7c-0.2,0-0.4,0.2-0.4,0.4
				C1266.1-574.6,1266.2-574.4,1266.4-574.4z"/>
			<path class="st3" d="M1256.6-560.9h-3.7c-0.2,0-0.4,0.2-0.4,0.4c0,0.2,0.2,0.4,0.4,0.4h3.7c0.2,0,0.4-0.2,0.4-0.4
				C1256.9-560.7,1256.8-560.9,1256.6-560.9z"/>
			<path class="st3" d="M1241.5-562.9h3.7c0.2,0,0.4-0.2,0.4-0.4c0-0.2-0.2-0.4-0.4-0.4h-3.7c-0.2,0-0.4,0.2-0.4,0.4
				C1241.1-563,1241.3-562.9,1241.5-562.9z"/>
			<g>
				<path class="st0" d="M1221.8-564.2c2.8,4.3,7.6,6.8,12.8,6.8h25c5.1,0,9.9-2.6,12.8-6.8c2.4-3.7,3.2-8.2,2-12.4h-54.5
					C1218.6-572.4,1219.3-567.9,1221.8-564.2z"/>
				<path class="st0" d="M1228.9-593.8l-8.4,15.2c-0.2,0.4-0.3,0.8-0.5,1.3h54.1c-0.1-0.4-0.3-0.9-0.5-1.3l-8.4-15.2H1228.9z"/>
				<path class="st0" d="M1265-623.9l8.1-14.7c0.2-0.5,0.1-1-0.1-1.4c-0.3-0.4-0.8-0.7-1.3-0.7h-49.2c-0.5,0-1,0.3-1.3,0.7
					c-0.3,0.4-0.3,0.9-0.2,1.4l8.1,14.7L1265-623.9L1265-623.9z"/>
				<path class="st0" d="M1277.9-597c0.2,0,0.3-0.1,0.5-0.2c0.5-0.3,0.8-0.7,0.8-1.3c0-0.1,0-0.3,0-0.4c-0.1-0.7-3.4-3.3-4.1-3.3
					c-0.1,0-0.2,0-0.3,0c-0.3,0.1-0.5,0.2-0.7,0.3c-0.4,0.3-0.6,0.8-0.6,1.4c0,0.1,0,0.1,0,0.2C1273.6-599.4,1277-596.8,1277.9-597z
					"/>
				<polyline class="st0" points="1261.8,-609.5 1261.9,-609.6 1261.9,-611 1261.9,-609.6 1267.4,-622.4 1266.7,-622.4 
					1264.2,-622.4 1229.8,-622.4 1227.3,-622.4 1226.6,-622.4 1232.2,-609.5 				"/>
				<path class="st0" d="M1275.5-592.8c-0.1,0-0.3,0-0.4,0c-0.5,0.1-0.9,0.5-1.1,1c-0.1,0.2-0.1,0.4-0.1,0.6c0,0.9,2.1,3.1,3,3.1
					c0.2,0,0.3,0,0.5-0.1c0.5-0.2,0.9-0.6,1-1.1c0-0.1,0.1-0.3,0.1-0.4C1278.5-590.5,1276.4-592.8,1275.5-592.8z"/>
				<path class="st3" d="M1279.3-588.7c-0.1,0-0.1-0.1-0.2-0.1c0.1-0.3,0.2-0.5,0.2-0.8c0-1.3-2.4-3.9-3.7-3.9
					c-0.3,0-0.6,0.1-0.8,0.2c-1.2-1.7-2.5-4-3.7-6.2c-1.1-2-2.2-3.9-3.2-5.5c0.6,0.5,1.1,0.9,1.7,1.4c1.2,1,2.3,1.9,3.4,2.7
					c0,0.3,0,0.5,0,0.8c0.2,1.1,3.8,3.9,4.9,3.9c0.1,0,0.3,0,0.5,0c0.5-0.1,0.9-0.3,1.2-0.7c0.2,0,0.4,0.1,0.6,0.1c0,0,0,0,0,0
					c0.4,0,0.7-0.3,0.7-0.7c0-0.4-0.3-0.7-0.7-0.8c0,0,0,0,0,0c0-0.2,0-0.4,0-0.7c-0.2-1.2-4-4.1-5.3-3.8c-0.4,0.1-0.8,0.3-1.1,0.6
					c-1-0.8-2.1-1.6-3.1-2.5c-2.3-2-4.5-3.8-6.6-4.5c-0.1-0.1-0.2-0.1-0.3-0.1l5.8-13.5c0.1-0.2,0.1-0.5-0.1-0.7s-0.4-0.3-0.6-0.3
					h-1.1l7.6-13.8c0,0,0,0,0-0.1c0.5-1.2,0.4-2.5-0.3-3.5c-0.7-1-1.9-1.7-3.1-1.7h-49.2c-1.3,0-2.4,0.6-3.1,1.7
					c-0.7,1-0.8,2.4-0.3,3.5c0,0,0,0,0,0.1l7.6,13.8h-1.1c-0.2,0-0.5,0.1-0.6,0.3c-0.1,0.2-0.2,0.5-0.1,0.7l6.1,14l-6.1,14
					c-0.1,0.2-0.1,0.5,0.1,0.7s0.4,0.3,0.6,0.3h1l-8.1,14.3c-2.3,5.4-1.7,11.6,1.6,16.5c3.3,4.9,8.7,7.8,14.6,7.8h25
					c5.9,0,11.3-2.9,14.6-7.8c3.3-4.9,3.8-11.1,1.6-16.5l-8.1-14.3h1c0.2,0,0.5-0.1,0.6-0.3s0.2-0.5,0.1-0.7l-5.4-12.6
					c1.9,1.5,3.9,5.1,5.9,8.6c1.3,2.3,2.6,4.6,3.9,6.4c-0.2,0.4-0.3,0.8-0.3,1.2c0,1.3,2.4,3.9,3.7,3.9c0.4,0,0.8-0.1,1.2-0.3
					c0.2,0.1,0.4,0.2,0.6,0.3c0.1,0,0.2,0,0.3,0c0.3,0,0.6-0.2,0.7-0.5C1279.8-588.2,1279.6-588.6,1279.3-588.7z M1274.2-601.5
					c0.2-0.1,0.4-0.2,0.6-0.3c0.1,0,0.2,0,0.3,0c0.7,0,3.6,2.3,3.7,3c0,0.1,0,0.2,0,0.4c0,0.5-0.3,0.9-0.7,1.2
					c-0.1,0.1-0.3,0.1-0.4,0.2c-0.8,0.2-3.9-2.2-4-3c0,0,0-0.1,0-0.1C1273.6-600.8,1273.9-601.3,1274.2-601.5z M1221-638.6
					c-0.2-0.5-0.1-1,0.2-1.4c0.3-0.4,0.8-0.7,1.3-0.7h49.2c0.5,0,1,0.3,1.3,0.7c0.3,0.4,0.3,0.9,0.1,1.4l-8.1,14.7h-35.9L1221-638.6
					z M1272.2-564.2c-2.8,4.3-7.6,6.8-12.8,6.8h-25c-5.1,0-9.9-2.6-12.8-6.8c-2.4-3.7-3.2-8.2-2-12.4h54.5
					C1275.4-572.4,1274.7-567.9,1272.2-564.2z M1273.6-578.7c0.2,0.4,0.3,0.8,0.5,1.3H1220c0.1-0.4,0.3-0.9,0.5-1.3l8.4-15.2h36.3
					L1273.6-578.7z M1232.2-609.5l-5.6-12.9h0.7h2.4h34.4h2.4h0.7l-5.5,12.8v1.6h0l5.5,12.7h-0.5h-2.4h-35.1h-2.4h-0.5l5.5-12.7
					h20.8v-1.6L1232.2-609.5z M1278.1-589.3c-0.1,0.4-0.5,0.8-0.9,0.9c-0.1,0-0.3,0.1-0.4,0.1c-0.8,0-2.6-2-2.6-2.8
					c0-0.2,0-0.3,0.1-0.5c0.2-0.4,0.5-0.7,1-0.8c0.1,0,0.2,0,0.3,0c0.8,0,2.6,2,2.6,2.8C1278.2-589.6,1278.2-589.5,1278.1-589.3z"/>
			</g>
		</g>
	</g>
	<g>
		<g>
			<path class="st0" d="M1273.6-496.4C1273.6-496.4,1273.5-496.4,1273.6-496.4c0,0.9,0.1,1.7,0.1,2.6s-0.1,1.7-0.2,2.6
				c0,0,0.1,0,0.1,0h6.1c1.1,0,1.9-0.9,1.9-1.9v-1.3c0-1.1-0.9-1.9-1.9-1.9L1273.6-496.4L1273.6-496.4z"/>
			<path class="st0" d="M1254.5-484.8c-5,0-9-4.1-9-9c0-0.4-0.3-0.7-0.7-0.7c-0.4,0-0.7,0.3-0.7,0.7c0,5.8,4.7,10.5,10.5,10.5
				c0.4,0,0.7-0.3,0.7-0.7S1255-484.8,1254.5-484.8z"/>
			<path class="st0" d="M1271-497.7c-1.8-7.5-8.5-13.1-16.5-13.1c-9.3,0-16.9,7.6-16.9,16.9s7.6,16.9,16.9,16.9
				c8,0,14.7-5.6,16.5-13.1c0.1-0.4,0.2-0.9,0.3-1.3c0.1-0.9,0.2-1.7,0.2-2.6s-0.1-1.8-0.2-2.6
				C1271.2-496.9,1271.1-497.3,1271-497.7z M1254.5-480.6c-7.3,0-13.2-5.9-13.2-13.2s5.9-13.2,13.2-13.2c7.3,0,13.2,5.9,13.2,13.2
				S1261.8-480.6,1254.5-480.6z"/>
			<path class="st3" d="M1273.6-498.6c-0.2,0-0.3,0-0.5,0c-2.1-8.3-9.6-14.4-18.5-14.4c-10.5,0-19.1,8.6-19.1,19.1
				c0,10.5,8.6,19.1,19.1,19.1c8.9,0,16.4-6.1,18.5-14.4c0.2,0,0.3,0,0.5,0h6.1c0.7,0,1.4-0.2,1.9-0.5c0.8-0.6,1.9-1.8,1.9-4.3
				c0-2.6-0.9-3.7-1.9-4.3c-0.6-0.3-1.2-0.5-1.9-0.5L1273.6-498.6L1273.6-498.6z M1271.3-491.2c-0.1,0.4-0.2,0.9-0.3,1.3
				c-1.8,7.5-8.5,13.1-16.5,13.1c-9.3,0-16.9-7.6-16.9-16.9s7.6-16.9,16.9-16.9c8,0,14.7,5.6,16.5,13.1c0.1,0.4,0.2,0.9,0.3,1.3
				c0.1,0.9,0.2,1.7,0.2,2.6S1271.4-492.1,1271.3-491.2z M1281.6-494.5v1.3c0,1.1-0.9,1.9-1.9,1.9h-6.1c0,0-0.1,0-0.1,0
				c0.1-0.8,0.2-1.7,0.2-2.6s-0.1-1.7-0.2-2.6c0,0,0.1,0,0.1,0h6.1C1280.7-496.4,1281.6-495.6,1281.6-494.5z"/>
			<path class="st3" d="M1267.7-493.8c0-7.3-5.9-13.2-13.2-13.2c-7.3,0-13.2,5.9-13.2,13.2s5.9,13.2,13.2,13.2
				C1261.8-480.6,1267.7-486.5,1267.7-493.8z M1255.3-503.6c0,0.4-0.3,0.7-0.7,0.7c-5,0-9,4.1-9,9c0,0.4-0.3,0.7-0.7,0.7
				c-0.4,0-0.7-0.3-0.7-0.7c0-5.8,4.7-10.5,10.5-10.5C1255-504.3,1255.3-504,1255.3-503.6z"/>
			<g>
				<path class="st0" d="M1225.6-506.3c-1.7,3.8-2.6,8-2.6,12.5c0,6.3,1.9,12.2,5.1,17.2v-27.9
					C1227.1-504.9,1226.3-505.5,1225.6-506.3z"/>
				<path class="st0" d="M1233.7-504.4v34.2c5.6,4.9,12.8,7.9,20.8,7.9c17.4,0,31.5-14.1,31.5-31.5c0-17.4-14.1-31.5-31.5-31.5
					c-6.6,0-12.7,2-17.7,5.5c1.2,2.4,1.8,5.4,1.8,7.8C1238.6-508.1,1236.8-505.3,1233.7-504.4z"/>
				<path class="st0" d="M1230.3-470.2v3.3c0,0.3,0.3,0.6,0.6,0.6s0.6-0.3,0.6-0.6v-2.1C1231.1-469.4,1230.7-469.8,1230.3-470.2z"/>
				<path class="st0" d="M1232.5-506.3c2.6-0.5,4-2.4,4-5.7c0-2.2-0.5-4.5-1.4-6.5c-3.4,2.7-6.3,6.1-8.3,10c0.6,1.1,1.5,1.8,2.8,2.1
					c0.5,0.1,0.8,0.6,0.8,1.1v31.7c0.4,0.5,0.8,0.9,1.2,1.4v-32.9C1231.6-505.8,1231.9-506.3,1232.5-506.3z"/>
				<path class="st3" d="M1254.5-527.7c-7,0-13.5,2.1-18.9,5.8c0.5,0.6,0.9,1.3,1.2,2c5.1-3.5,11.2-5.5,17.7-5.5
					c17.4,0,31.5,14.1,31.5,31.5c0,17.4-14.1,31.5-31.5,31.5c-8,0-15.3-3-20.8-7.9v3c5.7,4.5,13,7.2,20.8,7.2
					c18.7,0,33.9-15.2,33.9-33.9C1288.4-512.5,1273.2-527.7,1254.5-527.7z"/>
				<path class="st3" d="M1236.8-519.9c-0.4-0.7-0.8-1.4-1.2-2c-1.2-1.5-2.6-2.6-4.4-2.6c-4.8,0-7.4,7.3-7.4,12.4
					c0,1.2,0.2,2.2,0.5,3.2c-2.3,4.5-3.5,9.6-3.5,15c0,8,2.8,15.4,7.5,21.2v5.8c0,1.5,1.3,2.8,2.8,2.8c1.5,0,2.8-1.3,2.8-2.8v-0.3
					v-3v-34.2c3.1-0.9,4.9-3.7,4.9-7.7C1238.6-514.5,1238-517.5,1236.8-519.9z M1228.2-476.7c-3.2-4.9-5.1-10.8-5.1-17.2
					c0-4.4,0.9-8.6,2.6-12.5c0.7,0.8,1.5,1.4,2.5,1.7V-476.7z M1232.5-506.3c-0.5,0.1-0.9,0.5-0.9,1.1v32.9v3.3v2.1
					c0,0.3-0.3,0.6-0.6,0.6s-0.6-0.3-0.6-0.6v-3.3v-3.5v-31.7c0-0.5-0.3-0.9-0.8-1.1c-1.3-0.3-2.2-1-2.8-2.1c-0.5-0.9-0.7-2-0.7-3.4
					c0,0,0-0.1,0-0.1c0-4.6,2.4-10.2,5.2-10.2c1,0,1.9,0.7,2.6,1.7c0.4,0.6,0.8,1.3,1.2,2.1c0.9,1.9,1.4,4.3,1.4,6.5
					C1236.4-508.7,1235.1-506.8,1232.5-506.3z"/>
			</g>
		</g>
	</g>
	<g>
		<g>
			<path class="st5" d="M1388.6-408h-39.2v-7.1h39.2V-408z M1351.5-407.1h35v-5.9h-35V-407.1z"/>
		</g>
		<path class="st5" d="M1394.4-345.1h-51.4l1.1-57.4l6.5-6.4h37.6l5.1,6.5L1394.4-345.1z M1345.2-347.2h47.1l-1-54.5l-4-5.2h-35.7
			l-5.3,5.2L1345.2-347.2z"/>
		<path class="st5" d="M1369.5-365.3c-6.9,0-12.5-5.6-12.5-12.5c0-6.9,5.6-12.5,12.5-12.5c6.9,0,12.5,5.6,12.5,12.5
			C1382-370.9,1376.4-365.3,1369.5-365.3z M1369.5-388.8c-6.1,0-11,4.9-11,11c0,6.1,4.9,11,11,11c6.1,0,11-4.9,11-11
			C1380.5-383.9,1375.5-388.8,1369.5-388.8z"/>
		<rect x="1368.1" y="-402.7" class="st5" width="24.3" height="1.3"/>
		<rect x="1354.7" y="-413.1" class="st5" width="1.3" height="3.3"/>
		<rect x="1362.6" y="-413.1" class="st5" width="1.3" height="3.3"/>
		<rect x="1370.5" y="-413.1" class="st5" width="1.3" height="3.3"/>
		<rect x="1378.5" y="-413.1" class="st5" width="1.3" height="3.3"/>
		<rect x="1382.5" y="-413.1" class="st5" width="1.3" height="3.3"/>
		<rect x="1374.5" y="-413.1" class="st5" width="1.3" height="3.3"/>
		<rect x="1366.6" y="-413.1" class="st5" width="1.3" height="3.3"/>
		<rect x="1358.6" y="-413.1" class="st5" width="1.3" height="3.3"/>
		<rect x="1344.2" y="-352" class="st5" width="37.1" height="1.3"/>
		<rect x="1383.5" y="-352" class="st5" width="3.6" height="1.3"/>
		<rect x="1358.2" y="-402.7" class="st5" width="7.6" height="1.3"/>
	</g>
	<g>
		<g>
			<g>
				<rect x="1241.2" y="-418" class="st0" width="18.9" height="1.1"/>
				<path class="st0" d="M1235.6-393.1l0.1,0.2l0,0.3c0,0,0,0.1,0,0.3c-0.6,5.8-3.4,34.8-0.9,50.2h31.9c2.5-15.4-0.3-44.5-0.9-50.3
					c0-0.1,0-0.2,0-0.2l0-0.3l0.1-0.2c1-2.2,1.5-5.6,1.9-9h-34C1234.1-398.9,1234.6-395.4,1235.6-393.1z"/>
			</g>
			<g>
				<path class="st5" d="M1251-369c-8,0-14.3-3.7-14.3-8.3c0-4.7,6.3-8.3,14.3-8.3c1.9,0,3.8,0.2,5.6,0.7c2.1,0.5,4,1.3,5.4,2.4
					c2.1,1.5,3.2,3.3,3.2,5.3c0,2-1.1,3.8-3.2,5.3c-1.4,1-3.3,1.8-5.4,2.4C1254.8-369.3,1252.9-369,1251-369z M1251-384.2
					c-6.9,0-12.8,3.1-12.8,6.8c0,3.7,5.8,6.8,12.8,6.8c1.8,0,3.6-0.2,5.3-0.6c1.9-0.5,3.6-1.2,4.9-2.1c1.2-0.8,2.6-2.2,2.6-4.1
					c0-1.8-1.4-3.2-2.6-4.1c-1.3-0.9-3-1.7-4.9-2.1C1254.6-384,1252.8-384.2,1251-384.2z"/>
			</g>
		</g>
		<g>
			<path class="st5" d="M1264.5-353.1h-5.1c-0.2,0-0.4,0.2-0.4,0.4c0,0.2,0.2,0.4,0.4,0.4h5.1c0.2,0,0.4-0.2,0.4-0.4
				C1264.9-353,1264.7-353.1,1264.5-353.1z"/>
			<path class="st5" d="M1256.2-348c0-0.2-0.2-0.4-0.4-0.4h-1.3c-0.2,0-0.4,0.2-0.4,0.4c0,0.2,0.2,0.4,0.4,0.4h1.3
				C1256-347.7,1256.2-347.8,1256.2-348z"/>
			<path class="st5" d="M1247.8-348.2c0-0.2-0.2-0.4-0.4-0.4h-1.3c-0.2,0-0.4,0.2-0.4,0.4c0,0.2,0.2,0.4,0.4,0.4h1.3
				C1247.6-347.8,1247.8-348,1247.8-348.2z"/>
			<path class="st5" d="M1257.4-355.4h2.3c0.2,0,0.4-0.2,0.4-0.4c0-0.2-0.2-0.4-0.4-0.4h-2.3c-0.2,0-0.4,0.2-0.4,0.4
				C1257-355.6,1257.2-355.4,1257.4-355.4z"/>
			<path class="st5" d="M1266.8-357.2h-2.3c-0.2,0-0.4,0.2-0.4,0.4c0,0.2,0.2,0.4,0.4,0.4h2.3c0.2,0,0.4-0.2,0.4-0.4
				C1267.1-357,1267-357.2,1266.8-357.2z"/>
			<path class="st5" d="M1242.3-345.2h-2.3c-0.2,0-0.4,0.2-0.4,0.4c0,0.2,0.2,0.4,0.4,0.4h2.3c0.2,0,0.4-0.2,0.4-0.4
				C1242.7-345,1242.5-345.2,1242.3-345.2z"/>
			<path class="st5" d="M1245-351.1h-2.3c-0.2,0-0.4,0.2-0.4,0.4c0,0.2,0.2,0.4,0.4,0.4h2.3c0.2,0,0.4-0.2,0.4-0.4
				C1245.4-351,1245.2-351.1,1245-351.1z"/>
			<path class="st5" d="M1261.9-349h-2.3c-0.2,0-0.4,0.2-0.4,0.4c0,0.2,0.2,0.4,0.4,0.4h2.3c0.2,0,0.4-0.2,0.4-0.4
				C1262.2-348.8,1262.1-349,1261.9-349z"/>
			<path class="st5" d="M1257.5-345.5h-2.3c-0.2,0-0.4,0.2-0.4,0.4c0,0.2,0.2,0.4,0.4,0.4h2.3c0.2,0,0.4-0.2,0.4-0.4
				C1257.9-345.4,1257.7-345.5,1257.5-345.5z"/>
			<path class="st5" d="M1253.3-350.9h-3.7c-0.2,0-0.4,0.2-0.4,0.4c0,0.2,0.2,0.4,0.4,0.4h3.7c0.2,0,0.4-0.2,0.4-0.4
				C1253.7-350.7,1253.5-350.9,1253.3-350.9z"/>
			<path class="st5" d="M1261.2-359.2h3.7c0.2,0,0.4-0.2,0.4-0.4c0-0.2-0.2-0.4-0.4-0.4h-3.7c-0.2,0-0.4,0.2-0.4,0.4
				C1260.8-359.4,1261-359.2,1261.2-359.2z"/>
			<path class="st5" d="M1251.3-345.7h-3.7c-0.2,0-0.4,0.2-0.4,0.4c0,0.2,0.2,0.4,0.4,0.4h3.7c0.2,0,0.4-0.2,0.4-0.4
				C1251.7-345.5,1251.5-345.7,1251.3-345.7z"/>
			<path class="st5" d="M1236.2-347.7h3.7c0.2,0,0.4-0.2,0.4-0.4c0-0.2-0.2-0.4-0.4-0.4h-3.7c-0.2,0-0.4,0.2-0.4,0.4
				C1235.9-347.8,1236-347.7,1236.2-347.7z"/>
		</g>
	</g>
	<g>
		<path class="st5" d="M1478.2-338.5h-17c-11.7,0-22.2-4.2-22.2-7.5c0-1.6,2.3-2.6,5.9-2.6h49.6c1.7,0,5.5,0.3,5.5,2.6
			c0,1.7-2.4,3.6-6.5,5C1489.2-339.5,1483.5-338.5,1478.2-338.5z M1444.9-347.6c-3.1,0-4.8,0.8-4.8,1.6c0,2.2,9.1,6.5,21.1,6.5h17
			c5.2,0,10.8-0.9,14.9-2.4c4.6-1.7,5.8-3.4,5.8-4.1c0-1.1-2.3-1.6-4.5-1.6L1444.9-347.6L1444.9-347.6z"/>
		<path class="st3" d="M1470.1-407.9c-6,0-10.9,4.9-10.9,10.9c0,6,4.9,10.9,10.9,10.9s10.9-4.9,10.9-10.9
			C1481-403,1476.1-407.9,1470.1-407.9z M1470.1-387.1c-5.5,0-9.9-4.4-9.9-9.9c0-5.5,4.4-9.9,9.9-9.9c5.5,0,9.9,4.4,9.9,9.9
			C1480-391.5,1475.6-387.1,1470.1-387.1z"/>
		<path class="st3" d="M1470.1-405.6c-4.8,0-8.6,3.9-8.6,8.6c0,4.8,3.9,8.6,8.6,8.6s8.6-3.9,8.6-8.6
			C1478.7-401.7,1474.9-405.6,1470.1-405.6z M1470.1-389c-4.4,0-7.9-3.5-7.9-7.9c0-4.4,3.5-7.9,7.9-7.9c4.4,0,7.9,3.5,7.9,7.9
			C1478-392.6,1474.5-389,1470.1-389z"/>
		<path class="st3" d="M1454.8-393.1c-1.2,0-2.1,1-2.1,2.1c0,1.2,1,2.1,2.1,2.1s2.1-1,2.1-2.1C1457-392.2,1456-393.1,1454.8-393.1z
			 M1454.8-389.6c-0.8,0-1.4-0.6-1.4-1.4s0.6-1.4,1.4-1.4s1.4,0.6,1.4,1.4S1455.6-389.6,1454.8-389.6z"/>
		<path class="st3" d="M1486.1-393.1c-1.2,0-2.1,1-2.1,2.1c0,1.2,1,2.1,2.1,2.1c1.2,0,2.1-1,2.1-2.1
			C1488.3-392.2,1487.3-393.1,1486.1-393.1z"/>
		<path class="st3" d="M1492.6-399.9c0.4-0.4,0.6-1.1,0.5-1.7c-0.1-0.7-0.7-1.4-1.5-1.5c-0.2,0-0.3-0.1-0.5-0.1c-1.1,0-2,0.9-2,2
			c0,0.5,0.2,1,0.5,1.3c-0.9,0.5-1.5,1.5-1.5,2.6c0,1.6,1.3,2.9,2.9,2.9c1.6,0,2.9-1.3,2.9-2.9
			C1494.1-398.5,1493.5-399.4,1492.6-399.9z M1488.9-397.4c0-0.8,0.5-1.6,1.2-1.9v1.8c0,0.6,0.5,1.1,1.1,1.1c0.6,0,1.1-0.5,1.1-1.1
			v-1.8c0.7,0.4,1.2,1.1,1.2,1.9c0,1.2-1,2.2-2.2,2.2C1489.9-395.1,1488.9-396.1,1488.9-397.4z M1489.9-401.3c0-0.7,0.6-1.2,1.2-1.2
			c0.1,0,0.2,0,0.3,0c0.5,0.1,0.8,0.5,0.9,1c0.1,0.5-0.2,1-0.6,1.3c-0.1,0.1-0.2,0.1-0.3,0.1v0.2v0.4v2c0,0.2-0.2,0.4-0.4,0.4
			c-0.2,0-0.4-0.2-0.4-0.4v-2v-0.4v-0.2c-0.1,0-0.2-0.1-0.3-0.1C1490.2-400.5,1489.9-400.8,1489.9-401.3z"/>
		<path class="st3" d="M1452.1-399.9c0.4-0.4,0.6-1.1,0.5-1.7c-0.1-0.7-0.7-1.4-1.5-1.5c-0.2,0-0.3-0.1-0.5-0.1c-1.1,0-2,0.9-2,2
			c0,0.5,0.2,1,0.5,1.3c-0.9,0.5-1.5,1.5-1.5,2.6c0,1.6,1.3,2.9,2.9,2.9c1.6,0,2.9-1.3,2.9-2.9
			C1453.7-398.5,1453-399.4,1452.1-399.9z M1448.5-397.4c0-0.8,0.5-1.6,1.2-1.9v1.8c0,0.6,0.5,1.1,1.1,1.1s1.1-0.5,1.1-1.1v-1.8
			c0.7,0.4,1.2,1.1,1.2,1.9c0,1.2-1,2.2-2.2,2.2C1449.5-395.1,1448.5-396.1,1448.5-397.4z M1449.5-401.3c0-0.7,0.6-1.2,1.2-1.2
			c0.1,0,0.2,0,0.3,0c0.5,0.1,0.8,0.5,0.9,1c0.1,0.5-0.2,1-0.6,1.3c-0.1,0.1-0.2,0.1-0.3,0.1v0.2v0.4v2c0,0.2-0.2,0.4-0.4,0.4
			c-0.2,0-0.4-0.2-0.4-0.4v-2v-0.4v-0.2c-0.1,0-0.2-0.1-0.3-0.1C1449.7-400.5,1449.5-400.8,1449.5-401.3z"/>
		<g>
			<path class="st5" d="M1476.2-397h-1c0-2.7-2.2-4.9-4.9-4.9c-2.7,0-4.9,2.2-4.9,4.9h-1c0-3.3,2.7-5.9,5.9-5.9
				C1473.5-403,1476.2-400.3,1476.2-397z"/>
			<path class="st5" d="M1470.2-394.7c-1.2,0-2.3-1-2.3-2.3c0-1.2,1-2.3,2.3-2.3c1.2,0,2.3,1,2.3,2.3
				C1472.5-395.7,1471.5-394.7,1470.2-394.7z M1470.2-398.2c-0.7,0-1.2,0.5-1.2,1.2c0,0.7,0.5,1.2,1.2,1.2c0.7,0,1.2-0.5,1.2-1.2
				C1471.4-397.7,1470.9-398.2,1470.2-398.2z"/>
			<rect x="1469.9" y="-400.3" class="st5" width="0.7" height="3.3"/>
		</g>
		<g>
			<path class="st0" d="M1448.5-360.4c0,1.3,1,2.4,2.3,2.5l-1.1-4.6C1449.1-362.2,1448.5-361.4,1448.5-360.4z"/>
		</g>
		<path class="st5" d="M1507.7-402.6h-0.9v-6.8c1.8-0.8,3-2.6,3-4.7c0-2.9-2.3-5.2-5.2-5.2c-2.9,0-5.2,2.3-5.2,5.2
			c0,2.1,1.3,4,3.2,4.8v6.7h-3.9c-7.6-6.2-19.7-10.2-27-10.2h-3.1c-11.3,0-33.8,9.4-33.8,21.7c0,4,2.3,7.4,5.7,9h-12.7
			c-2.6,0-3.9,1.4-3.9,3.9s1.4,3.9,3.9,3.9h23.1c0.5,0.9,1.2,1.5,1.8,1.5h1.8c0.2,0.9,1,1.6,2,1.6h0.1c1,0,1.8-0.7,2-1.6h2.5
			c0.2,0.9,1,1.6,2,1.6h0.1c1,0,1.8-0.7,2-1.6h1.4c2.2,0,3.8-6.2,4-8.3h0.5v28.7c0.1,0,0.1,0.1,0.2,0.1h-5c0.7-0.4,1.1-1,1.3-1.8
			l2.6-12.2c0.2-0.8,0-1.6-0.5-2.2c-0.5-0.6-1.3-1-2.1-1h-14.8c-0.8,0-1.6,0.4-2.1,1c-0.5,0.6-0.7,1.4-0.5,2.2l0.3,1.3
			c-2.2,0.3-4,2.2-4,4.5c0,2.5,2,4.6,4.6,4.6c0.5,0,0.9-0.1,1.3-0.2l0.4,2c0.2,0.8,0.7,1.4,1.3,1.8h-10.8c-6.4,0-8.7,2.9-8.7,5.7
			c0,6.8,13.7,11.6,26,11.6h18.1c12.1,0,25.6-4.8,25.6-11.6c0-1.7-0.8-5.7-8.3-5.7h-3c0.1,0,0.2-0.1,0.3-0.1v-28.7h2.1
			c5.6,0,10.1-4.5,10.1-10.1c0-0.7-0.1-1.5-0.2-2.2h2.4c0.5,0,1-0.4,1-1v-7.4C1508.7-402.2,1508.3-402.6,1507.7-402.6z
			 M1451.1-361.8l0.6,2.6c-0.2,0.1-0.4,0.2-0.7,0.2c-0.8,0-1.4-0.6-1.4-1.4S1450.2-361.8,1451.1-361.8
			C1451-361.8,1451.1-361.8,1451.1-361.8z M1451-357c-1.9,0-3.5-1.6-3.5-3.5c0-1.8,1.4-3.3,3.1-3.5l0.2,1c-1.3,0.1-2.3,1.1-2.3,2.5
			c0,1.4,1.1,2.5,2.5,2.5c0.3,0,0.6-0.1,0.9-0.2l0.2,1C1451.8-357,1451.4-357,1451-357z M1451.8-366.1c-0.1-0.4,0-0.9,0.3-1.2
			c0.3-0.4,0.7-0.6,1.2-0.6h13.9c0.4,0,0.9,0.2,1.1,0.6c0.3,0.4,0.4,0.8,0.3,1.2l-2.4,11.4c-0.2,0.8-0.8,1.3-1.6,1.3h-8.7
			c-0.8,0-1.4-0.5-1.6-1.3L1451.8-366.1z M1500.9-414.2c0-2.1,1.7-3.8,3.8-3.8s3.8,1.7,3.8,3.8c0,2.1-1.7,3.8-3.8,3.8
			S1500.9-412.1,1500.9-414.2z M1505.4-409.1v6.4h-1.4v-6.4c0.2,0,0.4,0,0.6,0C1504.9-409,1505.2-409,1505.4-409.1z M1428.1-375.6
			c-1.9,0-2.8-0.8-2.8-2.6c0-1.8,0.9-2.6,2.8-2.6h20.3c0.1,1.1,0.7,3.4,1.5,5.1L1428.1-375.6L1428.1-375.6z M1456.6-372.3h-0.1
			c-0.6,0-1.1-0.4-1.2-0.9h2.6C1457.7-372.7,1457.2-372.3,1456.6-372.3z M1463.2-372.3h-0.1c-0.6,0-1.1-0.4-1.2-0.9h2.6
			C1464.3-372.7,1463.8-372.3,1463.2-372.3z M1466.6-374.2h-1.4h-0.4h-0.4h-2.5h-0.4h-0.4h-2.5h-0.4h-0.4h-2.5h-0.4h-0.4h-1.8
			c-0.3,0-0.9-1.3-1.6-3h17C1467.5-375.6,1466.9-374.2,1466.6-374.2z M1468.6-378.5h-17.9c-0.4-1.1-0.7-1.9-0.8-2.6h19.6
			C1469.3-380.3,1469-379.5,1468.6-378.5z M1496-349.9c2.3,0,6,0.4,6,3.4c0,4.7-11.6,9.3-23.3,9.3h-18.1c-11.7,0-23.7-4.7-23.7-9.3
			c0-2.1,2.4-3.4,6.4-3.4H1496z M1477.5-352.2h-4.2c0.1,0,0.1-0.1,0.2-0.1v-28.7h4L1477.5-352.2
			C1477.5-352.3,1477.5-352.3,1477.5-352.2z M1485.1-352.2h-7c0,0,0,0,0-0.1v-28.7h6.9L1485.1-352.2
			C1485.1-352.3,1485.1-352.3,1485.1-352.2z M1490.9-352.2h-5.1c0,0,0,0,0-0.1v-28.7h5.1L1490.9-352.2
			C1490.9-352.3,1490.9-352.3,1490.9-352.2z M1495.5-383.1h-50.6c-4.4,0-8-3.6-8-8c0-10.7,21-19.6,31.7-19.6h3.1
			c10.7,0,31.7,8.9,31.7,19.6C1503.5-386.7,1499.9-383.1,1495.5-383.1z M1507.3-394.7h-2.3c-0.8-2.3-2.4-4.5-4.5-6.5h6.8V-394.7z"/>
	</g>
	<g>
		<path class="st3" d="M1134-560.5c1.4,1.1,3.1,1.6,4.8,1.6h23.7c1.7,0,3.3-0.5,4.6-1.5c7.2-5.4,11.4-14,11.1-23.1
			c-0.2-6.8-3.1-13.1-7.5-17.8c8.6,0.4,15.5,7.5,15.5,16.2v3.1c0,2,1.3,3.8,3.3,4.2c0.3,0.1,0.6,0.1,0.9,0.1c2.3,0,4.1-1.8,4.1-4.1
			v-3.2c0-13.5-11-24.5-24.5-24.5h-2.3v-6.3h-33.2c-0.7,0-1.5,0.4-1.9,1c-0.4,0.6-0.6,1.4-0.3,2.1l1.1,3.3c-3.1,0.4-5.1,4.2-2.1,7.5
			c-5,5-8.1,11.9-8.1,19.5C1123.1-573.7,1127.1-565.7,1134-560.5z M1131.4-606.3c0.4-1,1.3-1.7,2.4-1.7c0,0,0.1,0,0.1,0h6.6h20.3
			h6.9h2.3c12.7,0,23.1,10.3,23.1,23v3.2c0,1.5-1.2,2.7-2.7,2.7c-0.2,0-0.4,0-0.6-0.1c-1.2-0.2-2.1-1.4-2.1-2.8v-3.1
			c0-9.8-7.9-17.7-17.7-17.7h-0.7h-3.4h-30.4h-3c-0.1-0.1-0.1-0.2-0.2-0.2C1131.3-604,1130.9-605.2,1131.4-606.3z M1134.4-613.6
			c0,0,0.1-0.1,0.1-0.1h31v3.5h-30.1l-1.1-3.3C1134.3-613.5,1134.3-613.5,1134.4-613.6z M1133.6-601.2h33.9c5,4.5,8.2,10.9,8.4,17.9
			c0.1,2.1-0.1,4.2-0.6,6.2h-49.6c-0.4-1.7-0.6-3.5-0.6-5.3C1125.3-589.9,1128.5-596.6,1133.6-601.2z M1175.3-576.4
			c-1.4,5.7-4.7,10.7-9.5,14.3c-0.9,0.7-2.1,1.1-3.3,1.1h-23.7c-1.2,0-2.5-0.4-3.5-1.2c-4.7-3.6-8-8.6-9.3-14.2L1175.3-576.4
			L1175.3-576.4z"/>
		<path class="st3" d="M1148.2-590.8h3.6c0.4,0,0.7-0.3,0.7-0.7s-0.3-0.7-0.7-0.7h-3.6c-0.4,0-0.7,0.3-0.7,0.7
			C1147.5-591.1,1147.8-590.8,1148.2-590.8z"/>
		<path class="st3" d="M1144.6-585.9h10.8c0.4,0,0.7-0.3,0.7-0.7s-0.3-0.7-0.7-0.7h-10.8c-0.4,0-0.7,0.3-0.7,0.7
			S1144.2-585.9,1144.6-585.9z"/>
		<path class="st3" d="M1151.8-582.4h-3.6c-0.4,0-0.7,0.3-0.7,0.7c0,0.4,0.3,0.7,0.7,0.7h3.6c0.4,0,0.7-0.3,0.7-0.7
			C1152.5-582.1,1152.2-582.4,1151.8-582.4z"/>
		<path class="st3" d="M1148.2-571.1h3.6c0.4,0,0.7-0.3,0.7-0.7c0-0.4-0.3-0.7-0.7-0.7h-3.6c-0.4,0-0.7,0.3-0.7,0.7
			C1147.5-571.4,1147.8-571.1,1148.2-571.1z"/>
		<g>
			<path class="st3" d="M1140.8-637c-0.3,0-0.7-0.2-0.9-0.5c-0.3-0.5-0.2-1.1,0.3-1.4c0.6-0.4,1.2-0.6,1.8-0.6c0.6,0,1.1,0.4,1.1,1
				c0,0.6-0.4,1.1-0.9,1.1c-0.2,0-0.5,0.1-0.8,0.3C1141.2-637.1,1141-637,1140.8-637z"/>
			<path class="st3" d="M1142.8-624.2c-0.5,0-0.9-0.3-1-0.8c-0.2-0.8-0.7-1.7-1.2-2.3c-0.3-0.5-0.2-1.1,0.3-1.5s1.1-0.2,1.4,0.3
				c0.5,0.8,1.2,1.8,1.5,2.9c0.1,0.6-0.2,1.1-0.7,1.3C1143-624.2,1142.9-624.2,1142.8-624.2z M1139.2-630.5c-0.4,0-0.8-0.3-1-0.7
				c-0.4-1-0.6-1.9-0.6-2.9c0-0.2,0-0.3,0-0.5c0-0.6,0.5-1,1.1-1c0.6,0,1,0.5,1,1.1c0,0.1,0,0.2,0,0.3c0,0.7,0.1,1.4,0.4,2.1
				c0.2,0.5-0.1,1.1-0.6,1.4C1139.4-630.5,1139.3-630.5,1139.2-630.5z"/>
			<path class="st3" d="M1140.4-619.6c-0.5,0-0.9-0.3-1-0.8c-0.2-0.6,0.2-1.1,0.7-1.3c0.3-0.1,0.7-0.3,0.9-0.4
				c0.5-0.3,1.1-0.3,1.5,0.2c0.3,0.5,0.3,1.1-0.2,1.5c-0.5,0.3-1,0.6-1.6,0.8C1140.6-619.6,1140.5-619.6,1140.4-619.6z"/>
		</g>
		<path class="st3" d="M1149.8-619.6c-0.5,0-0.9-0.3-1-0.7c-0.2-0.6,0.2-1.1,0.7-1.3c1.1-0.3,1.7-1.1,1.8-2.1c0.1-1.5-0.9-3-1.9-4.4
			c-0.2-0.3-0.4-0.6-0.6-0.9c-1.8-2.6-2.2-5.3-1.1-7.7c0.6-1.3,2.1-2.8,3.8-2.9c0.6,0,1.1,0.4,1.1,1s-0.4,1.1-1,1.1
			c-0.8,0.1-1.7,1-2,1.7c-1,2.2,0.2,4.5,1,5.6c0.2,0.3,0.4,0.6,0.6,0.8c1.2,1.6,2.5,3.5,2.3,5.8c-0.2,1.9-1.4,3.4-3.3,4
			C1150-619.6,1149.9-619.6,1149.8-619.6z"/>
		<g>
			<path class="st3" d="M1159.6-637c-0.3,0-0.7-0.2-0.9-0.5c-0.3-0.5-0.2-1.1,0.3-1.4c0.6-0.4,1.2-0.6,1.8-0.6c0.6,0,1.1,0.4,1.1,1
				c0,0.6-0.4,1.1-0.9,1.1c-0.2,0-0.5,0.1-0.8,0.3C1160-637.1,1159.8-637,1159.6-637z"/>
			<path class="st3" d="M1161.6-624.2c-0.5,0-0.9-0.3-1-0.8c-0.2-0.8-0.7-1.7-1.2-2.3c-0.3-0.5-0.2-1.1,0.3-1.5
				c0.5-0.3,1.1-0.2,1.4,0.3c0.5,0.8,1.2,1.8,1.5,2.9c0.1,0.6-0.2,1.1-0.7,1.3C1161.8-624.2,1161.7-624.2,1161.6-624.2z M1158-630.5
				c-0.4,0-0.8-0.3-1-0.7c-0.4-1-0.6-1.9-0.6-2.9c0-0.2,0-0.3,0-0.5c0-0.6,0.5-1,1.1-1c0.6,0,1,0.5,1,1.1c0,0.1,0,0.2,0,0.3
				c0,0.7,0.1,1.4,0.4,2.1c0.2,0.5-0.1,1.1-0.6,1.4C1158.3-630.5,1158.1-630.5,1158-630.5z"/>
			<path class="st3" d="M1159.2-619.6c-0.5,0-0.9-0.3-1-0.8c-0.2-0.6,0.2-1.1,0.7-1.3c0.3-0.1,0.7-0.3,0.9-0.4
				c0.5-0.3,1.1-0.3,1.5,0.2c0.3,0.5,0.3,1.1-0.2,1.5c-0.5,0.3-1,0.6-1.6,0.8C1159.4-619.6,1159.3-619.6,1159.2-619.6z"/>
		</g>
	</g>
	<g>
		<g>
			<path class="st3" d="M1142.5-530c-0.3,0-0.7-0.2-0.9-0.5c-0.3-0.5-0.2-1.1,0.3-1.4c0.6-0.4,1.2-0.6,1.8-0.6c0.6,0,1.1,0.4,1.1,1
				c0.1,0.6-0.4,1.1-0.9,1.1c-0.2,0-0.5,0.1-0.8,0.3C1142.9-530,1142.7-530,1142.5-530z"/>
			<path class="st3" d="M1144.5-517.1c-0.5,0-0.9-0.3-1-0.8c-0.2-0.8-0.7-1.7-1.2-2.3c-0.3-0.5-0.2-1.1,0.3-1.4
				c0.5-0.3,1.1-0.2,1.4,0.3c0.5,0.8,1.2,1.8,1.5,2.9c0.1,0.6-0.2,1.1-0.7,1.3C1144.7-517.1,1144.6-517.1,1144.5-517.1z
				 M1140.9-523.4c-0.4,0-0.8-0.3-1-0.7c-0.4-1-0.6-1.9-0.6-2.9c0-0.2,0-0.3,0-0.5c0-0.6,0.5-1,1.1-1c0.6,0,1,0.5,1,1.1
				c0,0.1,0,0.2,0,0.3c0,0.7,0.1,1.4,0.4,2.1c0.2,0.5-0.1,1.1-0.6,1.4C1141.2-523.4,1141-523.4,1140.9-523.4z"/>
			<path class="st3" d="M1142.1-512.5c-0.5,0-0.9-0.3-1-0.7c-0.2-0.6,0.2-1.1,0.7-1.3c0.3-0.1,0.7-0.3,0.9-0.4
				c0.5-0.3,1.1-0.3,1.5,0.2c0.3,0.5,0.3,1.1-0.2,1.5c-0.5,0.3-1,0.6-1.6,0.8C1142.3-512.5,1142.2-512.5,1142.1-512.5z"/>
		</g>
		<path class="st3" d="M1151.5-512.5c-0.5,0-0.9-0.3-1-0.7c-0.2-0.6,0.2-1.1,0.7-1.3c1.1-0.3,1.7-1.1,1.8-2.1c0.1-1.5-0.9-3-1.9-4.4
			c-0.2-0.3-0.4-0.6-0.6-0.9c-1.8-2.6-2.2-5.3-1.1-7.7c0.6-1.3,2.1-2.8,3.8-2.9c0.6,0,1.1,0.4,1.1,1c0,0.6-0.4,1.1-0.9,1.1
			c-0.8,0.1-1.7,1-2,1.7c-1,2.2,0.2,4.5,1,5.6c0.2,0.3,0.4,0.6,0.6,0.8c1.2,1.6,2.5,3.5,2.3,5.8c-0.2,1.9-1.4,3.4-3.3,4
			C1151.7-512.5,1151.6-512.5,1151.5-512.5z"/>
		<g>
			<path class="st3" d="M1161.3-530c-0.3,0-0.7-0.2-0.9-0.5c-0.3-0.5-0.2-1.1,0.3-1.4c0.6-0.4,1.2-0.6,1.8-0.6c0.6,0,1.1,0.4,1.1,1
				s-0.4,1.1-1,1.1c-0.2,0-0.5,0.1-0.8,0.3C1161.7-530,1161.5-530,1161.3-530z"/>
			<path class="st3" d="M1163.4-517.1c-0.5,0-0.9-0.3-1-0.8c-0.2-0.8-0.7-1.7-1.2-2.3c-0.3-0.5-0.2-1.1,0.3-1.4
				c0.5-0.3,1.1-0.2,1.4,0.3c0.5,0.8,1.2,1.8,1.5,2.9c0.1,0.6-0.2,1.1-0.7,1.3C1163.6-517.1,1163.5-517.1,1163.4-517.1z
				 M1159.7-523.4c-0.4,0-0.8-0.3-1-0.7c-0.4-1-0.6-1.9-0.6-2.9c0-0.2,0-0.3,0-0.5c0-0.6,0.5-1,1.1-1c0.6,0,1,0.5,1,1.1
				c0,0.1,0,0.2,0,0.3c0,0.7,0.1,1.4,0.4,2.1c0.2,0.5-0.1,1.1-0.6,1.4C1160-523.4,1159.9-523.4,1159.7-523.4z"/>
			<path class="st3" d="M1160.9-512.5c-0.4,0-0.9-0.3-1-0.7c-0.2-0.6,0.2-1.1,0.7-1.3c0.3-0.1,0.7-0.3,0.9-0.4
				c0.5-0.3,1.1-0.3,1.5,0.2c0.3,0.5,0.3,1.1-0.2,1.5c-0.5,0.3-1,0.6-1.6,0.8C1161.1-512.5,1161-512.5,1160.9-512.5z"/>
		</g>
	</g>
	<g>
		<g>
			<path class="st2" d="M1146.6-363c-1.1-0.5-2-0.9-2.8-2.4c-0.8-1.6-0.8-2.5-0.8-3.6c0-1.2,0.1-2.5-1-4.4c-0.2-0.4-0.7-0.5-1.1-0.3
				c-0.4,0.2-0.5,0.7-0.3,1.1c0.8,1.6,0.8,2.5,0.8,3.6c0,1.2-0.1,2.5,1,4.4c1.1,2,2.4,2.6,3.6,3.1c1.1,0.5,2,0.9,2.8,2.4
				c0.8,1.6,0.8,2.5,0.8,3.6c0,1.2-0.1,2.5,1,4.4c0.2,0.4,0.7,0.5,1.1,0.3s0.5-0.7,0.3-1.1c-0.8-1.6-0.8-2.5-0.8-3.6
				c0-1.2,0.1-2.5-1-4.4C1149.1-361.9,1147.7-362.5,1146.6-363z"/>
			<g>
				<path class="st3" d="M1138.6-376.7c-6.5,3.4-8.4,12.7-4.2,20.6c4.2,7.9,12.9,11.5,19.4,8.1c6.5-3.4,8.4-12.7,4.2-20.6
					C1153.9-376.5,1145.1-380.1,1138.6-376.7z M1152.9-349.8c-5.5,2.9-12.9-0.4-16.6-7.3c-3.7-6.9-2.2-14.9,3.3-17.8
					c5.5-2.9,12.9,0.4,16.6,7.3C1159.8-360.7,1158.4-352.7,1152.9-349.8z"/>
				<path class="st3" d="M1143.7-365.5c-0.8-1.6-0.8-2.5-0.8-3.6c0-1.2,0.1-2.5-1-4.4c-0.2-0.4-0.7-0.5-1.1-0.3
					c-0.4,0.2-0.5,0.7-0.3,1.1c0.8,1.6,0.8,2.5,0.8,3.6c0,1.2-0.1,2.5,1,4.4c1.1,2,2.4,2.6,3.6,3.1c1.1,0.5,2,0.9,2.8,2.4
					c0.8,1.6,0.8,2.5,0.8,3.6c0,1.2-0.1,2.5,1,4.4c0.2,0.4,0.7,0.5,1.1,0.3s0.5-0.7,0.3-1.1c-0.8-1.6-0.8-2.5-0.8-3.6
					c0-1.2,0.1-2.5-1-4.4c-1.1-2-2.4-2.6-3.6-3.1C1145.5-363.5,1144.5-364,1143.7-365.5z"/>
			</g>
		</g>
		<g>
			<path class="st2" d="M1177.7-373.1c-0.4-1.1-0.7-2.1-0.2-3.7c0.6-1.7,1.3-2.3,2.1-3.1c0.9-0.8,1.9-1.7,2.6-3.7
				c0.1-0.4-0.1-0.9-0.5-1c-0.4-0.1-0.9,0.1-1,0.5c-0.6,1.7-1.3,2.3-2.1,3.1c-0.9,0.8-1.9,1.7-2.6,3.7c-0.7,2.1-0.3,3.5,0.2,4.8
				c0.4,1.1,0.7,2.1,0.2,3.7c-0.6,1.7-1.3,2.3-2.1,3.1c-0.9,0.8-1.9,1.7-2.6,3.7c-0.1,0.4,0.1,0.9,0.5,1c0.4,0.1,0.9-0.1,1-0.5
				c0.6-1.7,1.3-2.3,2.1-3.1c0.9-0.8,1.9-1.7,2.6-3.7C1178.6-370.5,1178.1-371.9,1177.7-373.1z"/>
			<g>
				<path class="st3" d="M1182.1-388.1c-6.9-2.4-14.9,2.6-17.8,11c-2.9,8.4,0.4,17.2,7.4,19.5c6.9,2.4,14.9-2.6,17.8-11
					C1192.3-377,1189-385.7,1182.1-388.1z M1172.3-359.4c-5.9-2-8.6-9.7-6.1-17.1c2.5-7.4,9.4-11.8,15.2-9.8c5.9,2,8.6,9.7,6.1,17.1
					C1185-361.8,1178.2-357.4,1172.3-359.4z"/>
				<path class="st3" d="M1177.5-376.8c0.6-1.7,1.3-2.3,2.1-3.1c0.9-0.8,1.9-1.7,2.6-3.7c0.1-0.4-0.1-0.9-0.5-1
					c-0.4-0.1-0.9,0.1-1,0.5c-0.6,1.7-1.3,2.3-2.1,3.1c-0.9,0.8-1.9,1.7-2.6,3.7c-0.7,2.1-0.3,3.5,0.2,4.8c0.4,1.1,0.7,2.1,0.2,3.7
					c-0.6,1.7-1.3,2.3-2.1,3.1c-0.9,0.8-1.9,1.7-2.6,3.7c-0.1,0.4,0.1,0.9,0.5,1c0.4,0.1,0.9-0.1,1-0.5c0.6-1.7,1.3-2.3,2.1-3.1
					c0.9-0.8,1.9-1.7,2.6-3.7c0.7-2.1,0.3-3.5-0.2-4.8C1177.3-374.2,1176.9-375.2,1177.5-376.8z"/>
			</g>
		</g>
		<g>
			<path class="st2" d="M1154.8-396.1c-0.3-0.9-0.6-1.6-0.1-2.9c0.4-1.3,1-1.8,1.6-2.4c0.7-0.6,1.4-1.3,2-2.9
				c0.1-0.3-0.1-0.7-0.4-0.8s-0.7,0.1-0.8,0.4c-0.4,1.3-1,1.8-1.6,2.4c-0.7,0.6-1.4,1.3-2,2.9c-0.6,1.6-0.2,2.7,0.1,3.7
				c0.3,0.9,0.6,1.6,0.1,2.9c-0.4,1.3-1,1.8-1.6,2.4c-0.7,0.6-1.4,1.3-2,2.9c-0.1,0.3,0.1,0.7,0.4,0.8c0.3,0.1,0.7-0.1,0.8-0.4
				c0.4-1.3,1-1.8,1.6-2.4c0.7-0.6,1.4-1.3,2-2.9C1155.5-394,1155.1-395.1,1154.8-396.1z"/>
			<g>
				<path class="st3" d="M1158.4-408c-5.5-1.9-11.8,2-14.1,8.7c-2.3,6.7,0.3,13.6,5.8,15.5c5.5,1.9,11.8-2,14.1-8.7
					C1166.5-399.1,1163.9-406.1,1158.4-408z M1150.7-385.5c-4.5-1.6-6.6-7.5-4.7-13.2c2-5.7,7.2-9.1,11.8-7.6s6.6,7.5,4.7,13.2
					C1160.5-387.3,1155.2-383.9,1150.7-385.5z"/>
				<path class="st3" d="M1154.7-399c0.4-1.3,1-1.8,1.6-2.4c0.7-0.6,1.4-1.3,2-2.9c0.1-0.3-0.1-0.7-0.4-0.8s-0.7,0.1-0.8,0.4
					c-0.4,1.3-1,1.8-1.6,2.4c-0.7,0.6-1.4,1.3-2,2.9c-0.6,1.6-0.2,2.7,0.1,3.7c0.3,0.9,0.6,1.6,0.1,2.9c-0.4,1.3-1,1.8-1.6,2.4
					c-0.7,0.6-1.4,1.3-2,2.9c-0.1,0.3,0.1,0.7,0.4,0.8c0.3,0.1,0.7-0.1,0.8-0.4c0.4-1.3,1-1.8,1.6-2.4c0.7-0.6,1.4-1.3,2-2.9
					c0.6-1.6,0.2-2.7-0.1-3.7C1154.5-396.9,1154.3-397.7,1154.7-399z"/>
			</g>
		</g>
	</g>
	<g>
		<path class="st2" d="M1487.4-579.4h0.2c0,0,0,0,0,0L1487.4-579.4z"/>
		<path class="st2" d="M1450.7-613.6h-0.5H1450.7C1450.7-613.6,1450.7-613.6,1450.7-613.6z"/>
		<path class="st2" d="M1491.7-613.6h-0.4c0,0,0,0,0,0.1L1491.7-613.6z"/>
		<path class="st5" d="M1470-584.7c-7,0-12.7-5.7-12.7-12.7s5.7-12.7,12.7-12.7c7,0,12.7,5.7,12.7,12.7S1477-584.7,1470-584.7z
			 M1470-608.7c-6.2,0-11.2,5-11.2,11.2s5,11.2,11.2,11.2c6.2,0,11.2-5,11.2-11.2S1476.2-608.7,1470-608.7z"/>
		<polygon class="st5" points="1486,-579.2 1487.4,-579.4 1486,-579.4 		"/>
		<path class="st5" d="M1493-613.6l0-0.2l-0.7,0.1c0,0,0,0.1,0,0.1L1493-613.6L1493-613.6z"/>
		<path class="st6" d="M1493-613.6l0-0.2l-0.7,0.1c0,0,0,0.1,0,0.1L1493-613.6L1493-613.6z"/>
		<path class="st5" d="M1492.3-613.6C1492.3-613.6,1492.3-613.6,1492.3-613.6h-0.7H1492.3z"/>
		<path class="st6" d="M1492.3-613.6C1492.3-613.6,1492.3-613.6,1492.3-613.6h-0.7H1492.3z"/>
		<path class="st5" d="M1449.6-613.7l-0.8-0.1l0,0.2L1449.6-613.7C1449.6-613.6,1449.6-613.6,1449.6-613.7z"/>
		<path class="st7" d="M1449.6-613.7l-0.8-0.1l0,0.2L1449.6-613.7C1449.6-613.6,1449.6-613.6,1449.6-613.7z"/>
		<polygon class="st5" points="1453.2,-579.5 1453.2,-579.5 1452,-588.4 		"/>
		<polygon class="st7" points="1453.2,-579.5 1453.2,-579.5 1452,-588.4 		"/>
		<path class="st5" d="M1450.2-613.6l-0.6-0.1c0,0,0,0,0,0.1H1450.2z"/>
		<path class="st7" d="M1450.2-613.6l-0.6-0.1c0,0,0,0,0,0.1H1450.2z"/>
		<polygon class="st5" points="1455.2,-568.8 1455.2,-568.8 1455.2,-568.8 		"/>
		<path class="st5" d="M1493.5-615.7c0.2-2.5,0.4-4.4,0.4-5.6h1.3v-4.3v-1.5v-4.3h-3.8l-1.3-7.6h-38.6l-1.1,7.6h-4v4.3v1.5v4.3h1.5
			c0.1,1.2,0.2,3.1,0.4,5.6h-2.1l5.1,38.4h1.2c0.8,5.2,1.7,9.6,2.6,12.3l0.2,0.7h31.1l0.2-0.7c0.9-2.7,1.8-7.1,2.6-12.3h1.4
			l4.7-38.4H1493.5z M1453.4-637h35l0.9,5.2h-36.7L1453.4-637z M1485-566.4H1457c-0.2-0.7-0.4-1.5-0.6-2.4h2.4h18.4v-1.4h-18.6h-2.4
			c-0.4-2.1-0.9-4.5-1.3-7.1h2.6h27.4h2.5C1486.5-572.8,1485.8-568.9,1485-566.4z M1488.9-579.4h-0.3h-1.1h-0.2h-1.4h-31.6h-1.1
			h-0.1l-1.2-9.1l-3.3-25.2h0.2h1.4h0.5h40.6h0.4h1.4h0.1L1488.9-579.4z M1450.1-621.3h39.1h2.7c-0.1,1.2-0.2,3.1-0.4,5.6h-2.7
			h-38.2C1450.3-618.1,1450.2-620.1,1450.1-621.3z M1493.2-623.6v0.2h-44.7v-0.2v-1.4h44.7V-623.6z M1493.2-627.7h-44.7v-1.7h44.7
			V-627.7z"/>
		<path class="st5" d="M1468.6-590.3c1.4-2.1,0.8-4.9,0.2-6.3c-0.5-1.5-0.6-4-0.3-5.1c0.3-1.1,0.3-2.2,0.3-2.2s-5.7,0.7-5.2,6.8
			C1464.2-590.2,1468.6-590.3,1468.6-590.3z"/>
		<path class="st5" d="M1471.8-592.5c-0.3,1.1-0.3,2.2-0.3,2.2s5.7-0.7,5.2-6.8c-0.6-7-5-6.8-5-6.8c-1.4,2.1-0.8,4.9-0.2,6.3
			C1472-596.2,1472.1-593.6,1471.8-592.5z"/>
	</g>
	<g>
		<g>
			<path class="st8" d="M1170.4-247.1c-0.1,0.2-0.3,0.3-0.5,0.5C1170.1-246.8,1170.2-246.9,1170.4-247.1z"/>
			<path class="st8" d="M1168.4-245.2c-1.2,0.9-2.6,1.5-4,1.9C1165.8-243.7,1167.2-244.4,1168.4-245.2z"/>
			<path class="st8" d="M1150.8-251.5c0-0.1-0.1-0.2-0.1-0.3C1150.7-251.8,1150.7-251.6,1150.8-251.5z"/>
			<path class="st8" d="M1171.2-248.3c-0.2,0.3-0.4,0.7-0.7,1C1170.8-247.6,1171-247.9,1171.2-248.3z"/>
			<path class="st8" d="M1172.1-249.9c-0.1,0.1-0.1,0.3-0.2,0.4C1172-249.6,1172-249.8,1172.1-249.9z"/>
			<path class="st8" d="M1150.6-252.6c0-0.1,0-0.2,0-0.3C1150.5-252.8,1150.6-252.7,1150.6-252.6z"/>
			<path class="st8" d="M1171.6-249c-0.1,0.1-0.1,0.3-0.2,0.4C1171.5-248.8,1171.6-248.9,1171.6-249z"/>
			<path class="st8" d="M1169.1-245.8c-0.2,0.2-0.4,0.3-0.6,0.5C1168.7-245.4,1168.9-245.6,1169.1-245.8z"/>
			<path class="st8" d="M1153.7-246.3c-0.3-0.3-0.6-0.7-0.9-1C1153.1-247,1153.4-246.7,1153.7-246.3z"/>
			<path class="st8" d="M1154.2-245.8c-0.2-0.2-0.4-0.3-0.5-0.5C1153.9-246.2,1154.1-246,1154.2-245.8z"/>
			<path class="st8" d="M1151.6-249.3c-0.1-0.1-0.1-0.2-0.2-0.4C1151.5-249.6,1151.5-249.5,1151.6-249.3z"/>
			<path class="st8" d="M1154.9-245.3c-0.2-0.1-0.4-0.3-0.6-0.5C1154.5-245.6,1154.7-245.4,1154.9-245.3z"/>
			<path class="st8" d="M1152.1-248.4c-0.1-0.1-0.2-0.3-0.2-0.4C1151.9-248.7,1152-248.6,1152.1-248.4z"/>
			<path class="st8" d="M1152.6-247.6c-0.1-0.1-0.2-0.3-0.3-0.4C1152.4-247.9,1152.5-247.8,1152.6-247.6z"/>
			<path class="st8" d="M1169.7-246.4c-0.2,0.2-0.3,0.3-0.5,0.5C1169.4-246.1,1169.6-246.2,1169.7-246.4z"/>
			<path class="st8" d="M1151.1-250.6c0-0.1-0.1-0.2-0.1-0.3C1151-250.8,1151-250.7,1151.1-250.6z"/>
			<path class="st8" d="M1172.9-252.9c0,0.1,0,0.2-0.1,0.3C1172.8-252.6,1172.8-252.8,1172.9-252.9z"/>
			<path class="st8" d="M1172.4-250.9c0,0.1-0.1,0.3-0.1,0.4C1172.3-250.6,1172.4-250.7,1172.4-250.9z"/>
			<path class="st8" d="M1172.7-251.9c0,0.1-0.1,0.3-0.1,0.4C1172.6-251.6,1172.6-251.7,1172.7-251.9z"/>
			<path class="st9" d="M1172.8-252.5c0,0.2-0.1,0.5-0.1,0.7C1172.7-252.1,1172.8-252.3,1172.8-252.5z"/>
			<path class="st9" d="M1172.9-253.9c0,0.4,0,0.7-0.1,1.1C1172.9-253.2,1172.9-253.6,1172.9-253.9z"/>
			<path class="st9" d="M1168.5-245.3C1168.4-245.3,1168.4-245.3,1168.5-245.3C1168.4-245.3,1168.4-245.3,1168.5-245.3z"/>
			<path class="st9" d="M1169.2-245.9c-0.1,0-0.1,0.1-0.2,0.1C1169.1-245.8,1169.2-245.9,1169.2-245.9z"/>
			<polygon class="st9" points="1164.4,-243.3 1164.4,-243.3 1164.3,-243.3 			"/>
			<path class="st9" d="M1171.4-248.6c-0.1,0.1-0.1,0.2-0.2,0.3C1171.3-248.4,1171.4-248.5,1171.4-248.6z"/>
			<path class="st9" d="M1171.9-249.5c-0.1,0.2-0.2,0.3-0.2,0.5C1171.7-249.2,1171.8-249.3,1171.9-249.5z"/>
			<path class="st9" d="M1172.3-250.5c-0.1,0.2-0.1,0.4-0.2,0.5C1172.1-250.1,1172.2-250.3,1172.3-250.5z"/>
			<path class="st9" d="M1169.9-246.6c-0.1,0.1-0.1,0.1-0.2,0.2C1169.8-246.5,1169.9-246.5,1169.9-246.6z"/>
			<path class="st9" d="M1172.6-251.5c-0.1,0.2-0.1,0.4-0.2,0.6C1172.5-251.1,1172.5-251.3,1172.6-251.5z"/>
			<path class="st9" d="M1170.5-247.3c-0.1,0.1-0.1,0.1-0.2,0.2C1170.4-247.2,1170.5-247.2,1170.5-247.3z"/>
			<path class="st4" d="M1152.8-247.4c-0.1-0.1-0.1-0.2-0.2-0.2C1152.7-247.5,1152.7-247.5,1152.8-247.4z"/>
			<path class="st4" d="M1150.7-251.9c0-0.2-0.1-0.5-0.1-0.7C1150.6-252.3,1150.6-252.1,1150.7-251.9z"/>
			<path class="st4" d="M1155-245.2C1155-245.2,1154.9-245.3,1155-245.2C1154.9-245.3,1155-245.2,1155-245.2z"/>
			<path class="st4" d="M1151-250.9c-0.1-0.2-0.1-0.4-0.2-0.7C1150.8-251.3,1150.9-251.1,1151-250.9z"/>
			<path class="st4" d="M1150.5-252.9c0-0.3-0.1-0.7-0.1-1C1150.4-253.6,1150.5-253.2,1150.5-252.9z"/>
			<path class="st4" d="M1151.4-249.7c-0.1-0.3-0.2-0.6-0.3-0.9C1151.2-250.3,1151.3-250,1151.4-249.7z"/>
			<path class="st4" d="M1151.8-248.9c-0.1-0.2-0.2-0.3-0.3-0.5C1151.7-249.2,1151.7-249,1151.8-248.9z"/>
			<path class="st4" d="M1153.7-246.3C1153.7-246.3,1153.7-246.3,1153.7-246.3C1153.7-246.3,1153.7-246.3,1153.7-246.3z"/>
			<path class="st4" d="M1154.4-245.7c0,0-0.1-0.1-0.1-0.1C1154.3-245.8,1154.3-245.8,1154.4-245.7z"/>
			<path class="st4" d="M1152.3-248.1c-0.1-0.1-0.2-0.2-0.2-0.4C1152.1-248.3,1152.2-248.2,1152.3-248.1z"/>
		</g>
		<g>
			<path class="st9" d="M1160.8-297c-0.1,0-0.3,0-0.4-0.1l0,0.4C1160.5-296.8,1160.6-296.9,1160.8-297z"/>
		</g>
		<path class="st3" d="M1186-281.1c-1.9-3.2-5.3-4.6-9.1-4c0,0-0.1,0-0.1,0l0.3-5.2c0-0.7-0.2-1.3-0.7-1.8c-0.3-0.4-0.8-0.6-1.3-0.7
			c0.4-0.7,0.6-1.5,0.6-2.3c0.1-2.2-0.9-4.2-2.9-5.2c-2.1-1.1-4.4-1.3-7-0.5c0-0.1,0-0.1,0-0.2c0-1.1-0.5-2-1.5-2.4
			c-0.5-0.2-1.1,0-1.4,0.5c-0.2,0.5,0,1.1,0.5,1.4c0.1,0.1,0.3,0.2,0.3,0.5c0,0.5-0.3,0.9-0.5,1c-0.7,0.3-2,0-2.8-0.3l-0.2,0
			c-1.3-0.3-2.9-0.7-4.7-0.6c-6.4,0.3-7.7,3.3-7.7,5.8c0,0.9,0.3,1.7,0.8,2.4h0c-0.7,0-1.3,0.3-1.7,0.8s-0.7,1.1-0.7,1.8l2.1,36.3
			c0.2,5.5,3.6,10,8.4,11.9c0,0.1,0,0.1,0.1,0.2c1.1,1.3,1.6,2.9,1.6,4.5c0,2.1-0.8,2.4-2.8,3.1c-0.5,0.2-1,0.4-1.5,0.6
			c-2.3,1-3.8,3.2-3.8,5.6v0.1c0,0.6,0.5,1,1.1,1l20.8,0c0.6,0,1-0.5,1-1.1v-0.1c0-2.4-1.5-4.6-3.8-5.6c-0.5-0.2-1.1-0.4-1.5-0.6
			c-2.1-0.8-2.8-1.1-2.8-3.1c0-1.7,0.6-3.2,1.6-4.5c0,0,0.1-0.1,0.1-0.2c4.8-1.9,8.2-6.5,8.3-11.9l0.5-9.7c0.2,0.1,0.3,0.2,0.6,0.2
			c0.1,0,0.1,0,0.1,0c3-0.4,7.1-2.2,9.3-5.1C1188.1-271.9,1188.3-277.3,1186-281.1z M1150.6-293.7c-0.4-0.4-0.7-0.9-0.7-1.4
			c0-1.5,0.6-3.5,5.7-3.7c1.3-0.1,2.5,0.1,4.1,0.5l0.2,0c0.2,0,0.4,0.1,0.6,0.1c-0.2,0.2-0.5,0.3-0.7,0.5c-0.5,0.3-0.6,1-0.2,1.5
			c0.3,0.5,1,0.6,1.5,0.2c4.4-3.2,8.1-4,10.8-2.5c1.7,1,1.8,2.6,1.8,3.3c-0.1,1.2-0.7,2.1-1.2,2.3c0,0-0.1,0.1-0.1,0.1l-19,0
			C1152.2-292.7,1151.2-293.1,1150.6-293.7z M1167.1-232.1c0.4,0.2,0.9,0.3,1.4,0.6c1.3,0.5,2.1,1.6,2.4,2.7l-18.5,0
			c0.3-1.2,1.2-2.2,2.4-2.8c0.5-0.2,1-0.4,1.4-0.6c2.1-0.8,4.2-1.6,4.2-5.1c0-1.4-0.3-2.7-0.9-3.9c0.7,0.1,1.4,0.2,2.1,0.2
			c0.7,0,1.4-0.1,2.1-0.2c-0.6,1.2-0.9,2.6-0.9,3.9C1162.9-233.7,1165-232.9,1167.1-232.1z M1172.9-253.9
			c-0.2,6.1-5.1,10.9-11.2,10.9c-6.1,0-11.1-4.8-11.3-10.9l-2.1-36.4c0-0.1,0.1-0.2,0.1-0.2c0,0,0.1-0.1,0.2-0.1l4.7,0
			c0,0,0.1,0,0.1,0c0.1,0,0.3,0,0.4,0l20.7,0c0.1,0,0.2,0.1,0.2,0.1c0,0,0.1,0.1,0.1,0.2L1172.9-253.9z M1176.4-279
			c0.1,0.1,0.2,0.1,0.4,0.1c0,0,0,0,0.1,0c0.1,0,0.1,0,0.2,0c1.2-0.2,2,0.4,2.5,0.8c0.9,0.9,1.3,2.2,1.2,3.7
			c-0.3,2.6-1.9,4.3-4.4,4.8c0,0,0,0-0.1,0c-0.1,0-0.1,0-0.2,0c-0.1,0-0.1,0-0.2,0.1L1176.4-279z M1183.9-269.8
			c-1.6,2.1-4.7,3.8-7.7,4.3c-0.1,0-0.1,0-0.2,0c-0.1,0-0.2,0.1-0.3,0.1l0.1-2.3c0.1,0.1,0.3,0.1,0.5,0.1c0,0,0,0,0,0
			c0,0,0.1,0,0.1,0c3.6-0.5,6.1-3.1,6.5-6.7c0.2-2.1-0.5-4.1-1.8-5.4c-1.1-1.1-2.6-1.6-4.1-1.4c0,0-0.1,0-0.1,0
			c-0.1,0-0.2,0.1-0.3,0.1l0.1-2.2c0.1,0,0.2,0.1,0.4,0.1c0.1,0,0.2,0,0.2,0c3-0.5,5.5,0.6,7,3
			C1186.1-276.9,1185.9-272.5,1183.9-269.8z"/>
	</g>
	<path class="st5" d="M1265.4-416.9h-3.1v-3.2h-23.1v3.2h-3.1c-3,0-5.5,2.9-5.5,6.4v8.4h1.2c0.3,3.3,0.9,7,2,9.6
		c-0.6,6.1-3.5,36.2-0.8,51.6l0.2,0.9h35.4l0.2-0.9c2.8-15.4-0.1-45.5-0.8-51.6c1.1-2.5,1.6-6.3,2-9.6h1.1v-8.4
		C1270.9-414,1268.4-416.9,1265.4-416.9z M1241.2-418h18.9v1.1h-18.9V-418z M1232.6-410.5c0-2.3,1.6-4.3,3.4-4.3h3.1h2.1h18.9h2.1
		h3.1c1.8,0,3.4,2,3.4,4.3v0.4v5.9h-0.9h-34.3h-1v-5.9V-410.5z M1265.7-392.6c0,0,0,0.1,0,0.2c0.6,5.8,3.4,34.8,0.9,50.3h-31.9
		c-2.4-14.8,0.1-42.1,0.8-49.4h11.7v-2h-11.8c-0.9-2.3-1.4-5.6-1.7-8.6h34c-0.3,3.3-0.9,6.8-1.9,9l-0.1,0.2L1265.7-392.6z"/>
	<path class="st5" d="M1367.8-371c1.4-2.1,0.8-4.9,0.2-6.3c-0.5-1.5-0.6-4-0.3-5.1c0.3-1.1,0.3-2.2,0.3-2.2s-5.7,0.7-5.2,6.8
		C1363.4-370.8,1367.8-371,1367.8-371z"/>
	<path class="st5" d="M1371.2-373.2c-0.3,1.1-0.3,2.2-0.3,2.2s5.7-0.7,5.2-6.8c-0.6-7-5-6.8-5-6.8c-1.4,2.1-0.8,4.9-0.2,6.3
		C1371.4-376.8,1371.4-374.3,1371.2-373.2z"/>
	<path class="st5" d="M1154.3-248.7c-1.5-2.3-1.4-4.7-1.4-4.8l-1.2-27.9l1.5-0.1l1.2,27.9c0,0.1-0.1,2.1,1.1,3.9L1154.3-248.7z"/>
	
		<rect x="1151.6" y="-287" transform="matrix(0.9991 -4.160143e-002 4.160143e-002 0.9991 12.8636 47.6943)" class="st5" width="1.5" height="3.6"/>
</g>
<g>
	<path class="st10" d="M68.4,43.4v-0.5v-1.2v-9v0h0L53.6,19H33.8v1.5v5.9H11.2v0.9v0.6v44H9.1v1h3.4v-0.5h2v0.5h3.4v-0.5h2v0.5h3.4
		v-0.5h2v0.5h3.4v-0.5h2v0.5h3.4v-0.5h1.3h0.7v0.5h3.4v-0.5h2v0.5h3.4v-0.5h2v0.5h3.4v-0.5h2v0.5h3.4v-0.5h2v0.5h3.4v-0.5h2v0.5h3.4
		v-0.5h1.9V49h-2.6v20.8H37.5V21.6H53l12.8,11.9v8.3v1.2v0.5v0.5h-25V48h26h1.5h4.8v-4.1h-4.8L68.4,43.4L68.4,43.4z M13.8,30h20.1
		v39.8H13.8V30z"/>
	<rect x="24.2" y="33.8" class="st10" width="5.4" height="8.6"/>
	<rect x="40.8" y="60.5" class="st10" width="5.4" height="1.9"/>
	<rect x="52.4" y="50.6" class="st10" width="9.2" height="17.1"/>
	<rect x="17" y="33.8" class="st10" width="5.4" height="8.6"/>
	<rect x="17" y="43.7" class="st10" width="12.5" height="1.9"/>
	<rect x="24.2" y="50.6" class="st10" width="5.4" height="8.6"/>
	<rect x="17" y="50.6" class="st10" width="5.4" height="8.6"/>
	<rect x="17" y="60.5" class="st10" width="12.5" height="1.9"/>
	<rect x="47.9" y="27.9" class="st10" width="5.4" height="8.6"/>
	<rect x="40.8" y="50.6" class="st10" width="5.4" height="8.6"/>
	<rect x="40.8" y="37.8" class="st10" width="12.5" height="1.9"/>
	<rect x="40.8" y="27.9" class="st10" width="5.4" height="8.6"/>
	<rect x="19.9" y="14.2" class="st10" width="3.4" height="1"/>
	<rect x="25.3" y="14.2" class="st10" width="3.4" height="1"/>
	<rect x="73.9" y="14.2" class="st10" width="3.4" height="1"/>
	<rect x="14.5" y="14.2" class="st10" width="3.4" height="1"/>
	<rect x="41.5" y="14.2" class="st10" width="3.4" height="1"/>
	<rect x="46.9" y="14.2" class="st10" width="3.4" height="1"/>
	<rect x="36.1" y="14.2" class="st10" width="3.4" height="1"/>
	<rect x="52.3" y="14.2" class="st10" width="3.4" height="1"/>
	<rect x="84.7" y="14.2" class="st10" width="3.4" height="1"/>
	<rect x="3.7" y="14.2" class="st10" width="3.4" height="1"/>
	<rect x="57.7" y="14.2" class="st10" width="3.4" height="1"/>
	<rect x="68.5" y="14.2" class="st10" width="3.4" height="1"/>
	<rect x="63.1" y="14.2" class="st10" width="3.4" height="1"/>
	<rect x="84.7" y="71.9" class="st10" width="3.4" height="1"/>
	<rect x="73.9" y="71.9" class="st10" width="3.4" height="1"/>
	<rect x="3.7" y="71.9" class="st10" width="3.4" height="1"/>
	<polygon class="st10" points="79.3,72.4 78.7,72.4 78.7,75.8 79.7,75.8 79.7,72.9 82.7,72.9 82.7,71.9 79.3,71.9 	"/>
	<rect x="68.5" y="71.9" class="st10" width="3.4" height="1"/>
	<rect x="78.7" y="61.6" class="st10" width="1" height="3.4"/>
	<rect x="78.7" y="67" class="st10" width="1" height="3.4"/>
	<polygon class="st10" points="79.7,15.2 82.7,15.2 82.7,14.2 79.7,14.2 79.7,13 78.7,13 78.7,16.4 79.7,16.4 	"/>
	<rect x="78.7" y="23.8" class="st10" width="1" height="3.4"/>
	<rect x="78.7" y="29.2" class="st10" width="1" height="3.4"/>
	<rect x="78.7" y="34.6" class="st10" width="1" height="3.4"/>
	<rect x="78.7" y="50.8" class="st10" width="1" height="3.4"/>
	<rect x="78.7" y="7.6" class="st10" width="1" height="3.4"/>
	<rect x="78.7" y="77.8" class="st10" width="1" height="3.3"/>
	<rect x="78.7" y="18.4" class="st10" width="1" height="3.4"/>
	<rect x="78.7" y="45.4" class="st10" width="1" height="3.4"/>
	<rect x="78.7" y="56.2" class="st10" width="1" height="3.4"/>
	<path class="st10" d="M32,17.6c0,0.3,0.2,0.5,0.5,0.5s0.5-0.2,0.5-0.5v-2.4h1.1v-1H33V8.6c0-0.3-0.2-0.5-0.5-0.5S32,8.3,32,8.6v5.7
		h-1.3v1H32V17.6z"/>
	<path class="st10" d="M11.2,17.6c0,0.3,0.2,0.5,0.5,0.5s0.5-0.2,0.5-0.5v-2.4h0.3v-1h-0.3V8.6c0-0.3-0.2-0.5-0.5-0.5
		s-0.5,0.2-0.5,0.5v5.7H9.1v1h2.1V17.6z"/>
	<polygon class="st10" points="75.2,43.2 75.2,44.2 85.3,44.2 85.3,43.2 79.7,43.2 79.7,40 78.7,40 78.7,43.2 	"/>
	<path class="st10" d="M62.7,77.9c-0.3,0-0.5,0.2-0.5,0.5v1.8h-9.5v-1.8c0-0.3-0.2-0.5-0.5-0.5s-0.5,0.2-0.5,0.5v4.6
		c0,0.3,0.2,0.5,0.5,0.5s0.5-0.2,0.5-0.5v-1.8h9.5v1.8c0,0.3,0.2,0.5,0.5,0.5c0.3,0,0.5-0.2,0.5-0.5v-4.6
		C63.2,78.1,63,77.9,62.7,77.9z"/>
</g>
</svg>
