<?xml version="1.0" encoding="utf-8"?>
<!-- Generator: Adobe Illustrator 19.2.1, SVG Export Plug-In . SVG Version: 6.00 Build 0)  -->
<svg version="1.1" id="Layer_1" xmlns="http://www.w3.org/2000/svg" xmlns:xlink="http://www.w3.org/1999/xlink" x="0px" y="0px"
	 viewBox="0 0 512 512" style="enable-background:new 0 0 512 512;" xml:space="preserve">
<path d="M357.8,369.5h-52.6v52.6h52.6V369.5z M283.6,228.7h-52.6v52.6h52.6V228.7z M357.8,299.1h-52.6v52.6h52.6V299.1z
	 M431.9,228.7h-52.6v52.6h52.6V228.7z M283.6,299.1h-52.6v52.6h52.6V299.1z M357.8,228.7h-52.6v52.6h52.6V228.7z M431.9,299.1h-52.6
	v52.6h52.6V299.1z M135.4,369.5H82.8v52.6h52.6V369.5z M135.4,299.1H82.8v52.6h52.6V299.1z M418.3,43.3v23.1
	c9.1,8,14.8,19.7,14.8,32.8c0,24.2-19.6,43.8-43.8,43.8c-24.2,0-43.8-19.6-43.8-43.8c0-13.1,5.7-24.8,14.8-32.8V43.3H155.6v23.1
	c9.1,8,14.8,19.7,14.8,32.8c0,24.2-19.6,43.8-43.8,43.8c-24.2,0-43.8-19.6-43.8-43.8c0-13.1,5.8-24.8,14.8-32.8V43.3H0v466.2h512
	V43.3H418.3z M465.2,462.7H46.8V171.5h418.5V462.7L465.2,462.7z M209.6,228.7H157v52.6h52.6L209.6,228.7L209.6,228.7z M209.6,369.5
	H157v52.6h52.6L209.6,369.5L209.6,369.5z M283.6,369.5h-52.6v52.6h52.6V369.5z M209.6,299.1H157v52.6h52.6L209.6,299.1L209.6,299.1z
	 M126.6,124.7c12,0,21.8-9.8,21.8-21.8V24.3c0-12-9.8-21.8-21.8-21.8c-12,0-21.8,9.8-21.8,21.8v78.6
	C104.8,114.9,114.6,124.7,126.6,124.7 M389.3,124.7c12,0,21.8-9.8,21.8-21.8V24.3c0-12-9.8-21.8-21.8-21.8c-12,0-21.8,9.8-21.8,21.8
	v78.6C367.5,114.9,377.3,124.7,389.3,124.7"/>
</svg>
