<svg xmlns="http://www.w3.org/2000/svg" xmlns:xlink="http://www.w3.org/1999/xlink" preserveAspectRatio="xMidYMid" width="20" height="24" viewBox="0 0 20 24">
  <path d="M16.000,9.000 C16.000,9.000 4.000,9.000 4.000,9.000 C4.000,9.000 4.000,10.000 4.000,10.000 C4.000,10.000 16.000,10.000 16.000,10.000 C16.000,10.000 16.000,9.000 16.000,9.000 ZM16.000,7.000 C16.000,7.000 4.000,7.000 4.000,7.000 C4.000,7.000 4.000,8.000 4.000,8.000 C4.000,8.000 16.000,8.000 16.000,8.000 C16.000,8.000 16.000,7.000 16.000,7.000 ZM16.000,4.999 C16.000,4.999 4.000,4.999 4.000,4.999 C4.000,4.999 4.000,6.000 4.000,6.000 C4.000,6.000 16.000,6.000 16.000,6.000 C16.000,6.000 16.000,4.999 16.000,4.999 ZM-0.000,-0.001 C-0.000,-0.001 -0.000,21.000 -0.000,21.000 C-0.000,21.000 5.154,21.000 5.154,21.000 C5.491,20.465 5.683,19.896 5.756,19.158 C5.756,19.158 5.771,18.999 5.771,18.999 C5.771,18.999 2.000,18.999 2.000,18.999 C2.000,18.999 2.000,1.999 2.000,1.999 C2.000,1.999 18.000,1.999 18.000,1.999 C18.000,1.999 18.000,18.999 18.000,18.999 C18.000,18.999 14.235,18.999 14.235,18.999 C14.235,18.999 14.251,19.155 14.251,19.155 C14.326,19.897 14.516,20.467 14.849,21.000 C14.849,21.000 20.000,21.000 20.000,21.000 C20.000,21.000 20.000,-0.001 20.000,-0.001 C20.000,-0.001 -0.000,-0.001 -0.000,-0.001 ZM11.317,19.465 C10.949,19.719 10.796,19.876 10.334,19.964 C10.568,21.472 11.196,22.850 12.200,24.000 C12.258,23.589 12.425,23.192 12.584,22.875 C13.025,23.107 13.572,23.208 14.000,23.154 C12.935,22.045 12.416,20.889 12.261,19.357 C12.009,19.427 11.705,19.465 11.317,19.465 ZM8.683,19.465 C8.300,19.465 7.997,19.428 7.746,19.358 C7.592,20.893 7.066,22.043 6.000,23.154 C6.428,23.208 6.975,23.107 7.416,22.875 C7.575,23.192 7.742,23.589 7.800,24.000 C8.805,22.850 9.433,21.472 9.667,19.964 C9.195,19.873 9.050,19.716 8.683,19.465 ZM11.750,15.500 C11.750,14.533 10.967,13.750 10.000,13.750 C9.033,13.750 8.250,14.533 8.250,15.500 C8.250,16.465 9.033,17.250 10.000,17.250 C10.967,17.250 11.750,16.465 11.750,15.500 ZM13.463,14.861 C13.222,15.566 13.221,15.430 13.463,16.138 C13.488,16.211 13.500,16.287 13.500,16.361 C13.500,16.586 13.389,16.802 13.192,16.939 C12.564,17.374 12.647,17.264 12.411,17.972 C12.312,18.268 12.026,18.467 11.703,18.467 C11.703,18.467 11.703,18.467 11.702,18.467 C10.928,18.464 11.062,18.424 10.437,18.862 C10.308,18.953 10.154,18.999 10.000,18.999 C9.846,18.999 9.692,18.953 9.562,18.862 C8.937,18.423 9.072,18.464 8.298,18.467 C8.297,18.467 8.297,18.467 8.296,18.467 C7.974,18.467 7.687,18.268 7.590,17.972 C7.353,17.263 7.434,17.374 6.809,16.939 C6.611,16.802 6.500,16.585 6.500,16.360 C6.500,16.286 6.512,16.211 6.537,16.138 C6.779,15.433 6.779,15.569 6.537,14.861 C6.512,14.788 6.500,14.712 6.500,14.638 C6.500,14.414 6.611,14.197 6.809,14.060 C7.434,13.626 7.352,13.736 7.590,13.027 C7.687,12.731 7.974,12.531 8.296,12.531 C8.297,12.531 8.297,12.531 8.298,12.531 C9.070,12.534 8.934,12.579 9.562,12.137 C9.692,12.045 9.846,12.000 10.000,12.000 C10.154,12.000 10.308,12.045 10.437,12.137 C11.062,12.576 10.928,12.534 11.702,12.531 C11.703,12.531 11.703,12.531 11.703,12.531 C12.026,12.531 12.312,12.731 12.411,13.027 C12.647,13.734 12.564,13.625 13.192,14.060 C13.389,14.197 13.500,14.414 13.500,14.638 C13.500,14.712 13.488,14.788 13.463,14.861 Z" id="path-1" fill-rule="evenodd"/>
</svg>
