<svg xmlns="http://www.w3.org/2000/svg" xmlns:xlink="http://www.w3.org/1999/xlink" preserveAspectRatio="xMidYMid" width="24" height="22" viewBox="0 0 24 22">
  <path d="M19.887,9.646 C19.954,10.089 20.000,10.538 20.000,10.999 C20.000,15.961 15.962,19.999 11.000,19.999 C6.038,19.999 2.000,15.961 2.000,10.999 C2.000,6.037 6.038,1.999 11.000,1.999 C12.971,1.999 14.790,2.643 16.274,3.722 C16.795,3.276 17.326,2.841 17.874,2.419 C15.990,0.908 13.603,-0.000 11.000,-0.000 C4.925,-0.000 -0.000,4.924 -0.000,10.999 C-0.000,17.075 4.925,21.999 11.000,21.999 C17.075,21.999 22.000,17.075 22.000,10.999 C22.000,9.820 21.810,8.686 21.466,7.621 C20.938,8.254 20.414,8.926 19.887,9.646 ZM5.480,9.088 C5.480,9.088 7.064,7.625 7.064,7.625 C8.917,8.521 10.092,9.203 12.174,10.688 C16.089,6.245 18.676,3.991 23.484,0.999 C23.484,0.999 24.000,2.186 24.000,2.186 C20.035,5.646 17.130,9.500 12.949,17.000 C10.370,13.961 8.648,12.025 5.480,9.088 Z" id="path-1" fill-rule="evenodd"/>
</svg>
