<?xml version="1.0" encoding="utf-8"?>
<!-- Generator: Adobe Illustrator 19.2.1, SVG Export Plug-In . SVG Version: 6.00 Build 0)  -->
<svg version="1.1" id="icon" xmlns:x="ns_extend;" xmlns:i="ns_ai;" xmlns:graph="ns_graphs;"
	 xmlns="http://www.w3.org/2000/svg" xmlns:xlink="http://www.w3.org/1999/xlink" x="0px" y="0px" viewBox="0 0 160 160"
	 style="enable-background:new 0 0 160 160;" xml:space="preserve">
<style type="text/css">
	.st0{fill:#2886C4;}
</style>
<metadata>
	<sfw  xmlns="ns_sfw;">
		<slices></slices>
		<sliceSourceBounds  bottomLeftOrigin="true" height="138" width="118" x="21" y="11"></sliceSourceBounds>
	</sfw>
</metadata>
<path id="cup" class="st0" d="M102.1,98.7c-2.6,4.7-5.6,9.3-8.9,13.7c-0.8,1-2,1.6-3.2,1.6c-0.8,0-1.7-0.3-2.4-0.8
	c-1.8-1.3-2.1-3.8-0.8-5.6C99,91.3,110.4,69.2,111,19H49c0.6,50.2,11.9,72.3,24.2,88.6c1.3,1.8,1,4.3-0.8,5.6
	c-1.8,1.3-4.3,1-5.6-0.8c-3.3-4.4-6.3-9-8.9-13.7C37.4,97.6,21,80.6,21,59.7c0-5.2,1-10.2,3-14.9c2-4.7,4.8-9,8.5-12.6
	c1.6-1.6,4.1-1.6,5.7,0s1.6,4.1,0,5.7c-2.9,2.9-5.2,6.3-6.7,10.1c-1.6,3.8-2.4,7.8-2.4,11.9c0,14.9,10.6,27.4,24.6,30.3
	C44.8,70.4,41,46.9,41,15c0-2.2,1.8-4,4-4h70c2.2,0,4,1.8,4,4c0,31.9-3.8,55.4-12.6,75.1c14-3,24.6-15.4,24.6-30.3
	c0-4.1-0.8-8.1-2.4-11.9c-1.6-3.8-3.8-7.2-6.7-10.1c-1.6-1.6-1.6-4.1,0-5.7c1.6-1.6,4.1-1.6,5.7,0c3.6,3.6,6.5,7.9,8.5,12.6
	c2,4.7,3,9.8,3,14.9C139,80.6,122.6,97.6,102.1,98.7z M51,145c0,2.2,1.8,4,4,4h50c2.2,0,4-1.8,4-4s-1.8-4-4-4H55
	C52.8,141,51,142.8,51,145z M95,129c2.2,0,4-1.8,4-4s-1.8-4-4-4H65c-2.2,0-4,1.8-4,4s1.8,4,4,4H95z"/>
</svg>
