<svg xmlns="http://www.w3.org/2000/svg" xmlns:xlink="http://www.w3.org/1999/xlink" preserveAspectRatio="xMidYMid" width="24" height="24" viewBox="0 0 24 24">
  <path d="M6.000,2.999 C6.000,3.551 5.553,3.999 5.000,3.999 C4.447,3.999 4.000,3.551 4.000,2.999 C4.000,2.999 4.000,0.999 4.000,0.999 C4.000,0.447 4.447,-0.001 5.000,-0.001 C5.553,-0.001 6.000,0.447 6.000,0.999 C6.000,0.999 6.000,2.999 6.000,2.999 ZM20.000,0.999 C20.000,0.447 19.553,-0.001 19.000,-0.001 C18.447,-0.001 18.000,0.447 18.000,0.999 C18.000,0.999 18.000,2.999 18.000,2.999 C18.000,3.551 18.447,3.999 19.000,3.999 C19.553,3.999 20.000,3.551 20.000,2.999 C20.000,2.999 20.000,0.999 20.000,0.999 ZM22.000,7.999 C22.000,7.999 2.000,7.999 2.000,7.999 C2.000,7.999 2.000,21.999 2.000,21.999 C2.000,21.999 22.000,21.999 22.000,21.999 C22.000,21.999 22.000,7.999 22.000,7.999 ZM24.000,1.999 C24.000,1.999 24.000,23.999 24.000,23.999 C24.000,23.999 -0.000,23.999 -0.000,23.999 C-0.000,23.999 -0.000,1.999 -0.000,1.999 C-0.000,1.999 3.000,1.999 3.000,1.999 C3.000,1.999 3.000,2.999 3.000,2.999 C3.000,4.102 3.897,4.999 5.000,4.999 C6.103,4.999 7.000,4.102 7.000,2.999 C7.000,2.999 7.000,1.999 7.000,1.999 C7.000,1.999 17.000,1.999 17.000,1.999 C17.000,1.999 17.000,2.999 17.000,2.999 C17.000,4.102 17.897,4.999 19.000,4.999 C20.102,4.999 21.000,4.102 21.000,2.999 C21.000,2.999 21.000,1.999 21.000,1.999 C21.000,1.999 24.000,1.999 24.000,1.999 ZM8.000,9.999 C8.000,9.999 4.000,9.999 4.000,9.999 C4.000,9.999 4.000,13.999 4.000,13.999 C4.000,13.999 8.000,13.999 8.000,13.999 C8.000,13.999 8.000,9.999 8.000,9.999 ZM14.000,15.999 C14.000,15.999 10.000,15.999 10.000,15.999 C10.000,15.999 10.000,19.999 10.000,19.999 C10.000,19.999 14.000,19.999 14.000,19.999 C14.000,19.999 14.000,15.999 14.000,15.999 ZM8.000,15.999 C8.000,15.999 4.000,15.999 4.000,15.999 C4.000,15.999 4.000,19.999 4.000,19.999 C4.000,19.999 8.000,19.999 8.000,19.999 C8.000,19.999 8.000,15.999 8.000,15.999 ZM20.000,9.999 C20.000,9.999 16.000,9.999 16.000,9.999 C16.000,9.999 16.000,13.999 16.000,13.999 C16.000,13.999 20.000,13.999 20.000,13.999 C20.000,13.999 20.000,9.999 20.000,9.999 ZM14.000,9.999 C14.000,9.999 10.000,9.999 10.000,9.999 C10.000,9.999 10.000,13.999 10.000,13.999 C10.000,13.999 14.000,13.999 14.000,13.999 C14.000,13.999 14.000,9.999 14.000,9.999 ZM20.000,19.999 C20.000,19.999 16.000,19.999 16.000,19.999 C16.000,19.999 16.000,15.999 16.000,15.999 C16.000,15.999 20.000,15.999 20.000,15.999 C20.000,15.999 20.000,19.999 20.000,19.999 Z" id="path-1" fill-rule="evenodd"/>
</svg>
