<?xml version="1.0" encoding="utf-8"?>
<!-- Generator: Adobe Illustrator 19.2.1, SVG Export Plug-In . SVG Version: 6.00 Build 0)  -->
<svg version="1.1" id="Layer_1" xmlns="http://www.w3.org/2000/svg" xmlns:xlink="http://www.w3.org/1999/xlink" x="0px" y="0px"
	 viewBox="0 0 128 128" style="enable-background:new 0 0 128 128;" xml:space="preserve">
<g>
	<g>
		<path d="M96,0H16C7.2,0,0,7.2,0,16v96c0,8.8,7.2,16,16,16h44v-8H16c-4.4,0-8-3.6-8-8V16c0-4.4,3.6-8,8-8h80
			c4.4,0,8,3.6,8,8v47l8-8V16C112,7.2,104.8,0,96,0z"/>
	</g>
</g>
<path d="M125.7,72l-5.7-5.7c-1.6-1.6-3.6-2.3-5.7-2.3s-4.1,0.8-5.7,2.3l-34.3,34.3c-1.6,1.6-6.3,7.6-6.3,9.7L64,128
	l17.7-4c0,0,8.1-4.8,9.7-6.3l34.3-34.3C128.8,80.2,128.8,75.1,125.7,72z M88.5,114.8c-0.5,0.4-2,1.5-3.9,2.7l-10.4-10.4
	c1.1-1.5,2.2-2.9,3-3.6L103,77.7L114.3,89L88.5,114.8z"/>
<path d="M88,32H24v-8h64V32z"/>
<path d="M88,48H24v-8h64V48z"/>
<path d="M88,64H24v-8h64V64z"/>
<path d="M56,80H24v-8h32V80z"/>
</svg>
