<?xml version="1.0" encoding="utf-8"?>
<!-- Generator: Adobe Illustrator 18.1.1, SVG Export Plug-In . SVG Version: 6.00 Build 0)  -->
<svg version="1.1" id="Слой_1" xmlns="http://www.w3.org/2000/svg" xmlns:xlink="http://www.w3.org/1999/xlink" x="0px" y="0px"
	 viewBox="0 0 240 240" enable-background="new 0 0 240 240" xml:space="preserve">
<path d="M169,163.7c-4,2-24.1,11.5-49.5,11.5c-30.8,0-68.5-18.7-68.5-40.5V109l-9-4v29.7c0,13.5,9.6,26.3,27,36
	c15,8.4,33.8,13.5,50.5,13.5c21.9,0,42.5-7.1,49.5-10.4V163.7z"/>
<polygon points="169,100.1 118.8,120.7 10,73.1 10,70 1,66.8 1,78.9 118.6,130.5 169,110.2 "/>
<path d="M239,63.2v-8.1L119.9,8.8L1,56.3V62l118.9,48.9l47.5-19.7L156,86.8l-36.1,14.3L18,59.2l101.9-40.7l104.7,40.7L179.6,78
	l-59.2-23c-2.3-0.9-4.9,0.2-5.9,2.5s0.2,4.9,2.5,5.9L175,87v104.3l-16,30.8v8.8h42v-8.4l-16.1-30.2l0.1-0.1l-0.2-0.1l-0.7-1.3v-25.5
	c16.2-9.7,16-27.6,16-28.3v-33l-9,4v29.1c0,0.5,0,9.7-7,16.8v-48.8l55-26.2V68.8l-9,3.3v3.1l-46,20.1v-9.5L239,63.2z M190.5,222
	h-20.8l10.2-19.9L190.5,222z"/>
</svg>
