<?xml version="1.0" encoding="utf-8"?>
<!-- Generator: Adobe Illustrator 19.2.1, SVG Export Plug-In . SVG Version: 6.00 Build 0)  -->
<svg version="1.1" id="Слой_1" xmlns="http://www.w3.org/2000/svg" xmlns:xlink="http://www.w3.org/1999/xlink" x="0px" y="0px"
	 viewBox="0 0 64 64" style="enable-background:new 0 0 64 64;" xml:space="preserve">
<path d="M63,30.4C62.4,30,61.7,30,61,30h0c-1,0-2-0.1-3-0.4c-0.8-0.2-1.5-0.6-2.1-1c-0.3-0.9-0.7-1.7-1.1-2.6
	c-0.4-0.8-0.9-1.6-1.4-2.4l0.6-5.5c0-0.1,0-0.2,0-0.2c-0.1-0.5-0.6-0.9-1.1-0.9c-1.7,0.2-3.3,0.7-4.7,1.4l0,0L47.7,18l0,0
	c-1.1-0.8-2.4-1.5-3.6-2.1c-0.9-0.4-1.8-0.8-2.8-1.1l0,0c0.7-1.4,1-2.9,1-4.5c0-2.8-1.2-5.4-3-7.3c-1.9-1.9-4.4-3-7.3-3
	s-5.4,1.2-7.3,3c-1.9,1.9-3,4.4-3,7.3c0,1.6,0.4,3.1,1,4.5c-4.5,1.5-8.3,4.1-11.1,7.5c-1.7,2-3,4.3-3.8,6.8c-0.1,0-0.2,0-0.4,0.1
	c0-0.2,0-0.4,0-0.6c-0.1-0.9-0.5-1.6-1-2.1c-0.4-0.3-0.9-0.6-1.4-0.7v0c-0.5-0.1-1.1-0.1-1.6,0.1c-0.6,0.2-1.2,0.7-1.6,1.5h0
	c-0.3,0.6-0.4,1.3-0.2,1.9c0.2,0.6,0.6,1.2,1.1,1.6c0.2,0.1,0.4,0.3,0.6,0.4c-0.1,0-0.2,0-0.3,0c-0.5,0-1.2,0-1.9-0.3
	c-0.5-0.2-1.1,0.1-1.2,0.7c-0.2,0.5,0.1,1.1,0.7,1.2c1,0.3,1.8,0.4,2.6,0.3c1.2-0.1,2.1-0.5,2.7-1.1c0.2-0.2,0.4-0.4,0.6-0.6
	c0.2-0.1,0.5-0.1,0.7-0.2C7.1,32.5,7,33.6,7,34.8c0,3.5,1,6.8,2.7,9.7c1.7,2.8,4,5.3,6.9,7.3l-1.1,7.8c-0.1,0.8,0,1.7,0.6,2.5
	c0.4,0.6,1.1,1.2,2.2,1.6c1,0.4,1.9,0.4,2.6,0.2c1-0.3,1.7-0.9,2.1-1.6l4-6.4c0.7,0.1,1.4,0.2,2.1,0.3c1,0.1,1.9,0.1,2.8,0.1
	s1.9,0,2.8-0.1c0.7-0.1,1.4-0.2,2.1-0.3l4,6.4c0.4,0.7,1.1,1.3,2.1,1.6c0.7,0.2,1.6,0.2,2.6-0.2c1-0.4,1.7-1,2.2-1.6
	c0.6-0.8,0.7-1.7,0.6-2.5l-1.1-7.8c0.3-0.2,0.6-0.4,0.8-0.6c0.4-0.3,0.8-0.6,1.2-1c3.3-1.7,6.2-3.3,8.6-4.8c2.5-1.5,4.4-2.9,5.6-4.2
	l0.3-0.3v-0.4V33C64,31.6,63.6,30.9,63,30.4z M5.5,29.6l-0.1,0.2c-0.1,0-0.2,0-0.3,0c-0.4-0.1-0.7-0.2-1-0.4
	c-0.2-0.2-0.4-0.4-0.4-0.6v0c0-0.2,0-0.4,0.1-0.6h0c0.1-0.3,0.3-0.4,0.5-0.5c0.1-0.1,0.3-0.1,0.4,0h0c0.2,0,0.4,0.1,0.5,0.3
	c0.2,0.2,0.4,0.4,0.4,0.7C5.6,28.9,5.5,29.3,5.5,29.6z M26.2,4.4C27.6,2.9,29.7,2,32,2s4.4,0.9,5.8,2.4c1.5,1.5,2.4,3.6,2.4,5.8
	s-0.9,4.4-2.4,5.8c-1.5,1.5-3.6,2.4-5.8,2.4s-4.4-0.9-5.8-2.4c-1.5-1.5-2.4-3.6-2.4-5.8S24.7,5.9,26.2,4.4z M62,40.1
	c-1.1,1.1-2.8,2.3-5,3.6c-2.4,1.5-5.3,3.1-8.6,4.7l-0.1,0.1l-0.1,0.1c-0.4,0.3-0.8,0.7-1.2,1c-0.4,0.3-0.8,0.6-1.3,0.9l-0.5,0.3
	l0.1,0.6l1.1,8.4c0,0.3,0,0.8-0.3,1.1c-0.2,0.3-0.6,0.6-1.3,0.9c-0.6,0.2-1.1,0.2-1.4,0.2h0c-0.4-0.1-0.7-0.4-0.9-0.7l0,0l-4.4-7
	l-0.4-0.6l-0.7,0.1c-0.9,0.2-1.7,0.3-2.6,0.4c-0.8,0.1-1.7,0.1-2.6,0.1c-0.9,0-1.8,0-2.6-0.1c-0.9-0.1-1.7-0.2-2.6-0.4l-0.7-0.1
	l-0.4,0.6l-4.4,7l0,0c-0.2,0.3-0.5,0.6-0.9,0.7h0c-0.4,0.1-0.8,0.1-1.4-0.2c-0.6-0.2-1-0.5-1.3-0.9c-0.3-0.4-0.3-0.8-0.3-1.1
	l1.1-8.4l0.1-0.6l-0.5-0.3c-2.9-1.8-5.2-4.2-6.8-6.9C9.9,40.9,9,37.9,9,34.8c0-4.2,1.6-8.1,4.2-11.3c2.6-3.1,6.3-5.6,10.6-7
	c0.3,0.4,0.6,0.7,0.9,1c0.2,0.2,0.5,0.5,0.7,0.7l-0.2,0.1c-0.8,0.2-1.5,0.5-2.2,0.9l0.9,1.8c0.6-0.3,1.2-0.5,1.9-0.7
	c0.6-0.2,1.3-0.4,2-0.5c1.3,0.6,2.7,0.9,4.1,0.9c1.5,0,3-0.3,4.3-0.9c0.7,0.1,1.3,0.3,1.9,0.5c0.7,0.2,1.3,0.5,1.8,0.8l1-1.7
	c-0.7-0.4-1.4-0.7-2.2-0.9l-0.2-0.1c0.2-0.2,0.4-0.4,0.7-0.6c0.3-0.3,0.6-0.7,0.9-1c1,0.3,2.1,0.7,3,1.2c1.1,0.5,2.1,1.1,3.1,1.8h0
	c-1.2,0.8-2.2,1.8-3.1,2.9c-0.3,0.4-0.3,1.1,0.2,1.4s1.1,0.3,1.4-0.2c1-1.3,2.2-2.3,3.6-3.1c1-0.6,2.2-1,3.5-1.3L51,26.9
	c-0.1,0.5,0.3,1,0.9,1.1c0.5,0.1,1-0.3,1.1-0.9l0-0.3l0,0c0.4,0.8,0.8,1.7,1.1,2.6l0.1,0.3l0.2,0.2c0.9,0.7,1.9,1.2,3,1.6h0
	c1.2,0.4,2.4,0.5,3.6,0.5h0c0.4,0,0.7,0,0.8,0.1C62,32.1,62,32.4,62,33V40.1z"/>
<path d="M47,29c0.8,0,1.6,0.3,2.1,0.9l0,0c0.5,0.5,0.9,1.3,0.9,2.1c0,0.8-0.3,1.6-0.9,2.1l0,0C48.6,34.7,47.8,35,47,35
	c-0.8,0-1.6-0.3-2.1-0.9S44,32.8,44,32c0-0.8,0.3-1.6,0.9-2.1l0,0C45.4,29.3,46.2,29,47,29z"/>
<path d="M47.7,31.3C47.5,31.1,47.3,31,47,31c-0.3,0-0.5,0.1-0.7,0.3v0C46.1,31.5,46,31.7,46,32c0,0.3,0.1,0.5,0.3,0.7
	c0.2,0.2,0.4,0.3,0.7,0.3c0.3,0,0.5-0.1,0.7-0.3h0c0.2-0.2,0.3-0.4,0.3-0.7C48,31.7,47.9,31.5,47.7,31.3L47.7,31.3z"/>
<path d="M34,11c1.9,0,3.5-1.5,3.5-3.5S36,4.1,34,4.1h-5v5.7h-1.4V11H29v1.3h-1.4v1.3H29v3.1h1.3v-3.1h4v-1.3h-4V11H34z
	 M30.3,5.3H34c1.2,0,2.2,1,2.2,2.2s-1,2.2-2.2,2.2h-3.8V5.3z"/>
</svg>
