<?xml version="1.0" encoding="utf-8"?>
<!-- Generator: Adobe Illustrator 19.2.1, SVG Export Plug-In . SVG Version: 6.00 Build 0)  -->
<svg version="1.1" id="Layer_1" xmlns="http://www.w3.org/2000/svg" xmlns:xlink="http://www.w3.org/1999/xlink" x="0px" y="0px"
	 viewBox="0 0 498 498" style="enable-background:new 0 0 498 498;" xml:space="preserve">
<style type="text/css">
	.st0{fill:#2886C4;}
</style>
<path class="st0" d="M249,0c-0.1,0-0.1,0-0.2,0c0,0-0.1,0-0.1,0c-0.1,0-0.2,0-0.3,0C111.1,0.3,0,111.7,0,249
	c0,137.3,111.1,248.6,248.4,249c0.1,0,0.2,0,0.3,0c0,0,0.1,0,0.1,0c0.1,0,0.1,0,0.2,0c137.5,0,249-111.5,249-249
	C498,111.5,386.5,0,249,0z M259,149c26.4-0.7,52.1-4.2,76.8-10.2c7.5,29.4,12.1,63.2,12.8,100.3H259L259,149L259,149z M259,129.1
	V21.5c26.9,7.4,54.1,43.2,71.4,98.1C307.4,125.2,283.5,128.4,259,129.1z M239,21.3v107.8c-24.7-0.7-48.8-4-72-9.6
	C184.6,64.2,212,28.3,239,21.3z M239,149v90h-90.3c0.7-37.1,5.4-71,12.8-100.4C186.5,144.8,212.4,148.3,239,149z M128.7,239H20.2
	c2.2-51.2,21.3-98.1,51.8-135.3c22.2,12.2,45.7,22.2,70.4,29.7C134.3,165.2,129.5,201,128.7,239z M128.7,259
	c0.7,38,5.6,73.8,13.6,105.6C117.7,372,94.2,382,72,394.2C41.4,357.1,22.4,310.2,20.2,259H128.7z M148.8,259H239v89.9
	c-26.6,0.7-52.5,4.3-77.4,10.4C154.1,329.9,149.5,296.1,148.8,259z M239,368.8v107.9c-27-7.1-54.5-43-72-98.3
	C190.2,372.8,214.3,369.5,239,368.8z M259,476.5V368.8c24.5,0.7,48.4,3.9,71.4,9.5C313,433.2,285.8,469.1,259,476.5z M259,348.9V259
	h89.6c-0.7,37-5.4,70.8-12.8,100.2C311.1,353.1,285.4,349.6,259,348.9z M368.6,259h109.2c-2.2,51.2-21.3,98.1-51.8,135.3
	c-22.4-12.3-46.1-22.4-70.9-29.9C363.1,332.6,367.9,296.9,368.6,259z M368.6,239c-0.7-38-5.5-73.7-13.6-105.5
	c24.8-7.5,48.6-17.6,70.9-29.9c30.6,37.2,49.7,84.1,51.9,135.3L368.6,239L368.6,239z M412.3,88.5c-19.8,10.5-40.7,19.3-62.6,25.9
	c-11.7-37.5-28-68-47.3-88.1C344.7,36.4,382.6,58.4,412.3,88.5z M194.9,26.4c-19.2,20-35.5,50.5-47.1,87.8
	c-21.6-6.6-42.4-15.2-62-25.7C115.2,58.6,152.8,36.7,194.9,26.4z M85.7,409.4c19.7-10.5,40.4-19.1,62.1-25.7
	c11.6,37.3,27.9,67.8,47.1,87.9C152.7,461.3,115.1,439.4,85.7,409.4z M302.3,471.7c19.4-20.1,35.7-50.7,47.4-88.2
	c21.9,6.6,42.8,15.3,62.6,25.9C382.7,439.6,344.8,461.6,302.3,471.7z"/>
</svg>
