<svg xmlns="http://www.w3.org/2000/svg" xmlns:xlink="http://www.w3.org/1999/xlink" preserveAspectRatio="xMidYMid" width="22" height="24" viewBox="0 0 22 24">
  <path d="M22.000,-0.000 C22.000,-0.000 16.000,1.221 16.000,1.221 C16.000,1.221 17.716,2.929 17.716,2.929 C17.716,2.929 10.866,9.662 10.866,9.662 C10.866,9.662 7.865,6.660 7.865,6.660 C7.865,6.660 0.024,14.456 0.024,14.456 C0.024,14.456 1.435,15.874 1.435,15.874 C1.435,15.874 7.861,9.485 7.861,9.485 C7.861,9.485 10.853,12.477 10.853,12.477 C10.853,12.477 19.133,4.341 19.133,4.341 C19.133,4.341 20.800,6.000 20.800,6.000 C20.800,6.000 22.000,-0.000 22.000,-0.000 ZM22.000,11.000 C22.000,11.000 16.000,11.000 16.000,11.000 C16.000,11.000 16.000,23.999 16.000,23.999 C16.000,23.999 22.000,23.999 22.000,23.999 C22.000,23.999 22.000,11.000 22.000,11.000 ZM14.000,14.999 C14.000,14.999 8.000,14.999 8.000,14.999 C8.000,14.999 8.000,23.999 8.000,23.999 C8.000,23.999 14.000,23.999 14.000,23.999 C14.000,23.999 14.000,14.999 14.000,14.999 ZM6.000,23.999 C6.000,23.999 -0.000,23.999 -0.000,23.999 C-0.000,23.999 -0.000,17.999 -0.000,17.999 C-0.000,17.999 6.000,17.999 6.000,17.999 C6.000,17.999 6.000,23.999 6.000,23.999 Z" id="path-1" fill-rule="evenodd"/>
</svg>
