<svg xmlns="http://www.w3.org/2000/svg" xmlns:xlink="http://www.w3.org/1999/xlink" preserveAspectRatio="xMidYMid" width="24" height="16" viewBox="0 0 24 16">
  <path d="M19.982,10.748 C18.913,9.692 15.250,6.081 14.180,5.034 C14.015,4.874 13.758,4.855 13.572,4.990 C12.933,5.454 11.490,6.475 10.627,6.777 C8.942,7.367 7.513,6.555 7.206,5.418 C7.013,4.707 7.298,4.009 7.932,3.639 C8.940,3.050 9.589,2.264 10.388,1.276 C9.693,0.737 9.038,0.544 8.397,0.544 C6.691,0.544 5.080,1.910 3.061,1.775 C1.687,1.684 -0.000,1.371 -0.000,1.371 C-0.000,1.371 -0.000,7.704 -0.000,7.704 C1.476,8.025 2.455,8.168 3.920,8.904 C3.920,8.904 4.382,8.280 4.382,8.280 C4.747,7.784 5.332,7.488 5.947,7.488 C6.816,7.488 7.569,8.067 7.808,8.876 C8.759,8.876 9.475,9.478 9.707,10.263 C10.532,10.231 11.347,10.782 11.604,11.648 C12.775,11.648 13.621,12.568 13.585,13.654 C13.585,13.654 14.754,14.823 14.754,14.823 C15.121,15.191 15.717,15.190 16.084,14.823 C16.452,14.455 16.452,13.859 16.084,13.491 C16.084,13.491 14.398,11.805 14.398,11.805 C14.179,11.585 14.512,11.252 14.731,11.472 C14.731,11.472 16.763,13.504 16.763,13.504 C17.131,13.872 17.727,13.872 18.094,13.504 C18.462,13.137 18.462,12.541 18.094,12.173 C18.094,12.173 15.593,9.672 15.593,9.672 C15.373,9.453 15.706,9.118 15.926,9.339 C15.926,9.339 18.626,12.040 18.626,12.040 C18.994,12.407 19.589,12.407 19.957,12.040 C20.313,11.683 20.316,11.117 19.982,10.748 ZM13.476,14.210 C13.318,14.670 12.858,15.211 12.523,15.665 C12.820,15.901 13.131,16.000 13.405,16.000 C14.122,16.000 14.593,15.328 13.947,14.681 C13.947,14.681 13.476,14.210 13.476,14.210 ZM24.000,1.549 C24.000,1.549 22.445,1.849 21.333,2.028 C19.187,2.372 17.189,1.612 14.972,0.466 C14.527,0.237 14.015,-0.000 13.514,-0.000 C13.052,-0.000 12.601,0.209 12.221,0.639 C10.855,2.186 10.062,3.554 8.436,4.503 C7.635,4.970 8.576,6.436 10.297,5.834 C11.175,5.526 12.033,4.939 13.003,4.157 C13.765,3.542 14.223,3.632 14.882,4.292 C16.120,5.530 20.287,9.643 20.287,9.643 C21.604,8.830 22.708,8.330 24.000,7.851 C24.000,7.851 24.000,1.549 24.000,1.549 ZM6.706,9.987 C7.013,9.568 6.924,8.980 6.503,8.672 C6.084,8.363 5.496,8.453 5.188,8.872 C5.188,8.872 4.113,10.324 4.113,10.324 C3.806,10.741 3.896,11.332 4.315,11.639 C4.735,11.946 5.323,11.856 5.631,11.437 C5.631,11.437 6.706,9.987 6.706,9.987 ZM8.604,11.373 C8.913,10.956 8.821,10.365 8.402,10.058 C7.984,9.751 7.394,9.842 7.088,10.260 C7.088,10.260 6.005,11.721 6.005,11.721 C5.697,12.140 5.795,12.716 6.214,13.025 C6.636,13.333 7.214,13.255 7.522,12.835 C7.522,12.835 8.604,11.373 8.604,11.373 ZM10.504,12.761 C10.812,12.342 10.721,11.753 10.303,11.444 C9.882,11.137 9.294,11.228 8.986,11.647 C8.986,11.647 7.913,13.096 7.913,13.096 C7.604,13.515 7.696,14.105 8.115,14.413 C8.533,14.719 9.123,14.630 9.431,14.210 C9.431,14.210 10.504,12.761 10.504,12.761 ZM11.329,15.599 C11.143,15.851 10.859,15.984 10.570,15.984 C10.376,15.984 10.181,15.924 10.012,15.801 C9.593,15.492 9.503,14.905 9.810,14.485 C9.810,14.485 10.887,13.030 10.887,13.030 C11.195,12.612 11.784,12.522 12.203,12.831 C12.623,13.137 12.714,13.726 12.404,14.144 C12.404,14.144 11.329,15.599 11.329,15.599 Z" id="path-1" fill-rule="evenodd"/>
</svg>
