<svg xmlns="http://www.w3.org/2000/svg" width="46" height="38" viewBox="0 0 46 38">
  <path id="handshake2.svg" class="cls-1" d="M624.162,3790.71l-1.662.95,2.875,4.94,1.662-.95Zm21.338,0.95-1.662-.95-2.875,4.94,1.662,0.95Zm-6.895-2.33-1.887-.33-1,5.61,1.889,0.33Zm-7.322-.33-1.888.33,1,5.61,1.887-.33Zm15.256,13.09,3.783,14.37,6.678-1.69-3.7-14.37Zm-9.969,20.69-0.461-.4a3.092,3.092,0,0,1-.636,1.23l-0.687.84a1.425,1.425,0,0,0,.859.34,1.285,1.285,0,0,0,.8-0.27A1.179,1.179,0,0,0,636.57,3822.78Zm-2.735-2.15a1.4,1.4,0,0,0-1.892.26l-1.174,1.43a1.22,1.22,0,0,0,.158,1.79,1.41,1.41,0,0,0,1.89-.27l1.17-1.42A1.212,1.212,0,0,0,633.835,3820.63Zm-3.575,1.31,1.166-1.42a1.217,1.217,0,0,0-.153-1.79,1.411,1.411,0,0,0-1.891.27l-1.168,1.41a1.228,1.228,0,0,0,.158,1.8A1.408,1.408,0,0,0,630.26,3821.94Zm-2.573-1.88,1.183-1.44a1.222,1.222,0,0,0-.158-1.79,1.405,1.405,0,0,0-1.886.27l-1.182,1.43a1.206,1.206,0,0,0,.165,1.78A1.39,1.39,0,0,0,627.687,3820.06Zm-2.546-1.92,1.168-1.42a1.218,1.218,0,0,0-.154-1.79,1.41,1.41,0,0,0-1.89.27l-1.17,1.42a1.219,1.219,0,0,0,.154,1.79A1.413,1.413,0,0,0,625.141,3818.14Zm21.154-1.66a9.994,9.994,0,0,1-4.958,6.68,3.56,3.56,0,0,1-2.484,1.92,3.461,3.461,0,0,1-3.208,1.92,3.663,3.663,0,0,1-2.6-1.02,3.2,3.2,0,0,1-4.278-1.64,1219.038,1219.038,0,0,0-5.122-3.8,3.09,3.09,0,0,1-2.3-4.74c-0.448-.11-0.947-0.2-1.439-0.29l0.733-2.78a23.873,23.873,0,0,1,2.785.68,3.228,3.228,0,0,1,4.886,1.29,1031.677,1031.677,0,0,0,5.115,3.79,3.128,3.128,0,0,1,2.778,2.73,2.929,2.929,0,0,1,0,.43l0.863,0.76a1.359,1.359,0,0,0,1.84.2,1.165,1.165,0,0,0,.144-1.73l-2.792-2.43a0.3,0.3,0,0,1,.408-0.45l2.858,2.48a1.385,1.385,0,0,0,1.857.22,1.18,1.18,0,0,0,.131-1.74l-3.633-3.1a0.3,0.3,0,0,1,.4-0.46l3.727,3.18a1.4,1.4,0,0,0,1.853.21,1.2,1.2,0,0,0,0-1.89c-2.377-2.11-5.119-4.57-7.94-7.21a11.2,11.2,0,0,1-6.285,2.85,3.705,3.705,0,0,1-3.757-2.55,2.316,2.316,0,0,1,1.019-2.7,15.023,15.023,0,0,0,2.994-2.41c-1.512-1.11-2.306-.75-3.962.03a13.233,13.233,0,0,1-3.553,1.23l0.837-3.18c2.544-.92,4.885-3.05,8.634-0.15,0.39-.44.583-0.65,0.942-1.05a3.811,3.811,0,0,1,2.881-1.36,6.232,6.232,0,0,1,2.7.79c2.908,1.51,4.394,2.39,6.6,2.46l0.755,2.87h-0.015c-3.444.06-5.129-.97-8.655-2.79-0.983-.5-1.647-0.61-2.108-0.09a32.212,32.212,0,0,1-6.119,5.82c1.1,0.87,3.869-.87,4.968-1.75a3.53,3.53,0,0,1,2.162-.89,3.416,3.416,0,0,1,2.385,1.18c1.3,1.29,4.926,4.54,6.53,5.97a20.33,20.33,0,0,1,2.512-1.15l0.734,2.79A18.5,18.5,0,0,0,646.295,3816.48ZM611,3814.77l3.7-14.37,6.759,1.69-3.783,14.37Z" transform="translate(-611 -3789)"/>
</svg>
