<svg xmlns="http://www.w3.org/2000/svg" xmlns:xlink="http://www.w3.org/1999/xlink" preserveAspectRatio="xMidYMid" width="71" height="67" viewBox="0 0 71 67">
  <path d="M71.000,32.240 C71.000,32.240 34.989,-0.001 34.989,-0.001 C34.989,-0.001 -0.000,32.744 -0.000,32.744 C-0.000,32.744 2.158,35.330 2.158,35.330 C2.158,35.330 34.989,5.290 34.989,5.290 C34.989,5.290 67.820,35.377 67.820,35.377 C67.820,35.377 71.000,32.240 71.000,32.240 ZM34.989,13.579 C34.989,13.579 6.640,38.789 6.640,38.789 C6.640,38.789 6.640,67.000 6.640,67.000 C6.640,67.000 28.604,67.000 28.604,67.000 C28.604,67.000 28.604,51.383 28.604,51.383 C28.604,51.383 41.374,51.383 41.374,51.383 C41.374,51.383 41.374,67.000 41.374,67.000 C41.374,67.000 62.763,67.000 62.763,67.000 C62.763,67.000 62.763,39.076 62.763,39.076 C62.763,39.076 34.989,13.579 34.989,13.579 ZM34.989,19.377 C34.989,19.377 58.741,40.804 58.741,40.804 C58.741,40.804 58.741,62.969 58.741,62.969 C58.741,62.969 45.460,62.969 45.460,62.969 C45.460,62.969 45.460,47.856 45.460,47.856 C45.460,47.856 24.518,47.856 24.518,47.856 C24.518,47.856 24.518,62.969 24.518,62.969 C24.518,62.969 10.727,62.969 10.727,62.969 C10.727,62.969 10.727,39.797 10.727,39.797 C10.727,39.797 34.989,19.377 34.989,19.377 Z" id="path-1" class="cls-2" fill-rule="evenodd"/>
</svg>
