<?xml version="1.0" encoding="utf-8"?>
<!-- Generator: Adobe Illustrator 19.2.1, SVG Export Plug-In . SVG Version: 6.00 Build 0)  -->
<svg version="1.1" id="Слой_1" xmlns:sketch="http://www.bohemiancoding.com/sketch/ns"
	 xmlns="http://www.w3.org/2000/svg" xmlns:xlink="http://www.w3.org/1999/xlink" x="0px" y="0px" viewBox="0 0 23 23"
	 style="enable-background:new 0 0 23 23;" xml:space="preserve">
<g id="miu">
	<g id="Artboard-1" transform="translate(-719.000000, -119.000000)">
		<g id="slice" transform="translate(215.000000, 119.000000)">
		</g>
		<path id="circle-info-more-information-detail-outline-stroke" d="M719,130.5c0-6.4,5.1-11.5,11.5-11.5
			s11.5,5.1,11.5,11.5s-5.1,11.5-11.5,11.5S719,136.9,719,130.5z M741,130.5c0-5.8-4.7-10.5-10.5-10.5s-10.5,4.7-10.5,10.5
			c0,5.8,4.7,10.5,10.5,10.5S741,136.3,741,130.5z M730.8,126c0.7,0,1.3-0.6,1.3-1.3s-0.6-1.3-1.3-1.3s-1.3,0.6-1.3,1.3
			S730.1,126,730.8,126z M728,127v1h1.5v7H728v1h5.5v-1H732v-8H728z"/>
	</g>
</g>
</svg>
