<svg xmlns="http://www.w3.org/2000/svg" width="18" height="24" viewBox="0 0 18 24">
  <path id="lab.svg" class="cls-1" d="M113,617a1,1,0,1,0-1,1A1,1,0,0,0,113,617Zm-3-3a1,1,0,1,0-1,1A1,1,0,0,0,110,614Zm-2,3.5a1.5,1.5,0,1,0-1.5,1.5A1.5,1.5,0,0,0,108,617.5Zm9.759,1-3.743-7.856A16.807,16.807,0,0,1,112,603.635V602h-2v2a19.373,19.373,0,0,0,2.21,7.5l3.743,7.855a0.444,0.444,0,0,1-.377.644H102.423a0.443,0.443,0,0,1-.376-0.642l3.742-7.857a19.362,19.362,0,0,0,2.2-7.5L108,602h-2v1.635a16.807,16.807,0,0,1-2.016,7.006l-3.743,7.857a2.444,2.444,0,0,0,2.182,3.5h13.153A2.445,2.445,0,0,0,117.759,618.5ZM113,599a1,1,0,0,1-1,1h-6a1,1,0,0,1,0-2h6A1,1,0,0,1,113,599Z" transform="translate(-100 -598)"/>
</svg>
