<svg xmlns="http://www.w3.org/2000/svg" width="40" height="48" viewBox="0 0 40 48">
  <path id="lamp.svg" class="cls-1" d="M132,3803.4c0,7.14-6.428,11.97-6.428,17.6h-3.978c-0.006-3.72,1.74-6.78,3.441-9.73,1.524-2.66,2.965-5.16,2.965-7.87,0-5.18-4.15-7.54-8.006-7.54S112,3798.22,112,3803.4c0,2.71,1.441,5.21,2.965,7.87,1.7,2.95,3.449,6.01,3.439,9.73h-3.976c0-5.63-6.428-10.46-6.428-17.6,0-7.45,6-11.54,11.994-11.54S132,3795.96,132,3803.4Zm-7.5,27.6h-9l2.375,1.56a1.851,1.851,0,0,0,1.23.44h1.79a1.851,1.851,0,0,0,1.23-.44Zm-0.5-4h-8a1,1,0,0,0,0,2h8A1,1,0,0,0,124,3827Zm0-4h-8a1,1,0,0,0,0,2h8A1,1,0,0,0,124,3823Zm-18.924-18.24H100v-2.74h5.07c-0.037.45-.07,0.91-0.07,1.38S105.035,3804.32,105.076,3804.76Zm3.193-10.85-3.205-3.56,2.038-1.83,3.14,3.48A11.126,11.126,0,0,0,108.269,3793.91Zm21.477-1.91,3.141-3.48,2.037,1.83-3.205,3.56A11.092,11.092,0,0,0,129.746,3792Zm-11.043-3.09V3785h2.742v3.93a14.108,14.108,0,0,0-1.451-.07C119.564,3788.86,119.135,3788.88,118.7,3788.91Zm21.3,13.11v2.74h-5.076c0.041-.44.076-0.89,0.076-1.36s-0.033-.93-0.07-1.38H140Z" transform="translate(-100 -3785)"/>
</svg>
