<svg xmlns="http://www.w3.org/2000/svg" width="42" height="42" viewBox="0 0 42 42">
  <path id="like.svg" class="cls-1" d="M899.817,3813.23s0.352,0.02,1.871-.05c1.894-.08,1.839,2.57.007,2.74s-3.081.17-3.081,0.17a1.033,1.033,0,0,0,.246,2.05s1.2-.03,2-0.07c1.869-.1,1.777,2.5.07,2.71-0.742.1-3.054,0.21-3.054,0.21a1,1,0,1,0,.191,1.99l1.35-.05c1.439-.13,1.755,1.44-0.511,2.9-2.743,1.55-8.2.23-11.228-1.07-3.919-1.69-7.767-3.38-12.178-3.51v-10.5c5.711-1.31,11.074-3.95,14.562-15.95,1.571-5.41,2.938-3.38,2.938,1.01a38.525,38.525,0,0,1-1.612,9.68,28.657,28.657,0,0,0,10.711,2.72c1.845,0.11,1.792,2.55-.089,2.78,0,0-1.156.14-2.439,0.29A0.983,0.983,0,0,0,899.817,3813.23ZM872,3823h-3.5v-14H872v14Zm30.461-18.27a22.4,22.4,0,0,1-6.959-1.31c1.415-5.74,2.191-15.42-3.844-15.42-3.257,0-4.113,2.92-4.957,5.82-2.711,9.34-6.906,11.93-11.2,12.96v-1.28H865v21h10.5v-1.58a33.712,33.712,0,0,1,10.8,3.05,23.143,23.143,0,0,0,9.338,2.03c4.441,0,7.516-1.74,8.765-6.45a120.879,120.879,0,0,0,2.6-14.44C907,3806.23,904.956,3804.83,902.461,3804.73Z" transform="translate(-865 -3788)"/>
</svg>
