<svg xmlns="http://www.w3.org/2000/svg" xmlns:xlink="http://www.w3.org/1999/xlink" preserveAspectRatio="xMidYMid" width="24" height="24" viewBox="0 0 24 24">
  <path d="M19.000,13.000 C19.000,13.000 15.000,13.000 15.000,13.000 C15.000,13.000 15.000,14.000 15.000,14.000 C15.000,14.000 19.000,14.000 19.000,14.000 C19.000,14.000 19.000,13.000 19.000,13.000 ZM19.000,11.000 C19.000,11.000 15.000,11.000 15.000,11.000 C15.000,11.000 15.000,12.000 15.000,12.000 C15.000,12.000 19.000,12.000 19.000,12.000 C19.000,12.000 19.000,11.000 19.000,11.000 ZM19.000,9.000 C19.000,9.000 15.000,9.000 15.000,9.000 C15.000,9.000 15.000,10.000 15.000,10.000 C15.000,10.000 19.000,10.000 19.000,10.000 C19.000,10.000 19.000,9.000 19.000,9.000 ZM10.334,14.000 C11.641,11.656 12.548,10.451 13.788,9.370 C13.788,9.370 13.627,9.000 13.627,9.000 C12.124,9.935 11.315,10.639 10.092,12.027 C9.441,11.563 9.074,11.350 8.496,11.070 C8.496,11.070 8.000,11.528 8.000,11.528 C8.991,12.445 9.528,13.050 10.334,14.000 ZM21.000,1.999 C21.000,1.999 6.876,1.999 6.876,1.999 C7.131,2.699 7.114,3.339 6.875,4.002 C6.875,4.002 21.000,4.002 21.000,4.002 C22.303,4.002 22.345,1.999 21.000,1.999 ZM21.016,6.000 C21.016,6.000 6.000,6.000 6.000,6.000 C6.000,6.000 6.000,16.001 6.000,16.001 C6.000,16.001 21.016,16.001 21.016,16.001 C21.016,16.001 21.016,6.000 21.016,6.000 ZM5.061,3.013 C5.061,2.462 4.612,2.013 4.061,2.013 C3.314,2.013 3.000,2.611 3.000,3.361 C3.000,3.361 3.000,8.544 3.000,8.544 C3.000,10.127 3.000,10.986 2.771,12.001 C2.771,12.001 4.016,12.001 4.016,12.001 C4.016,12.001 4.016,4.013 4.016,4.013 C4.567,4.013 5.061,3.564 5.061,3.013 ZM24.000,2.992 C24.000,3.868 23.601,4.646 23.000,5.192 C23.000,5.192 23.000,17.999 23.000,17.999 C23.000,17.999 4.016,17.999 4.016,17.999 C4.016,17.999 4.016,14.000 4.016,14.000 C4.016,14.000 -0.000,14.000 -0.000,14.000 C0.854,12.667 1.016,11.068 1.016,8.544 C1.016,8.544 1.016,3.361 1.016,3.361 C1.016,1.298 2.337,0.069 3.969,0.021 C3.952,-0.009 20.965,0.002 21.000,0.002 C22.657,0.002 24.000,1.335 24.000,2.992 ZM15.871,20.002 C15.871,20.002 19.291,24.000 19.291,24.000 C19.291,24.000 21.918,24.000 21.918,24.000 C21.918,24.000 18.504,20.002 18.504,20.002 C18.504,20.002 15.871,20.002 15.871,20.002 ZM6.098,24.000 C6.098,24.000 8.725,24.000 8.725,24.000 C8.725,24.000 12.144,20.002 12.144,20.002 C12.144,20.002 9.512,20.002 9.512,20.002 C9.512,20.002 6.098,24.000 6.098,24.000 ZM13.000,20.002 C13.000,20.002 15.000,20.002 15.000,20.002 C15.000,20.002 15.000,24.000 15.000,24.000 C15.000,24.000 13.000,24.000 13.000,24.000 C13.000,24.000 13.000,20.002 13.000,20.002 Z" id="path-1" fill-rule="evenodd"/>
</svg>
