<svg xmlns="http://www.w3.org/2000/svg" xmlns:xlink="http://www.w3.org/1999/xlink" preserveAspectRatio="xMidYMid" width="24" height="22" viewBox="0 0 24 22">
  <path d="M16.014,17.999 C16.014,17.999 19.764,17.999 19.764,17.999 C19.764,17.999 20.764,20.000 20.764,20.000 C20.764,20.000 16.872,20.000 16.872,20.000 C16.872,20.000 16.014,17.999 16.014,17.999 ZM7.206,20.000 C7.206,20.000 3.236,20.000 3.236,20.000 C3.236,20.000 5.000,16.471 5.000,16.471 C5.000,16.471 6.516,17.999 6.516,17.999 C6.516,17.999 8.064,17.999 8.064,17.999 C8.064,17.999 7.206,20.000 7.206,20.000 ZM20.000,13.999 C20.000,13.999 16.865,13.999 16.865,13.999 C16.480,14.640 16.067,15.308 15.633,16.000 C15.633,16.000 18.764,16.000 18.764,16.000 C18.764,16.000 19.264,16.999 19.264,16.999 C19.264,16.999 15.000,16.999 15.000,16.999 C14.884,17.183 14.775,17.356 14.656,17.544 C14.562,17.691 14.463,17.849 14.367,17.999 C14.367,17.999 14.925,17.999 14.925,17.999 C14.925,17.999 15.783,20.000 15.783,20.000 C15.783,20.000 8.295,20.000 8.295,20.000 C8.295,20.000 9.153,17.999 9.153,17.999 C9.153,17.999 9.633,17.999 9.633,17.999 C9.537,17.849 9.437,17.691 9.344,17.544 C9.225,17.356 9.116,17.183 9.000,16.999 C9.000,16.999 6.958,16.999 6.958,16.999 C6.958,16.999 5.947,16.000 5.947,16.000 C5.947,16.000 8.367,16.000 8.367,16.000 C7.933,15.308 7.520,14.640 7.135,13.999 C7.135,13.999 4.000,13.999 4.000,13.999 C4.000,13.999 -0.000,22.000 -0.000,22.000 C-0.000,22.000 24.000,22.000 24.000,22.000 C24.000,22.000 20.000,13.999 20.000,13.999 ZM12.000,8.000 C10.895,8.000 10.000,7.105 10.000,6.000 C10.000,4.895 10.895,3.999 12.000,3.999 C13.105,3.999 14.000,4.895 14.000,6.000 C14.000,7.105 13.105,8.000 12.000,8.000 ZM12.000,-0.000 C8.852,-0.000 6.000,2.552 6.000,5.701 C6.000,8.850 8.602,12.609 12.000,17.999 C15.398,12.609 18.000,8.850 18.000,5.701 C18.000,2.552 15.149,-0.000 12.000,-0.000 ZM12.000,2.000 C14.131,2.000 16.000,3.730 16.000,5.701 C16.000,7.751 14.286,10.642 12.000,14.262 C9.714,10.642 8.000,7.751 8.000,5.701 C8.000,3.730 9.869,2.000 12.000,2.000 Z" id="path-1" fill-rule="evenodd"/>
</svg>
