<svg xmlns="http://www.w3.org/2000/svg" width="16" height="16" viewBox="0 0 16 16">
  <path id="man.svg" class="cls-1" d="M630.008,681l-0.47-2h-1.076l-0.47,2h2.016Zm-2-4,0.607,1.333h0.776L630.007,677h-2ZM637,681h-1.33c0-2.069.079-2.367-1.174-2.658-1.918-.442-3.729-0.86-4.39-2.3a2.781,2.781,0,0,1,.207-2.542c1.361-2.572,1.7-4.777.935-6.051a2.821,2.821,0,0,0-4.511.023c-0.769,1.291-.423,3.484.95,6.016a2.767,2.767,0,0,1,.225,2.544c-0.655,1.452-2.45,1.866-4.35,2.3-1.309.3-1.226,0.579-1.226,2.669H621c0-.293,0-0.569,0-0.828,0-1.68.132-2.649,2.118-3.108,2.244-.518,4.459-0.982,3.394-2.945-3.155-5.82-.9-9.119,2.488-9.119,3.322,0,5.634,3.177,2.488,9.119-1.034,1.952,1.1,2.415,3.393,2.945,1.986,0.459,2.119,1.428,2.119,3.108C637,680.431,637,680.707,637,681Z" transform="translate(-621 -665)"/>
</svg>
