<?xml version="1.0" encoding="utf-8"?>
<!-- Generator: Adobe Illustrator 19.2.1, SVG Export Plug-In . SVG Version: 6.00 Build 0)  -->
<svg version="1.1" id="Layer_1" xmlns="http://www.w3.org/2000/svg" xmlns:xlink="http://www.w3.org/1999/xlink" x="0px" y="0px"
	 viewBox="0 0 200 200" style="enable-background:new 0 0 200 200;" xml:space="preserve">
<g>
	<g>
		<path d="M135.5,55c-0.3-1.2-0.9-2.3-1.9-3.2c-1-0.9-2.3-1.4-3.6-1.6l-21-4.1l6.1,4l-9.6,30.1L100,57.9l-5.4,22.4
			L85,50.2l6.1-4l-21,4.1c-1.3,0.2-2.6,0.7-3.6,1.6c-1,0.9-1.7,2-1.9,3.2l-6.2,27.4L70,86.5c3.9,4.1,14.8,7,27.9,7.3h2h2
			c13.1-0.3,24-3.3,27.9-7.3l11.8-4.1L135.5,55z"/>
		<path d="M100,94.3h-2c-13-0.3-24-3.2-28.2-7.4l-12.1-4.2L64,54.9c0.3-1.3,1-2.5,2.1-3.5c1.1-0.9,2.4-1.5,3.9-1.7
			l23.5-4.5l-7.8,5.2l8.9,28l5.5-22.6l5.5,22.6l8.9-28l-7.8-5.2l23.5,4.5c1.4,0.2,2.8,0.8,3.8,1.7c1.1,0.9,1.8,2.1,2.1,3.5v0
			l6.3,27.8l-12.1,4.2c-4.2,4.2-15.2,7.1-28.2,7.4H100z M58.9,82.1l11.5,4l0.1,0.1c3.9,4,15,6.9,27.6,7.2h4.1
			c12.6-0.3,23.7-3.2,27.6-7.2l0.1-0.1l11.5-4L135,55.1v0c-0.3-1.1-0.9-2.1-1.8-2.9c-0.9-0.8-2.1-1.3-3.3-1.5l-18.6-3.6l4.3,2.9
			l-10.3,32.2L100,60l-5.3,22.1L84.4,50l4.3-2.9l-18.6,3.6c-1.3,0.2-2.4,0.7-3.4,1.5C65.9,53,65.2,54,65,55.1L58.9,82.1z"/>
	</g>
	<g>
		<polygon points="100,49.2 95.2,50.9 100,57.9 104.9,50.9 		"/>
		<path d="M100,58.8l-5.6-8.1l5.6-2l5.6,2L100,58.8z M95.9,51.2L100,57l4.1-5.9l-4.1-1.5L95.9,51.2z"/>
	</g>
	<g>
		<path d="M118,22.2c0-12.4-5.1-22.2-18-22.2c-12.9,0-18,9.7-18,22.2c-1.3,0.7-2.2,2.4-0.9,5.9c0.7,1.8,1.8,3.3,2.8,4
			c3.7,9.1,10.9,16.2,16.1,16.2s12.4-7.1,16.1-16.2c1-0.8,2.2-2.3,2.8-4C120.2,24.6,119.3,22.9,118,22.2z"/>
		<path d="M100,48.9c-5.4,0-12.8-7.3-16.5-16.4c-0.9-0.8-2.2-2.2-2.9-4.2c-1.4-3.8-0.4-5.6,0.9-6.4
			C81.6,7.7,88.3-0.4,100-0.4c11.7,0,18.4,8.2,18.5,22.4c1.3,0.8,2.3,2.5,0.9,6.4c-0.7,1.9-2,3.4-2.9,4.2
			C112.8,41.5,105.4,48.9,100,48.9z M100,0.6c-15.2,0-17.5,13.6-17.5,21.7v0.3l-0.3,0.1c-1.8,1-1.4,3.4-0.7,5.3
			c0.7,1.8,1.9,3.2,2.7,3.8l0.1,0.1l0.1,0.1c3.5,8.8,10.5,15.9,15.6,15.9s12.1-7.1,15.6-15.9l0.1-0.1l0.1-0.1c0.8-0.6,2-2,2.7-3.8
			c0.7-1.9,1.2-4.3-0.7-5.3l-0.3-0.1v-0.3C117.5,14.1,115.2,0.6,100,0.6z"/>
	</g>
	<g>
		<path d="M171.9,121.6c-1.1-4.2-5-6.9-9.1-6.6l-4.6-10.1h-56.5v-7.3h-3.4v7.3H41.8L37.2,115c-4.2-0.3-8.1,2.5-9.1,6.6
			c-1.2,4.7,1.6,9.6,6.4,10.8c4.8,1.2,9.6-1.6,10.8-6.4c1.1-4.2-1-8.4-4.8-10.2l3.9-7.6h53.9v7.3c-4.1,0.8-7.2,4.4-7.2,8.7
			c0,4.9,4,8.9,8.9,8.9l0,0l0,0c4.9,0,8.9-4,8.9-8.9c0-4.3-3.1-7.9-7.2-8.7v-7.3h53.9l3.9,7.6c-3.8,1.8-5.9,6-4.8,10.2
			c1.2,4.8,6.1,7.6,10.8,6.4C170.3,131.2,173.1,126.3,171.9,121.6z M42,125.2c-0.8,2.9-3.8,4.7-6.7,3.9c-2.9-0.8-4.7-3.8-3.9-6.7
			c0.8-2.9,3.8-4.7,6.7-3.9C41,119.2,42.8,122.3,42,125.2z M105.5,124.2c0,3-2.5,5.5-5.5,5.5l0,0l0,0c-3,0-5.5-2.5-5.5-5.5
			s2.5-5.5,5.5-5.5l0,0l0,0C103,118.8,105.5,121.2,105.5,124.2z M164.7,129.1c-2.9,0.8-5.9-1-6.7-3.9c-0.8-2.9,1-5.9,3.9-6.7
			c2.9-0.8,5.9,1,6.7,3.9C169.4,125.4,167.6,128.4,164.7,129.1z"/>
		<path d="M100,133.6c-5.2,0-9.4-4.2-9.4-9.4c0-4.3,3-8.1,7.2-9.1v-6.4H44.7l-3.6,6.8c3.7,2,5.7,6.4,4.6,10.6
			c-0.6,2.4-2.2,4.5-4.3,5.7c-2.2,1.3-4.7,1.6-7.1,1c-5-1.3-8-6.4-6.7-11.4c1.1-4.2,5-7.1,9.3-7l4.6-10.1h56.3v-7.3h4.4v7.3h56.3
			l4.6,10.1c4.3-0.1,8.2,2.8,9.3,7l0,0c1.3,5-1.7,10.1-6.7,11.4c-5,1.3-10.1-1.7-11.4-6.7c-1.1-4.2,0.8-8.5,4.6-10.6l-3.5-6.8h-53.1
			v6.4c4.2,1,7.2,4.8,7.2,9.1C109.4,129.4,105.2,133.6,100,133.6z M44.1,107.7h54.7v8.2l-0.4,0.1c-3.9,0.8-6.8,4.2-6.8,8.2
			c0,4.6,3.8,8.4,8.4,8.4c4.6,0,8.4-3.8,8.4-8.4c0-4-2.9-7.5-6.8-8.2l-0.4-0.1v-8.2h54.7l4.3,8.3l-0.5,0.2c-3.6,1.7-5.5,5.8-4.5,9.7
			c1.2,4.5,5.7,7.2,10.2,6c4.5-1.2,7.2-5.7,6-10.2l0,0c-1-3.9-4.6-6.5-8.6-6.3l-0.3,0l-4.6-10.1h-56.7v-7.3h-2.4v7.3H42.1l-4.6,10.1
			l-0.3,0c-4-0.2-7.6,2.4-8.6,6.3c-1.2,4.5,1.5,9,6,10.2c2.2,0.6,4.4,0.2,6.4-0.9c1.9-1.1,3.3-3,3.9-5.1c1-3.9-0.9-7.9-4.5-9.7
			l-0.5-0.2L44.1,107.7z M100,130.2c-3.3,0-6-2.7-6-6c0-3.3,2.7-6,6-6s6,2.7,6,6C106,127.6,103.3,130.2,100,130.2z M100,119.3
			c-2.8,0-5,2.2-5,5c0,2.8,2.2,5,5,5c2.8,0,5-2.2,5-5C105,121.5,102.8,119.3,100,119.3z M163.3,129.8c-1.1,0-2.1-0.3-3-0.8
			c-1.4-0.8-2.4-2.1-2.8-3.7c-0.4-1.5-0.2-3.2,0.6-4.5c0.8-1.4,2.1-2.4,3.7-2.8c1.6-0.4,3.2-0.2,4.5,0.6c1.4,0.8,2.4,2.1,2.8,3.7
			c0.4,1.5,0.2,3.2-0.6,4.5s-2.1,2.4-3.7,2.8l0,0C164.3,129.7,163.8,129.8,163.3,129.8z M163.3,118.8c-0.4,0-0.8,0.1-1.3,0.2
			c-1.3,0.3-2.4,1.2-3.1,2.3c-0.7,1.2-0.9,2.5-0.5,3.8c0.3,1.3,1.1,2.4,2.3,3.1c1.2,0.7,2.5,0.9,3.8,0.5l0,0
			c1.3-0.3,2.4-1.1,3.1-2.3s0.9-2.5,0.5-3.8c-0.3-1.3-1.1-2.4-2.3-3C165.1,119.1,164.2,118.8,163.3,118.8z M36.7,129.8
			c-0.5,0-1-0.1-1.5-0.2c-3.2-0.8-5.1-4.1-4.3-7.3c0.8-3.2,4.1-5.1,7.3-4.3c3.2,0.8,5.1,4.1,4.3,7.3l0,0
			C41.8,128,39.3,129.8,36.7,129.8z M36.7,118.8c-2.2,0-4.3,1.5-4.8,3.7c-0.7,2.7,0.9,5.4,3.6,6.1c2.7,0.7,5.4-0.9,6.1-3.6
			c0.7-2.7-0.9-5.4-3.6-6.1C37.5,118.9,37.1,118.8,36.7,118.8z"/>
	</g>
	<g>
		<g>
			<path d="M51.4,174.1c-0.2-0.8-0.6-1.5-1.3-2.1c-0.7-0.6-1.5-1-2.4-1.1l-15.7-3c2.5-1.9,4.9-5.2,6.4-9
				c0.7-0.5,1.4-1.5,1.9-2.7c0.9-2.4,0.3-3.5-0.6-3.9c0-8.3-3.4-14.8-12-14.8c-8.6,0-12,6.5-12,14.8c-0.9,0.5-1.5,1.6-0.6,3.9
				c0.4,1.2,1.2,2.2,1.9,2.7c1.5,3.8,4,7.1,6.4,9l-15.7,3C7,171,6.1,171.4,5.4,172c-0.7,0.6-1.1,1.3-1.3,2.1L0,192.3l7.8,2.7
				c2.6,2.7,9.9,4.7,18.6,4.9h1.4h1.4c8.7-0.2,16-2.2,18.6-4.9l7.8-2.7L51.4,174.1z"/>
			<path d="M27.8,200.4h-1.4c-8.7-0.2-16-2.1-18.9-4.9l-8.1-2.8L3.7,174c0.2-0.9,0.7-1.7,1.5-2.4c0.7-0.6,1.7-1,2.7-1.2
				l14.6-2.8c-2.3-2.1-4.4-5.1-5.7-8.4c-0.6-0.5-1.5-1.5-1.9-2.8c-1-2.7-0.2-3.9,0.6-4.4c0.1-9.5,4.6-15,12.5-15
				c7.9,0,12.4,5.5,12.5,15c0.8,0.5,1.6,1.7,0.6,4.4c-0.5,1.3-1.3,2.3-1.9,2.8c-1.3,3.3-3.4,6.3-5.7,8.4l14.7,2.8
				c1,0.2,1.9,0.6,2.6,1.2c0.8,0.7,1.3,1.5,1.5,2.4l4.3,18.7l-8.1,2.8c-2.8,2.8-10.2,4.8-18.9,4.9H27.8z M0.6,192l7.5,2.6l0.1,0.1
				c2.5,2.6,9.9,4.5,18.3,4.7h2.7c8.4-0.2,15.7-2.1,18.2-4.7l0.1-0.1L55,192l-4.1-17.8c-0.2-0.7-0.5-1.3-1.1-1.9
				c-0.6-0.5-1.3-0.8-2.1-1l-16.8-3.3l0.9-0.7c2.5-2,4.9-5.2,6.3-8.8l0-0.1l0.1-0.1c0.5-0.4,1.3-1.3,1.7-2.5
				c0.6-1.7,0.5-2.8-0.4-3.3l-0.3-0.1v-0.3c0-5.3-1.5-14.3-11.5-14.3c-10,0-11.5,8.9-11.5,14.3v0.3l-0.3,0.1c-0.9,0.5-1,1.6-0.4,3.3
				c0.4,1.2,1.2,2.1,1.7,2.5l0.1,0.1l0.1,0.1c1.4,3.5,3.8,6.8,6.3,8.8l0.9,0.7l-16.8,3.3c-0.8,0.1-1.6,0.5-2.2,1
				c-0.6,0.5-1,1.2-1.1,1.9L0.6,192z"/>
		</g>
		<g>
			<path d="M195.8,174.1c-0.2-0.8-0.6-1.5-1.3-2.1c-0.7-0.6-1.5-1-2.4-1.1l-15.7-3c2.5-1.9,4.9-5.2,6.4-9
				c0.7-0.5,1.4-1.5,1.9-2.7c0.9-2.4,0.3-3.5-0.6-3.9c0-8.3-3.4-14.8-12-14.8c-8.6,0-12,6.5-12,14.8c-0.9,0.5-1.5,1.6-0.6,3.9
				c0.4,1.2,1.2,2.2,1.9,2.7c1.5,3.8,4,7.1,6.4,9l-15.7,3c-0.9,0.1-1.7,0.5-2.4,1.1c-0.7,0.6-1.1,1.3-1.3,2.1l-4.2,18.2l7.8,2.7
				c2.6,2.7,9.9,4.7,18.6,4.9h1.4h1.4c8.7-0.2,16-2.2,18.6-4.9l7.8-2.7L195.8,174.1z"/>
			<path d="M172.2,200.4h-1.4c-8.7-0.2-16.1-2.1-18.9-4.9l-8.1-2.8l4.3-18.7c0.2-0.9,0.7-1.7,1.5-2.4
				c0.7-0.6,1.6-1.1,2.7-1.2l14.6-2.8c-2.3-2.1-4.4-5.1-5.7-8.4c-0.6-0.5-1.5-1.5-1.9-2.8c-1-2.7-0.2-3.9,0.6-4.4
				c0.1-9.5,4.6-15,12.5-15c7.9,0,12.4,5.5,12.5,15c0.8,0.5,1.6,1.7,0.6,4.4c-0.5,1.3-1.3,2.3-1.9,2.8c-1.3,3.3-3.4,6.3-5.7,8.4
				l14.7,2.8c1,0.2,1.9,0.6,2.6,1.2c0.7,0.7,1.2,1.5,1.5,2.4l4.3,18.7l-8.1,2.8c-2.8,2.8-10.2,4.8-18.9,4.9H172.2z M145,192l7.5,2.6
				l0.1,0.1c2.5,2.6,9.9,4.5,18.3,4.7h2.7c8.4-0.2,15.7-2.1,18.2-4.7l0.1-0.1l7.5-2.6l-4.1-17.8c-0.2-0.7-0.6-1.3-1.1-1.9
				c-0.6-0.5-1.3-0.8-2.1-1l-16.8-3.3l0.9-0.7c2.5-2,4.9-5.2,6.3-8.8l0-0.1l0.1-0.1c0.5-0.4,1.3-1.3,1.7-2.5
				c0.6-1.7,0.5-2.8-0.4-3.3l-0.3-0.1v-0.3c0-5.3-1.5-14.3-11.5-14.3c-10,0-11.5,8.9-11.5,14.3v0.3l-0.3,0.1c-0.9,0.5-1,1.6-0.4,3.3
				c0.4,1.2,1.2,2.1,1.7,2.5l0.1,0.1l0,0.1c1.4,3.5,3.8,6.8,6.3,8.8l0.9,0.7l-16.8,3.3c-0.8,0.1-1.6,0.5-2.2,1
				c-0.6,0.5-1,1.2-1.1,1.9L145,192z"/>
		</g>
		<g>
			<path d="M123.6,174.1c-0.2-0.8-0.6-1.5-1.3-2.1c-0.7-0.6-1.5-1-2.4-1.1l-15.7-3c2.5-1.9,4.9-5.2,6.4-9
				c0.7-0.5,1.4-1.5,1.9-2.7c0.9-2.4,0.3-3.5-0.6-3.9c0-8.3-3.4-14.8-12-14.8c-8.6,0-12,6.5-12,14.8c-0.9,0.5-1.5,1.6-0.6,3.9
				c0.4,1.2,1.2,2.2,1.9,2.7c1.5,3.8,4,7.1,6.4,9l-15.7,3c-0.9,0.1-1.7,0.5-2.4,1.1c-0.7,0.6-1.1,1.3-1.3,2.1l-4.2,18.2l7.8,2.7
				c2.6,2.7,9.9,4.7,18.6,4.9h1.4h1.4c8.7-0.2,16-2.2,18.6-4.9l7.8-2.7L123.6,174.1z"/>
			<path d="M100,200.4h-1.4c-8.7-0.2-16.1-2.1-18.9-4.9l-8.1-2.8l4.3-18.7c0.2-0.9,0.7-1.7,1.5-2.4
				c0.7-0.6,1.7-1.1,2.7-1.2l14.6-2.8c-2.3-2.1-4.4-5.1-5.7-8.4c-0.6-0.5-1.5-1.5-1.9-2.8c-1-2.7-0.2-3.9,0.6-4.4
				c0.1-9.5,4.6-15,12.5-15c7.9,0,12.4,5.5,12.5,15c0.8,0.5,1.6,1.7,0.6,4.4c-0.5,1.3-1.3,2.3-1.9,2.8c-1.3,3.3-3.4,6.3-5.7,8.4
				l14.7,2.8c1,0.1,1.9,0.6,2.6,1.2c0.7,0.6,1.2,1.5,1.5,2.4l4.3,18.7l-8.1,2.8c-2.8,2.8-10.2,4.8-18.9,4.9H100z M72.8,192l7.5,2.6
				l0.1,0.1c2.5,2.6,9.9,4.5,18.3,4.7h2.7c8.4-0.2,15.7-2.1,18.2-4.7l0.1-0.1l7.5-2.6l-4.1-17.8c-0.2-0.7-0.6-1.3-1.1-1.9
				c-0.6-0.5-1.3-0.8-2.1-1l-16.8-3.3l0.9-0.7c2.5-1.9,4.9-5.2,6.3-8.8l0-0.1l0.1-0.1c0.5-0.4,1.3-1.3,1.7-2.5
				c0.6-1.7,0.5-2.8-0.4-3.3l-0.3-0.1v-0.3c0-5.3-1.5-14.3-11.5-14.3c-10,0-11.5,8.9-11.5,14.3v0.3l-0.3,0.1c-0.9,0.5-1,1.6-0.4,3.3
				c0.4,1.2,1.2,2.1,1.7,2.5l0.1,0.1l0,0.1c1.4,3.5,3.8,6.8,6.3,8.8l0.9,0.7l-16.8,3.3c-0.8,0.1-1.6,0.5-2.2,1
				c-0.6,0.5-1,1.2-1.1,1.9L72.8,192z"/>
		</g>
	</g>
</g>
</svg>
