<svg xmlns="http://www.w3.org/2000/svg" xmlns:xlink="http://www.w3.org/1999/xlink" preserveAspectRatio="xMidYMid" width="24" height="22" viewBox="0 0 24 22">
  <path d="M9.237,14.501 C9.870,15.120 10.001,16.149 10.001,17.059 C10.001,17.059 10.001,22.000 10.001,22.000 C10.001,22.000 12.000,22.000 12.000,22.000 C12.000,22.000 12.000,16.903 12.000,16.903 C12.000,15.126 12.662,13.878 13.735,12.696 C12.620,13.144 11.156,13.731 9.237,14.501 ZM4.472,10.728 C4.472,10.728 6.028,13.633 6.028,13.633 C6.028,13.633 16.556,9.410 16.567,9.405 C16.567,9.405 13.852,4.335 13.852,4.335 C13.841,4.342 4.472,10.728 4.472,10.728 ZM19.339,-0.000 C17.487,-0.000 16.141,0.965 15.201,2.618 C15.201,2.618 18.746,9.237 18.746,9.237 C22.145,9.459 24.000,7.087 24.000,4.662 C24.000,2.064 21.902,-0.000 19.339,-0.000 ZM3.979,14.045 C2.511,15.023 1.811,16.307 1.748,18.000 C1.748,18.000 -0.000,18.000 -0.000,18.000 C0.069,15.653 1.100,13.814 3.153,12.503 C3.153,12.503 3.979,14.045 3.979,14.045 Z" id="path-1" fill-rule="evenodd"/>
</svg>
