<svg xmlns="http://www.w3.org/2000/svg" width="27" height="18" viewBox="0 0 27 18">
  <path id="people.svg" class="cls-1" d="M100,1879h6.751c-0.032-7.36,3.369-4.16,3.369-10.01a3.221,3.221,0,0,0-3.372-3.49c-2.8,0-4.753,2.68-2.1,7.69,0.872,1.65-.928,2.04-2.863,2.49-1.678.39-1.789,1.21-1.789,2.63C100,1878.52,100,1878.75,100,1879ZM127,1879H109c0-.33,0-0.64,0-0.93,0-1.89.149-2.98,2.382-3.5,2.525-.58,5.015-1.1,3.817-3.31-3.549-6.55-1.011-10.26,2.8-10.26,3.736,0,6.338,3.57,2.8,10.26-1.163,2.19,1.239,2.72,3.817,3.31,2.236,0.52,2.384,1.61,2.384,3.5C127,1878.36,127,1878.67,127,1879Z" transform="translate(-100 -1861)"/>
</svg>
