<svg xmlns="http://www.w3.org/2000/svg" width="16" height="16.031" viewBox="0 0 16 16.031">
  <path id="phone.svg" class="cls-1" d="M882.288,678.985c-0.983.961-2.61,1.139-3.069,0.348a2.692,2.692,0,0,1-.085-1.862,3.471,3.471,0,0,0-.2-2.474c-0.813-1.384-2.6-1.321-3.937-.446l0.637,0.975a2.284,2.284,0,0,1,1.662-.406c1.1,0.258.768,1.684,0.687,2.152a3.7,3.7,0,0,0,.225,2.646c0.887,1.529,3.369,1.364,4.86-.061C882.806,679.586,882.545,679.3,882.288,678.985Zm0.506-12.255-0.682.337c-3.529,1.841,2.785,14.123,6.432,12.457,0.048-.022.352-0.171,0.648-0.316l-1.514-2.922c-0.319.157-.655,0.321-0.684,0.334-2.109,1.031-5.508-5.479-3.37-6.626l0.672-.331Zm-1.286-.849,1.9-.881,2.694,5.259-1.817.895c-0.358.839,1.44,4.192,2.2,4.248,0.06-.039,1.781-0.886,1.781-0.886L891,679.8s-1.842.9-1.9,0.931C883.857,683.129,876.363,668.563,881.508,665.881Z" transform="translate(-875 -665)"/>
</svg>
