<svg xmlns="http://www.w3.org/2000/svg" xmlns:xlink="http://www.w3.org/1999/xlink" preserveAspectRatio="xMidYMid" width="24" height="22" viewBox="0 0 24 22">
  <path d="M6.686,6.999 C6.686,6.999 8.301,2.563 8.301,2.563 C8.301,2.563 21.455,7.352 21.455,7.352 C21.455,7.352 20.000,11.351 20.000,11.351 C20.000,11.351 20.000,17.199 20.000,17.199 C20.000,17.199 24.000,6.157 24.000,6.157 C24.000,6.157 7.105,-0.000 7.105,-0.000 C7.105,-0.000 4.557,6.999 4.557,6.999 C4.557,6.999 6.686,6.999 6.686,6.999 ZM12.000,14.000 C10.896,14.000 10.000,14.896 10.000,16.000 C10.000,17.103 10.896,18.000 12.000,18.000 C13.104,18.000 14.000,17.103 14.000,16.000 C14.000,14.896 13.104,14.000 12.000,14.000 ZM16.000,16.000 C16.000,13.791 14.209,12.000 12.000,12.000 C9.791,12.000 8.000,13.791 8.000,16.000 C8.000,18.209 9.791,20.000 12.000,20.000 C14.209,20.000 16.000,18.209 16.000,16.000 ZM5.000,10.999 C5.000,10.999 2.000,10.999 2.000,10.999 C2.000,10.999 2.000,13.000 2.000,13.000 C2.000,13.000 5.000,13.000 5.000,13.000 C5.000,13.000 5.000,10.999 5.000,10.999 ZM18.000,9.000 C18.000,9.000 18.000,22.000 18.000,22.000 C18.000,22.000 -0.000,22.000 -0.000,22.000 C-0.000,22.000 -0.000,9.000 -0.000,9.000 C-0.000,9.000 18.000,9.000 18.000,9.000 Z" id="path-1" fill-rule="evenodd"/>
</svg>
