<svg xmlns="http://www.w3.org/2000/svg" xmlns:xlink="http://www.w3.org/1999/xlink" preserveAspectRatio="xMidYMid" width="79" height="79" viewBox="0 0 79 79">
  <path d="M34.495,18.573 C34.906,18.393 35.459,18.400 35.517,17.850 C35.565,17.361 35.662,17.699 35.781,17.522 C35.896,17.348 35.559,17.069 35.418,17.040 C35.205,16.995 35.061,17.268 34.926,17.381 C34.855,17.438 34.768,17.381 34.688,17.442 C34.614,17.499 34.524,17.650 34.463,17.728 C34.395,17.811 34.466,17.817 34.489,17.885 C34.534,18.001 34.267,18.174 34.202,18.235 C33.926,18.515 34.212,18.695 34.495,18.573 C34.620,18.518 34.360,18.631 34.495,18.573 ZM74.275,39.499 C74.275,36.092 73.376,32.653 72.781,30.836 C72.592,30.264 70.572,29.808 70.012,29.592 C69.170,29.264 65.612,31.556 65.075,30.428 C64.721,29.673 64.007,30.910 63.191,30.454 C62.796,30.235 61.696,28.759 61.198,28.940 C60.182,29.306 62.757,32.113 63.461,32.482 C64.123,31.981 66.264,30.952 66.727,32.357 C67.608,35.002 64.300,37.902 62.609,39.432 C60.083,41.718 60.555,37.953 58.832,36.629 C57.926,35.935 57.935,34.456 57.022,33.944 C56.614,33.713 54.740,31.560 54.759,31.267 C54.801,31.460 54.785,31.640 54.705,31.814 C54.396,32.048 53.737,30.933 53.666,30.756 C53.666,31.727 55.248,33.273 55.769,34.051 C56.659,35.385 57.138,37.327 58.231,38.416 C58.816,39.001 61.057,41.425 61.638,41.374 C62.275,41.319 64.281,39.866 64.637,39.949 C66.756,40.451 59.649,50.500 58.974,51.744 C58.417,52.788 59.427,55.366 59.346,56.601 C59.250,58.025 58.128,58.488 57.064,59.262 C55.926,60.095 56.193,61.715 55.235,62.307 C53.535,63.355 52.310,66.759 49.892,66.743 C49.182,66.739 46.141,67.929 45.743,66.765 C45.434,65.923 45.019,65.283 44.582,64.450 C44.155,63.634 44.534,62.788 44.013,62.069 C43.653,61.567 42.451,60.432 42.342,59.841 C42.335,59.330 42.727,57.781 43.264,57.511 C44.020,57.125 43.409,56.003 43.316,55.350 C43.158,54.186 42.438,53.226 41.570,52.550 C40.291,51.567 40.953,50.782 41.252,49.378 C41.252,48.706 40.844,47.825 39.940,48.089 C38.082,48.629 38.648,46.639 37.295,46.729 C36.321,46.800 35.524,47.417 34.617,47.690 C33.479,48.031 32.312,47.420 31.187,47.279 C26.555,46.694 25.044,41.399 26.253,37.580 C26.375,36.954 25.877,35.796 26.095,35.311 C26.616,34.154 27.677,32.852 28.603,31.974 C29.124,31.479 29.792,31.605 30.403,31.222 C31.348,30.627 31.361,29.403 32.287,28.650 C33.605,27.580 35.401,27.603 37.118,27.374 C38.034,27.252 41.515,26.500 42.065,27.178 C42.065,27.304 42.695,29.168 42.004,29.062 C43.428,29.139 45.460,31.528 46.813,30.968 C47.507,30.679 47.253,28.544 48.681,29.576 C49.542,30.197 53.406,30.473 54.210,29.805 C54.705,29.396 54.981,26.744 54.380,26.445 C54.763,26.825 52.368,26.854 52.146,26.767 C51.750,26.622 51.381,27.143 50.748,26.850 C51.130,27.030 48.623,25.683 50.031,24.655 C49.442,25.086 48.893,24.533 48.256,25.008 C47.819,25.365 48.462,25.600 47.835,25.912 C46.842,26.417 46.090,24.182 45.717,23.931 C45.334,23.681 42.380,21.607 43.184,22.961 C43.750,23.912 46.106,25.333 45.781,25.545 C45.653,25.629 45.100,24.603 45.100,25.352 C45.273,24.909 45.164,27.259 44.756,26.494 C44.576,26.201 45.051,26.037 44.775,25.613 C44.775,25.333 44.026,25.060 43.878,24.870 C43.467,24.359 42.374,23.234 41.782,22.964 C41.618,22.887 39.268,23.250 39.069,23.327 C38.838,23.649 38.642,23.989 38.481,24.349 C37.992,24.530 37.536,24.764 37.102,25.053 C36.764,25.356 36.845,25.992 36.584,26.214 C36.359,26.413 34.067,27.172 34.055,27.201 C34.151,26.953 32.451,26.638 32.563,26.143 C32.688,25.600 33.264,23.906 33.116,23.286 C32.958,22.636 36.652,24.221 36.890,22.510 C36.986,21.771 37.041,20.907 35.858,20.781 C36.083,20.807 38.147,19.971 38.487,19.595 C38.970,19.042 40.072,18.139 40.869,18.139 C41.805,18.139 41.602,16.779 42.033,16.114 C42.464,16.288 41.802,17.351 42.319,17.782 C42.287,17.445 43.785,17.969 43.930,17.891 C44.273,17.708 46.183,17.814 45.887,16.918 C45.559,16.005 46.054,16.275 46.482,16.085 C46.408,16.114 47.601,14.047 47.806,14.725 C47.665,14.027 46.421,14.969 45.987,14.934 C44.984,14.854 45.408,13.224 45.788,12.745 C46.080,12.366 44.987,11.903 44.974,12.626 C44.955,13.709 43.949,14.690 44.180,16.130 C44.537,18.300 41.760,15.606 41.519,15.754 C40.596,16.313 39.844,15.050 40.320,14.291 C40.808,13.517 41.982,13.555 42.467,12.726 C42.808,12.141 43.206,11.459 43.733,11.016 C45.495,9.537 45.980,10.720 47.736,10.881 C49.452,11.038 48.314,11.289 48.080,11.948 C47.851,12.575 49.021,12.797 49.426,12.272 C49.658,11.970 50.182,11.209 50.407,10.646 C50.699,9.916 53.374,8.728 51.506,7.612 C50.275,6.879 45.227,5.400 41.633,5.400 C40.856,5.400 39.995,7.534 39.404,8.026 C38.230,8.997 35.231,10.903 33.560,10.325 C31.853,9.736 28.194,12.498 27.609,12.517 C27.391,12.526 27.616,10.427 28.783,10.273 C28.278,10.347 32.570,6.359 32.445,5.858 C32.294,5.267 23.550,8.247 23.955,8.909 C24.147,9.212 24.938,11.115 23.903,11.780 C23.308,12.138 22.675,14.417 22.119,14.417 C20.457,15.143 20.351,12.986 18.503,15.763 C18.136,16.300 15.292,15.953 14.594,16.447 C9.909,19.767 6.156,26.901 5.800,34.009 C5.786,34.272 8.168,34.752 8.316,34.931 C8.686,35.372 8.686,37.275 8.866,37.899 C9.319,39.471 10.444,40.348 11.302,41.779 C11.810,42.631 12.652,44.788 12.386,45.681 C12.742,45.096 15.909,48.365 16.487,49.047 C17.850,50.650 18.901,52.592 16.687,54.177 C15.973,54.691 17.773,57.893 16.844,58.681 C16.722,58.783 15.957,58.803 15.655,58.986 C14.481,59.706 12.474,61.791 13.187,62.537 C19.173,68.796 27.181,74.919 39.490,74.919 C57.649,74.919 74.275,59.033 74.275,39.499 ZM51.648,21.820 C51.628,21.337 51.021,20.884 50.391,21.717 C49.947,22.289 50.024,23.163 49.786,23.549 C49.442,24.124 51.654,24.664 51.654,24.121 C51.738,23.208 54.065,23.912 54.518,24.038 C55.335,24.266 56.633,23.295 55.213,22.784 C54.039,22.360 53.425,21.903 53.319,21.067 C53.319,21.067 53.940,20.489 53.670,20.521 C52.949,20.608 51.648,23.105 51.648,21.820 ZM79.000,39.499 C79.000,61.315 61.314,79.000 39.500,79.000 C17.683,79.000 -0.000,61.315 -0.000,39.499 C-0.000,17.684 17.683,-0.000 39.500,-0.000 C61.314,-0.000 79.000,17.684 79.000,39.499 ZM36.183,16.782 C36.048,16.985 36.491,16.641 36.539,16.679 C36.752,16.860 36.302,16.991 36.372,17.127 C36.655,17.637 36.443,17.943 36.398,18.219 C36.353,18.499 36.054,18.377 35.906,18.525 C35.733,18.743 36.755,18.772 36.768,18.805 C36.803,18.914 35.533,19.097 35.768,19.367 C36.083,19.814 38.481,18.724 38.098,18.788 C38.838,18.415 38.195,18.377 37.780,18.161 C37.639,17.454 37.520,16.362 37.079,15.924 C36.999,15.763 37.443,15.693 37.369,15.590 C36.687,14.606 36.183,16.782 36.183,16.782 ZM43.264,26.895 C43.148,26.677 44.389,26.561 44.611,26.561 C44.855,26.590 43.968,28.046 43.264,26.895 Z" id="path-1" class="cls-2" fill-rule="evenodd"/>
</svg>
