<svg xmlns="http://www.w3.org/2000/svg" xmlns:xlink="http://www.w3.org/1999/xlink" preserveAspectRatio="xMidYMid" width="24" height="18" viewBox="0 0 24 18">
  <path d="M20.000,14.160 C17.137,14.375 14.946,14.872 13.000,15.644 C13.000,15.644 13.000,4.031 13.000,4.031 C15.004,2.784 17.648,2.307 20.000,2.109 C20.000,2.109 20.000,14.160 20.000,14.160 ZM11.000,15.644 C9.054,14.872 6.863,14.375 4.000,14.160 C4.000,14.160 4.000,2.109 4.000,2.109 C6.352,2.307 8.996,2.784 11.000,4.031 C11.000,4.031 11.000,15.644 11.000,15.644 ZM23.000,2.000 C23.000,2.000 23.000,15.883 23.000,15.883 C23.000,15.883 22.000,15.999 22.000,15.999 C22.000,15.999 22.000,-0.000 22.000,-0.000 C18.105,0.118 14.495,0.761 11.998,2.315 C9.502,0.761 5.895,0.118 2.000,-0.000 C2.000,-0.000 2.000,15.999 2.000,15.999 C2.000,15.999 1.000,15.883 1.000,15.883 C1.000,15.883 1.000,2.000 1.000,2.000 C1.000,2.000 -0.000,2.000 -0.000,2.000 C-0.000,2.000 -0.000,17.000 -0.000,17.000 C-0.000,17.000 9.057,17.000 9.057,17.000 C10.535,17.000 10.697,17.999 11.998,17.999 C13.302,17.999 13.459,17.000 14.940,17.000 C14.940,17.000 24.000,17.000 24.000,17.000 C24.000,17.000 24.000,2.000 24.000,2.000 C24.000,2.000 23.000,2.000 23.000,2.000 Z" id="path-1" fill-rule="evenodd"/>
</svg>
