<svg xmlns="http://www.w3.org/2000/svg" width="24" height="22" viewBox="0 0 24 22">
  <path id="question.svg" class="cls-1" d="M114.165,3676.78a2.91,2.91,0,0,0-2.09-.78c-1.786,0-2.941,1.27-2.941,3.24h1.647c0-1.22.68-1.65,1.261-1.65a1.079,1.079,0,0,1,1.117,1,1.736,1.736,0,0,1-.788,1.49,3.026,3.026,0,0,0-1.173,2.85h1.643a2.168,2.168,0,0,1,.765-1.79,3.664,3.664,0,0,0,1.259-2.47A2.586,2.586,0,0,0,114.165,3676.78Zm-1.141,8.19a1.024,1.024,0,1,1-1.024-1.02A1.026,1.026,0,0,1,113.024,3684.97ZM112,3671c-6.338,0-12,4.23-12,10.01a8.794,8.794,0,0,0,2.047,5.62c0.055,1.83-1.023,4.46-1.993,6.37a28.739,28.739,0,0,0,7.977-2.54,16.926,16.926,0,0,0,4.059.51c7.084,0,11.91-4.84,11.91-9.96C124,3675.19,118.3,3671,112,3671Zm0,2c5.514,0,10,3.59,10,8.01,0,4.91-5.145,7.96-9.91,7.96a16.876,16.876,0,0,1-4.394-.65,13.241,13.241,0,0,1-4.272,1.82,9.326,9.326,0,0,0,.6-4.26,7.041,7.041,0,0,1-2.025-4.87C102,3676.59,106.486,3673,112,3673Z" transform="translate(-100 -3671)"/>
</svg>
