<svg xmlns="http://www.w3.org/2000/svg" width="24" height="24" viewBox="0 0 24 24">
  <path id="roadmap.svg" class="cls-1" d="M117.952,1731a6.7,6.7,0,0,0-.952-2.34V1731h0.952Zm0.548-8a1.5,1.5,0,1,1,1.5,1.5A1.5,1.5,0,0,1,118.5,1723Zm5.5-.2a4.005,4.005,0,0,0-8,0c0,3.12,3.188,3.45,4,8.2C120.811,1726.25,124,1725.92,124,1722.8Zm-2,8.4v6.69l-4,2.47V1736h-1v4.14l-4-2.89V1734h-2v3.25l-4,2.89V1736h-1v4.36l-4-2.47v-13.3l4,2.48V1731h1v-3.93l4-2.88V1729h2v-4.81l1.577,1.13a5.626,5.626,0,0,1-.577-2.52c0-.12.012-0.23,0.018-0.34L112,1721l-5.545,4L100,1721v18l6.455,4,5.545-4,5.545,4,6.455-4v-11.62c-0.013.02-.026,0.03-0.039,0.05A7.336,7.336,0,0,0,122,1731.2Zm-18.031.84a0.965,0.965,0,1,0,.968.96A0.965,0.965,0,0,0,103.969,1732.04Zm16.061,0a0.965,0.965,0,1,0,.969.96A0.965,0.965,0,0,0,120.03,1732.04Zm-7.327.16a2,2,0,0,0-.764-0.15,2.186,2.186,0,0,0-.673.11l-0.4-1.1a3.042,3.042,0,0,1,1.075-.19,3.167,3.167,0,0,1,1.217.24Zm-3.918,1.41-0.6-1.01,1.638-.99,0.606,1.01Zm6.455,0.02-1.659-.95,0.583-1.02,1.66,0.94Zm-8.67.78a3.151,3.151,0,0,1-1.093-.2l0.408-1.1a2,2,0,0,0,.685.12,1.951,1.951,0,0,0,.754-0.15l0.447,1.09A3.091,3.091,0,0,1,106.57,1734.41Zm10.922,0.02a3.181,3.181,0,0,1-1.253-.26l0.467-1.08a1.933,1.933,0,0,0,.786.16,1.817,1.817,0,0,0,.652-0.11l0.387,1.12A3.317,3.317,0,0,1,117.492,1734.43Z" transform="translate(-100 -1719)"/>
</svg>
