<?xml version="1.0" encoding="utf-8"?>
<!-- Generator: Adobe Illustrator 18.1.1, SVG Export Plug-In . SVG Version: 6.00 Build 0)  -->
<svg version="1.1" id="Слой_1" xmlns="http://www.w3.org/2000/svg" xmlns:xlink="http://www.w3.org/1999/xlink" x="0px" y="0px"
	 viewBox="0 0 240 240" enable-background="new 0 0 240 240" xml:space="preserve">
<g>
	<path d="M210,128.2c-2.3-2.9-4.7-5.9-7.4-8.8c2.6-3,5-5.9,7.3-8.9c15.3-20.4,19.5-38.6,12-51.3c-1.2-2-2.7-3.9-4.5-5.6
		c0.2-1.3,0.4-2.6,0.4-4c0-12.5-10.2-22.7-22.7-22.7c-10.9,0-20,7.7-22.2,18c-3.8,0.5-7.8,1.2-11.8,2.1c-1.1-3.3-2.3-6.5-3.6-9.6
		C147.7,14,134.3,1,119.5,1s-28.2,13-38,36.5c-1.3,3.2-2.6,6.6-3.7,10.2c-4.6-1-9.1-1.6-13.5-2.1C62.4,35,53.1,27,42,27
		c-12.5,0-22.7,10.2-22.7,22.7c0,2.1,0.3,4.1,0.8,6c-1.5,1.5-2.8,3.2-3.8,5C9,73.5,13.5,91.7,29,111.8c2.3,2.9,4.7,5.9,7.4,8.8
		c-2.6,3-5,5.9-7.3,8.9c-15.3,20.4-19.5,38.6-12,51.3c5.9,10,18.3,15.2,35.6,15.2c4.7,0,9.8-0.4,15.1-1.2c3.3-0.5,6.6-1.1,10-1.8
		c1.1,3.3,2.3,6.5,3.5,9.6c9.7,23.5,23.2,36.5,38,36.5s28.2-13,38-36.5c1.4-3.3,2.6-6.8,3.8-10.4c3.7,0.8,7.3,1.4,10.9,1.9
		c4.9,0.6,9.5,1,13.9,1c18,0,30.8-5.4,36.7-15.7C230,166.5,225.5,148.3,210,128.2z M195,37c7,0,12.7,5.7,12.7,12.7
		S202,62.3,195,62.3s-12.7-5.7-12.7-12.7S188,37,195,37z M173,55c2.4,9.9,11.4,17.3,22,17.3c7.2,0,13.6-3.4,17.8-8.6
		c0.1,0.2,0.3,0.4,0.4,0.6c5.3,8.8,1.1,23.5-11.4,40.2c-1.9,2.5-4,5.1-6.2,7.6c-7.5-7.4-16.1-14.6-25.5-21.5
		c-1.3-12.1-3.4-23.5-6.2-34C167,56,170,55.5,173,55z M141,156.3c-7,4.2-14.1,8-21.2,11.3c-7.1-3.3-14.3-7-21.3-11
		c-7-4-13.8-8.3-20.2-12.8c-0.7-7.5-1-15.5-1-23.8c0-8.1,0.3-16,1-23.4c6.2-4.5,12.8-8.8,19.7-12.9c7-4.2,14.1-8,21.2-11.4
		c7,3.3,14.2,7,21.3,11c7,4,13.8,8.3,20.2,12.8c0.7,7.5,1,15.5,1,23.8c0,8.1-0.3,16-1,23.4C154.5,147.9,147.9,152.2,141,156.3z
		 M159.2,156.6c-1.2,8.5-2.8,16.5-4.7,23.7c-7.3-1.9-14.9-4.5-22.6-7.5c4.8-2.5,9.5-5.1,14.3-7.9C150.6,162.2,155,159.4,159.2,156.6
		z M107.9,172.9c-7.9,3.3-15.7,6-23.2,8.1c-2-7.4-3.6-15.4-4.9-24.1c4.4,2.9,9,5.7,13.7,8.4C98.3,168,103.1,170.5,107.9,172.9z
		 M67.8,136c-6.4-5-12.3-10.2-17.6-15.5c5.3-5.4,11.2-10.7,17.6-15.9c-0.3,5.1-0.4,10.2-0.4,15.4C67.3,125.4,67.5,130.7,67.8,136z
		 M79.8,83.4c1.2-8.6,2.8-16.6,4.8-23.8c7.3,2,14.9,4.5,22.7,7.6c-4.8,2.5-9.6,5.1-14.4,7.9C88.4,77.8,84,80.6,79.8,83.4z
		 M131.2,67.1c7.9-3.3,15.6-6,23.1-8c2,7.4,3.6,15.4,4.9,24.1c-4.4-2.9-9-5.7-13.7-8.4C140.7,72,135.9,69.5,131.2,67.1z M171.2,104
		c6.4,5,12.3,10.2,17.6,15.5c-5.3,5.4-11.2,10.7-17.6,15.9c0.3-5.1,0.4-10.2,0.4-15.4C171.7,114.6,171.5,109.3,171.2,104z M119.5,11
		c11.6,0,23.7,14.2,31.9,38.5c-10.4,2.9-21.2,6.9-32.2,11.9c-10.9-4.9-21.6-8.7-31.8-11.4C95.7,25.4,107.8,11,119.5,11z M42,37
		c7,0,12.7,5.7,12.7,12.7S49,62.3,42,62.3s-12.7-5.7-12.7-12.7S35,37,42,37z M36.9,105.7c-12.7-16.5-17.1-31.1-12-40
		c0.1-0.2,0.3-0.4,0.4-0.6c4.1,4.5,10.1,7.3,16.6,7.3c10.5,0,19.3-7.1,21.9-16.7c3.6,0.4,7.2,1,11.1,1.7
		c-2.8,10.5-4.8,21.9-6.1,33.9c-9.5,7.1-18.1,14.5-25.6,22.1C41,110.8,38.9,108.2,36.9,105.7z M66.5,184.9
		c-20.6,3-35.5-0.4-40.7-9.2c-5.3-8.8-1.1-23.5,11.4-40.2c1.9-2.5,4-5.1,6.2-7.6c7.5,7.4,16.1,14.6,25.5,21.5
		c1.3,12.1,3.4,23.5,6.2,34.1C72.2,184,69.3,184.5,66.5,184.9z M119.5,229c-11.6,0-23.6-14.2-31.9-38.4c10.4-2.9,21.3-6.9,32.3-12
		c10.8,4.7,21.5,8.5,31.7,11.3C143.4,214.5,131.2,229,119.5,229z M214,174.3c-5.1,8.9-19.9,12.5-40.6,9.8c-3-0.4-6.2-0.9-9.3-1.6
		c2.8-10.4,4.8-21.8,6.1-33.7c9.5-7.1,18.1-14.5,25.6-22.1c2.2,2.5,4.4,5,6.3,7.6C214.8,150.8,219.1,165.4,214,174.3z"/>
	<path d="M119,94c-12.5,0-22.7,10.2-22.7,22.7s10.2,22.7,22.7,22.7s22.7-10.2,22.7-22.7S131.5,94,119,94z M119,129.3
		c-7,0-12.7-5.7-12.7-12.7S112,104,119,104s12.7,5.7,12.7,12.7S126,129.3,119,129.3z"/>
</g>
</svg>
