<svg xmlns="http://www.w3.org/2000/svg" xmlns:xlink="http://www.w3.org/1999/xlink" preserveAspectRatio="xMidYMid" width="24" height="22" viewBox="0 0 24 22">
  <path d="M19.957,10.857 C19.656,10.375 18.891,9.796 17.995,9.910 C17.996,9.940 18.000,9.970 18.000,9.999 C18.000,14.410 14.411,17.999 10.000,17.999 C5.589,17.999 2.000,14.410 2.000,9.999 C2.000,5.588 5.589,1.999 10.000,1.999 C11.475,1.999 12.853,2.408 14.041,3.106 C14.375,2.521 14.469,1.562 14.186,0.926 C12.912,0.338 11.497,-0.001 10.000,-0.001 C4.477,-0.001 -0.000,4.476 -0.000,9.999 C-0.000,12.957 1.291,15.606 3.332,17.437 C3.332,17.437 2.025,21.489 2.025,21.489 C1.902,21.872 2.375,22.169 2.665,21.889 C2.665,21.889 5.667,19.001 5.667,19.001 C6.979,19.634 8.445,19.999 10.000,19.999 C11.556,19.999 13.023,19.637 14.335,19.004 C14.335,19.004 17.335,21.889 17.335,21.889 C17.625,22.169 18.098,21.872 17.975,21.489 C17.975,21.489 16.669,17.440 16.669,17.440 C18.508,15.788 19.734,13.467 19.957,10.857 ZM10.000,7.999 C8.895,7.999 8.000,8.895 8.000,9.999 C8.000,11.104 8.895,11.999 10.000,11.999 C11.105,11.999 12.000,11.104 12.000,9.999 C12.000,9.994 11.998,9.990 11.998,9.984 C11.998,9.984 15.358,8.034 15.358,8.034 C16.334,7.469 18.062,7.698 19.069,8.193 C19.069,8.193 24.000,5.330 24.000,5.330 C24.000,5.330 20.842,3.760 20.842,3.760 C20.842,3.760 21.011,0.129 21.011,0.129 C21.011,0.129 16.066,3.000 16.066,3.000 C15.996,4.121 15.332,5.736 14.361,6.300 C14.361,6.300 10.978,8.265 10.978,8.265 C10.688,8.101 10.357,7.999 10.000,7.999 ZM6.000,9.999 C6.000,12.205 7.794,13.999 10.000,13.999 C11.761,13.999 13.242,12.849 13.775,11.265 C13.775,11.265 15.999,9.975 15.999,9.975 C15.999,9.983 16.000,9.991 16.000,9.999 C16.000,13.313 13.314,16.000 10.000,16.000 C6.686,16.000 4.000,13.313 4.000,9.999 C4.000,6.686 6.686,3.999 10.000,3.999 C11.084,3.999 12.098,4.291 12.975,4.794 C12.975,4.794 10.765,6.076 10.765,6.076 C10.517,6.028 10.262,5.999 10.000,5.999 C7.794,5.999 6.000,7.794 6.000,9.999 Z" id="path-1" fill-rule="evenodd"/>
</svg>
