<?xml version="1.0" encoding="utf-8"?>
<!-- Generator: Adobe Illustrator 19.2.1, SVG Export Plug-In . SVG Version: 6.00 Build 0)  -->
<svg version="1.1"
	 id="Слой_1" text-rendering="geometricPrecision" image-rendering="optimizeQuality" shape-rendering="geometricPrecision"
	 xmlns="http://www.w3.org/2000/svg" xmlns:xlink="http://www.w3.org/1999/xlink" x="0px" y="0px" viewBox="0 0 500 500"
	 style="enable-background:new 0 0 500 500;" xml:space="preserve">
<path d="M288,249.1C357.2,218.5,382.8,132.3,384,60h11c6,0,10-4,10-10V36c0-6-4-10-10-10H105c-6,0-10,4-10,10v14
	c0,6,4,10,10,10h11c1.1,72.3,26.8,158.5,95.9,189.1l0.1,0c0.7,0.3,1.3,0.6,1.8,0.8c-0.5,0.2-1.1,0.5-1.9,0.8
	c-34.4,15-60.3,44.1-76.9,86.4c-15.4,39.2-18.6,79.5-19,102.8h-11c-6,0-10,4-10,10v14c0,6,4,10,10,10h290c6,0,10-4,10-10v-14
	c0-6-4-10-10-10h-11c-0.4-23.3-3.6-63.6-19-102.8c-16.6-42.3-42.5-71.4-77-86.4c-0.7-0.3-1.3-0.6-1.8-0.8c0.5-0.2,1.1-0.5,1.8-0.8
	L288,249.1z M364,60c-0.5,31.2-5.8,65.1-17.6,95H153.7c-11.8-29.9-17.1-63.8-17.6-95H364z M219.9,269.2c4.8-2,9.7-4.6,12.6-9.4
	l-5.3,108.8c-24.9,3.9-46.1,15.2-60.1,32.3c-11.6,14.5-17.7,17.4-21.6,18.1c-3.6,0.2-6.9,2.4-8.8,5.4
	C140.8,361.9,164.3,293.5,219.9,269.2z M363.3,424.4c-1.9-3-5.2-5.2-8.8-5.4c-4-0.7-10-3.6-21.7-18.2c-14-17-35.2-28.3-60.1-32.2
	l-5.3-108.8c2.9,4.8,7.8,7.3,12.5,9.4C335.7,293.5,359.2,361.9,363.3,424.4z"/>
</svg>
